{"glyphs":{"0":{"ha":957,"x_min":69,"x_max":898,"o":"m 484 -18 q 275 54 369 -18 q 125 248 181 126 q 69 517 69 370 q 125 787 69 665 q 275 980 181 908 q 484 1053 369 1053 q 692 980 597 1053 q 842 787 786 908 q 898 517 898 665 q 842 248 898 370 q 692 54 786 126 q 484 -18 597 -18 m 509 8 q 636 39 582 8 q 727 122 690 71 q 788 235 765 173 q 822 361 811 297 q 832 481 832 426 q 817 614 832 541 q 771 760 802 688 q 696 893 741 833 q 591 990 651 953 q 455 1027 530 1027 q 332 997 385 1027 q 242 917 279 966 q 181 807 204 867 q 146 683 157 746 q 135 565 135 621 q 150 429 135 503 q 193 280 164 354 q 267 145 222 206 q 372 46 312 83 q 509 8 433 8 z "},"1":{"ha":328,"x_min":70,"x_max":262,"o":"m 262 0 l 77 0 l 77 19 q 107 29 97 24 q 127 51 119 35 q 136 98 136 66 l 136 927 q 70 903 109 913 l 70 927 q 185 1034 168 962 l 203 1034 l 203 98 q 220 38 204 52 q 258 20 236 24 l 262 19 l 262 0 z "},"2":{"ha":758,"x_min":84,"x_max":694,"o":"m 672 0 l 84 0 l 84 75 q 109 198 84 140 q 175 309 134 256 q 266 409 216 361 q 369 503 316 457 q 488 613 433 558 q 579 726 544 668 q 614 850 614 785 q 579 950 614 909 q 492 1013 545 991 q 382 1034 439 1034 q 286 1011 332 1034 q 211 941 240 988 q 182 823 182 895 l 85 838 q 196 1001 112 950 q 385 1053 281 1053 q 532 1027 465 1053 q 641 954 600 1002 q 683 840 683 907 q 660 729 683 781 q 600 627 637 676 q 515 532 562 578 q 419 442 468 486 q 325 353 370 397 q 243 263 279 309 q 185 168 207 217 q 164 64 164 119 l 164 19 l 574 19 q 647 37 624 19 q 675 77 670 54 l 694 77 l 672 0 z "},"3":{"ha":828,"x_min":44,"x_max":783,"o":"m 410 -18 q 273 8 338 -18 q 155 86 207 34 q 74 218 104 139 q 44 404 44 297 l 148 404 q 131 281 131 338 q 158 160 131 213 q 226 72 184 108 q 315 18 268 37 q 402 0 361 0 q 533 26 476 0 q 630 95 591 52 q 689 192 669 138 q 709 302 709 245 q 606 530 709 463 q 381 583 524 583 l 335 582 l 335 603 q 434 618 384 604 q 526 662 484 633 q 594 733 568 691 q 621 828 621 774 q 598 930 621 883 q 533 1006 576 977 q 427 1034 490 1034 q 335 1011 380 1034 q 260 942 290 989 q 231 821 231 895 l 134 836 q 194 961 151 913 q 298 1030 238 1008 q 424 1053 359 1053 q 552 1027 490 1053 q 652 953 613 1002 q 692 832 692 904 q 641 689 690 743 q 519 611 591 636 q 666 557 607 602 q 753 445 724 512 q 783 304 783 378 q 760 187 783 245 q 690 83 736 130 q 574 9 644 37 q 410 -18 504 -18 z "},"4":{"ha":787,"x_min":58,"x_max":730,"o":"m 556 382 l 556 1001 l 83 382 l 556 382 m 682 0 l 498 0 l 498 19 q 528 28 517 24 q 548 50 540 35 q 556 98 556 66 l 556 313 l 58 313 l 58 382 l 556 1034 l 625 1034 l 625 382 l 730 382 l 730 313 l 624 313 l 624 98 q 632 51 624 66 q 652 29 640 35 q 682 19 661 24 l 682 0 z "},"5":{"ha":828,"x_min":43,"x_max":785,"o":"m 409 -18 q 272 8 338 -18 q 155 86 206 34 q 73 218 103 139 q 43 404 43 297 l 147 404 q 133 340 136 370 q 130 281 130 309 q 157 160 130 213 q 225 72 184 108 q 314 18 267 37 q 401 0 361 0 q 531 31 474 0 q 629 114 589 62 q 691 231 670 165 q 713 363 713 296 q 673 535 713 455 q 550 665 634 614 q 332 718 466 715 q 159 686 239 718 l 138 686 l 260 1034 l 597 1034 l 632 907 l 614 907 q 513 966 600 966 l 256 966 l 166 707 q 351 741 257 741 q 596 685 500 739 q 739 545 692 631 q 785 360 785 458 q 761 221 785 289 q 688 100 736 154 q 570 14 640 46 q 409 -18 500 -18 z "},"6":{"ha":877,"x_min":60,"x_max":821,"o":"m 474 -18 q 299 30 376 -18 q 169 157 222 79 q 87 331 115 236 q 60 517 60 425 q 116 787 60 665 q 266 980 172 908 q 474 1053 360 1053 q 652 999 577 1053 q 757 836 726 945 l 682 823 q 589 976 654 924 q 447 1029 524 1029 q 286 969 361 1029 q 167 797 208 905 q 126 563 126 688 q 136 438 126 501 q 203 587 155 522 q 321 690 251 652 q 474 728 392 728 q 649 678 570 728 q 774 543 728 628 q 821 355 821 458 q 777 172 821 257 q 653 34 732 87 q 474 -18 575 -18 m 503 8 q 612 33 565 8 q 691 101 659 58 q 738 199 722 144 q 753 311 753 253 q 711 517 753 430 q 596 656 666 608 q 448 706 526 705 q 322 667 382 706 q 226 550 258 623 q 193 387 194 477 q 219 238 193 312 q 292 109 245 165 q 503 8 392 8 z "},"7":{"ha":654,"x_min":34,"x_max":626,"o":"m 304 0 l 192 0 l 580 966 l 153 966 q 80 948 103 966 q 52 907 58 930 l 34 907 l 68 1034 l 626 1034 l 304 0 z "},"8":{"ha":895,"x_min":35,"x_max":869,"o":"m 452 627 q 557 649 507 627 q 640 716 608 671 q 672 828 672 761 q 646 927 672 880 q 572 1004 621 975 q 453 1034 523 1034 q 334 1004 384 1034 q 258 928 285 975 q 232 829 232 881 q 264 716 232 761 q 346 649 296 671 q 452 627 397 627 m 454 0 q 606 27 541 0 q 712 99 670 54 q 774 201 753 144 q 794 316 794 257 q 762 448 794 385 q 667 551 730 510 q 507 597 604 591 q 452 599 467 599 q 397 597 437 599 q 237 551 300 591 q 142 449 174 511 q 109 319 109 387 q 130 203 109 260 q 192 101 150 146 q 299 27 234 55 q 454 0 364 0 m 454 -18 q 266 11 345 -18 q 136 88 187 40 q 60 196 85 136 q 35 317 35 256 q 70 460 36 394 q 169 569 104 527 q 329 613 235 610 q 203 701 245 640 q 161 830 161 762 q 193 937 161 886 q 290 1020 224 987 q 453 1053 355 1053 q 615 1020 551 1053 q 711 936 680 987 q 743 829 743 885 q 700 700 743 760 q 575 613 658 640 q 734 569 669 610 q 834 461 800 528 q 869 319 869 394 q 844 197 869 258 q 769 89 820 137 q 641 11 719 40 q 454 -18 562 -18 z "},"9":{"ha":860,"x_min":46,"x_max":807,"o":"m 393 -18 q 215 35 290 -18 q 110 199 140 89 l 185 211 q 278 58 214 111 q 420 6 342 6 q 581 65 507 6 q 700 238 659 130 q 741 472 741 347 q 731 597 741 534 q 664 447 713 513 q 546 344 616 382 q 393 306 475 306 q 218 356 297 306 q 93 492 140 407 q 46 680 46 576 q 91 863 46 778 q 213 1000 135 948 q 393 1053 292 1053 q 568 1004 491 1053 q 698 877 645 956 q 779 704 751 799 q 807 517 807 610 q 751 248 807 370 q 601 54 695 126 q 393 -18 507 -18 m 420 328 q 545 368 484 328 q 641 484 608 412 q 674 647 673 557 q 630 842 674 745 q 510 981 583 935 q 365 1027 437 1027 q 255 1001 302 1027 q 176 933 208 976 q 129 836 144 890 q 113 724 113 782 q 155 517 113 607 q 271 378 201 427 q 420 328 340 329 z "}," ":{"ha":345,"x_min":0,"x_max":0,"o":""}," ":{"ha":345,"x_min":0,"x_max":0,"o":""},"!":{"ha":231,"x_min":57,"x_max":172,"o":"m 124 134 l 104 134 l 57 973 q 75 1019 57 1004 q 116 1034 92 1034 q 155 1019 137 1034 q 172 975 172 1004 l 124 134 m 115 0 q 85 12 97 0 q 73 42 73 24 q 85 71 73 59 q 115 83 97 83 q 144 71 132 83 q 156 42 156 59 q 144 12 156 24 q 115 0 132 0 z "},"\"":{"ha":206,"x_min":34,"x_max":172,"o":"m 67 854 l 58 854 l 34 1008 q 43 1027 34 1021 q 62 1034 52 1034 q 81 1028 72 1034 q 91 1009 91 1021 l 67 854 m 149 854 l 139 854 l 115 1008 q 124 1027 115 1021 q 144 1034 134 1034 q 163 1028 153 1034 q 172 1009 172 1021 l 149 854 z "},"#":{"ha":1197,"x_min":34,"x_max":1163,"o":"m 886 0 l 701 0 l 701 19 l 704 20 q 746 38 728 24 q 775 98 765 52 l 812 283 l 290 283 l 253 98 q 250 68 250 81 q 263 32 250 40 q 294 20 276 23 l 296 19 l 296 0 l 111 0 l 111 19 l 114 20 q 156 38 138 24 q 185 98 175 52 l 222 283 l 34 283 l 34 302 l 227 302 l 313 732 l 92 732 l 92 751 l 317 751 l 354 937 q 357 967 357 954 q 345 1003 357 994 q 315 1015 332 1011 l 312 1016 l 312 1034 l 496 1034 l 496 1016 l 494 1015 q 451 997 470 1011 q 422 937 432 983 l 385 751 l 907 751 l 944 937 q 947 967 947 954 q 935 1003 947 994 q 905 1015 922 1011 l 902 1016 l 902 1034 l 1086 1034 l 1086 1016 l 1084 1015 q 1041 997 1060 1011 q 1013 937 1022 983 l 975 751 l 1163 751 l 1163 732 l 971 732 l 884 302 l 1106 302 l 1106 283 l 880 283 l 843 98 q 840 68 840 80 q 853 32 840 40 q 884 20 866 23 l 886 19 l 886 0 m 817 302 l 903 732 l 381 732 l 294 302 l 817 302 z "},"$":{"ha":785,"x_min":34,"x_max":751,"o":"m 401 -118 l 383 -118 l 383 -18 q 223 22 299 -15 q 97 136 148 58 q 34 338 45 213 l 125 372 q 113 267 113 315 q 154 117 114 175 q 255 31 193 59 q 383 1 316 3 l 383 558 q 284 610 332 583 q 199 671 237 637 q 138 747 161 704 q 116 846 116 789 q 148 946 116 899 q 238 1022 179 993 q 383 1053 298 1052 l 383 1153 l 401 1153 l 401 1053 q 551 1011 483 1049 q 655 894 619 973 l 576 838 q 518 979 568 931 q 401 1033 467 1027 l 401 623 l 446 602 q 556 547 503 576 q 654 481 610 518 q 724 396 698 445 q 751 282 751 348 q 721 157 751 213 q 642 63 692 102 q 530 3 593 24 q 401 -18 467 -18 l 401 -118 m 401 0 q 531 33 470 1 q 631 125 592 64 q 671 272 671 185 q 648 366 671 326 q 587 439 625 407 q 501 498 549 471 q 401 549 453 524 l 401 0 m 383 632 l 383 1034 l 380 1034 q 279 1008 323 1034 q 210 940 235 981 q 184 855 184 899 q 212 761 184 801 q 283 690 239 721 q 383 632 328 659 z "},"%":{"ha":869,"x_min":34,"x_max":836,"o":"m 325 0 l 135 0 l 135 19 l 139 20 q 184 38 163 24 q 226 98 206 52 l 570 937 q 581 981 581 965 q 571 1005 581 999 q 544 1016 563 1010 l 544 1034 l 734 1034 l 734 1016 l 732 1015 q 685 997 707 1011 q 644 937 663 983 q 299 98 471 517 q 288 54 288 69 q 298 29 288 35 q 325 19 307 24 l 325 0 m 218 578 q 87 647 141 578 q 34 815 34 717 q 87 983 34 913 q 218 1053 141 1053 q 348 983 294 1053 q 401 815 401 913 q 348 647 401 717 q 218 578 294 578 m 236 597 q 308 650 279 597 q 338 781 338 702 q 312 921 338 851 q 260 1003 290 975 q 198 1032 230 1032 q 143 1005 169 1032 q 109 938 121 979 q 97 848 97 897 q 123 709 97 779 q 175 626 144 655 q 236 597 205 597 m 651 -18 q 521 52 575 -18 q 467 220 467 121 q 521 388 467 318 q 651 457 575 457 q 782 388 728 457 q 836 220 836 318 q 782 52 836 121 q 651 -18 728 -18 m 670 2 q 742 54 713 2 q 772 186 772 106 q 746 326 772 256 q 694 408 724 379 q 632 437 663 437 q 577 410 603 437 q 543 342 555 384 q 531 253 531 301 q 557 113 531 183 q 608 31 578 60 q 670 2 639 2 z "},"&":{"ha":917,"x_min":34,"x_max":883,"o":"m 298 -18 q 167 13 227 -18 q 71 102 107 43 q 34 247 34 161 q 90 404 34 325 q 266 555 145 483 q 202 638 232 597 q 154 726 173 680 q 136 827 136 772 q 166 956 136 906 q 246 1029 197 1006 q 347 1053 294 1053 q 445 1031 398 1053 q 523 970 492 1010 q 553 873 553 930 q 501 721 553 800 q 349 585 450 642 q 672 226 590 315 q 705 361 705 294 q 671 496 705 433 q 573 603 636 559 l 652 640 q 745 426 745 555 q 727 306 745 363 q 686 212 709 250 q 883 0 767 123 l 768 0 l 635 142 q 476 21 566 60 q 298 -18 386 -18 m 337 601 q 422 674 389 630 q 469 767 454 718 q 484 861 484 817 q 461 957 484 918 q 405 1015 439 995 q 334 1034 370 1034 q 268 1018 298 1034 q 219 969 238 1002 q 200 885 200 936 q 238 737 200 815 q 337 601 276 659 m 393 32 q 517 66 453 32 q 622 158 581 101 l 278 541 q 160 422 205 494 q 112 268 114 351 q 144 151 112 205 q 240 64 177 97 q 393 32 302 32 z "},"'":{"ha":125,"x_min":34,"x_max":91,"o":"m 67 854 l 58 854 l 34 1008 q 43 1027 34 1021 q 62 1034 52 1034 q 81 1028 72 1034 q 91 1009 91 1021 l 67 854 z "},"(":{"ha":471,"x_min":34,"x_max":437,"o":"m 437 -161 q 292 -124 356 -161 q 179 -20 227 -86 q 99 132 131 45 q 50 316 66 218 q 34 517 34 415 q 50 718 34 619 q 99 903 66 817 q 179 1055 131 989 q 292 1158 227 1120 q 437 1196 356 1196 l 437 1182 q 295 1126 355 1182 q 193 975 234 1069 q 132 761 153 880 q 112 518 112 642 q 132 274 112 393 q 193 61 153 155 q 295 -91 234 -34 q 437 -147 355 -147 l 437 -161 z "},")":{"ha":471,"x_min":34,"x_max":437,"o":"m 34 -161 l 34 -147 q 176 -91 115 -147 q 277 61 237 -34 q 338 274 318 155 q 359 518 359 393 q 338 761 359 642 q 277 975 318 880 q 176 1126 237 1069 q 34 1182 115 1182 l 34 1196 q 179 1158 115 1196 q 292 1055 243 1120 q 372 903 340 989 q 420 718 404 817 q 437 517 437 619 q 420 316 437 415 q 372 132 404 218 q 292 -20 340 45 q 179 -124 243 -86 q 34 -161 115 -161 z "},"*":{"ha":216,"x_min":34,"x_max":182,"o":"m 152 895 l 108 945 l 64 895 l 48 909 l 90 956 l 34 983 l 43 1002 l 98 975 l 98 1034 l 118 1034 l 118 975 l 172 1002 l 182 983 l 125 956 l 168 909 l 152 895 z "},"+":{"ha":405,"x_min":34,"x_max":371,"o":"m 228 349 l 178 349 l 178 492 l 34 492 l 34 543 l 178 543 l 178 686 l 228 686 l 228 543 l 371 543 l 371 492 l 228 492 l 228 349 z "},",":{"ha":153,"x_min":34,"x_max":119,"o":"m 60 -89 l 52 -76 q 101 5 101 -50 l 101 9 q 76 0 90 0 q 46 13 59 0 q 34 42 34 25 q 46 72 34 60 q 76 83 59 83 q 109 66 98 83 q 119 26 119 50 q 60 -89 119 -60 z "},"-":{"ha":405,"x_min":34,"x_max":371,"o":"m 371 349 l 34 349 l 34 399 l 371 399 l 371 349 z "},"­":{"ha":405,"x_min":34,"x_max":371,"o":"m 371 349 l 34 349 l 34 399 l 371 399 l 371 349 z "},".":{"ha":151,"x_min":34,"x_max":117,"o":"m 75 0 q 46 12 58 0 q 34 42 34 24 q 46 71 34 59 q 75 83 58 83 q 105 71 93 83 q 117 42 117 59 q 105 12 117 24 q 75 0 93 0 z "},"/":{"ha":641,"x_min":34,"x_max":607,"o":"m 198 0 l 34 0 l 34 19 l 38 20 q 83 38 62 24 q 125 98 105 52 l 469 937 q 481 981 481 965 q 471 1005 481 999 q 444 1016 463 1010 l 444 1034 l 607 1034 l 607 1016 l 604 1015 q 558 997 580 1011 q 516 937 536 983 l 172 98 q 161 54 161 69 q 171 29 161 35 q 198 19 180 24 l 198 0 z "},":":{"ha":219,"x_min":68,"x_max":151,"o":"m 109 0 q 80 12 92 0 q 68 42 68 24 q 80 71 68 59 q 109 83 92 83 q 139 71 127 83 q 151 42 151 59 q 139 12 151 24 q 109 0 127 0 m 109 684 q 80 696 92 684 q 68 726 68 708 q 80 755 68 743 q 109 767 92 767 q 139 755 127 767 q 151 726 151 743 q 139 696 151 708 q 109 684 127 684 z "},";":{"ha":221,"x_min":68,"x_max":153,"o":"m 94 -89 l 85 -76 q 134 5 134 -50 l 134 9 q 109 0 123 0 q 80 13 92 0 q 68 42 68 25 q 80 72 68 60 q 109 83 92 83 q 143 66 132 83 q 153 26 153 50 q 94 -89 153 -60 m 109 684 q 80 696 92 684 q 68 726 68 708 q 80 755 68 743 q 109 767 92 767 q 139 755 127 767 q 151 726 151 743 q 139 696 151 708 q 109 684 127 684 z "},"<":{"ha":416,"x_min":34,"x_max":382,"o":"m 357 315 l 34 502 l 34 532 l 357 719 l 382 675 l 109 517 l 382 359 l 357 315 z "},"=":{"ha":441,"x_min":34,"x_max":407,"o":"m 407 557 l 34 557 l 34 607 l 407 607 l 407 557 m 407 427 l 34 427 l 34 477 l 407 477 l 407 427 z "},">":{"ha":416,"x_min":34,"x_max":382,"o":"m 59 315 l 34 359 l 309 517 l 34 675 l 59 719 l 382 532 l 382 502 l 59 315 z "},"?":{"ha":667,"x_min":34,"x_max":633,"o":"m 342 134 l 325 134 l 324 175 q 346 366 324 289 q 399 497 367 443 q 465 595 431 551 q 513 664 491 629 q 549 741 536 699 q 563 837 563 782 q 536 935 563 890 q 458 1007 509 979 q 330 1034 406 1034 q 234 1011 279 1034 q 159 941 188 988 q 131 823 131 895 l 34 838 q 145 1002 60 951 q 335 1053 231 1053 q 499 1022 433 1053 q 599 940 565 991 q 633 829 633 890 q 616 715 633 762 q 571 632 599 669 q 509 562 543 596 q 431 468 469 521 q 368 338 393 416 q 342 134 342 260 m 334 0 q 304 12 317 0 q 292 42 292 24 q 304 71 292 59 q 334 83 317 83 q 363 71 351 83 q 376 42 376 59 q 363 12 376 24 q 334 0 351 0 z "},"@":{"ha":1037,"x_min":34,"x_max":1003,"o":"m 422 -102 q 260 -71 338 -102 q 125 26 182 -39 q 34 275 34 134 q 82 492 34 389 q 211 675 130 594 q 398 803 293 755 q 616 850 503 850 q 818 804 727 850 q 960 655 909 757 q 1003 467 1003 567 q 987 338 1003 399 q 938 227 970 277 q 859 145 906 176 q 751 114 812 114 q 672 144 695 114 q 648 229 648 174 q 659 318 648 273 q 603 218 637 267 q 524 136 570 169 q 420 104 479 104 q 330 129 365 104 q 278 197 295 155 q 261 292 261 240 q 282 412 261 350 q 342 527 302 475 q 437 612 381 579 q 565 645 494 645 q 686 602 640 645 q 713 591 699 591 q 742 604 732 591 q 759 633 752 617 l 780 633 l 721 351 q 707 278 713 315 q 702 218 702 248 q 705 179 702 198 q 720 147 709 160 q 753 134 730 134 q 863 189 812 134 q 945 349 920 251 q 960 467 960 408 q 832 747 957 651 q 716 804 778 787 q 583 821 655 820 q 394 776 484 821 q 234 653 304 730 q 124 479 164 576 q 83 269 83 381 q 142 66 83 158 q 271 -41 193 -7 q 439 -74 348 -74 q 593 -48 517 -74 l 595 -47 l 610 -66 q 422 -102 520 -102 m 423 127 q 589 234 517 127 q 679 425 642 312 q 690 496 690 458 q 659 590 690 555 q 581 621 629 621 q 412 528 487 621 q 315 267 320 414 q 355 151 315 189 q 423 127 385 127 z "},"A":{"ha":865,"x_min":-62,"x_max":890,"o":"m 555 510 l 384 942 l 275 668 q 428 618 355 658 q 555 510 500 579 m 890 0 l 700 0 l 700 19 q 724 28 719 25 q 732 49 732 34 q 720 98 732 65 l 609 373 q 478 561 561 490 q 267 649 395 632 l 48 97 q 37 52 37 68 q 48 27 37 34 q 75 18 60 21 l 75 0 l -62 0 l -62 18 q -14 38 -35 24 q 28 98 7 52 l 400 1034 l 420 1034 l 793 98 q 835 39 812 53 q 890 19 858 24 l 890 0 z "},"B":{"ha":856,"x_min":58,"x_max":840,"o":"m 425 0 l 58 0 l 58 19 q 87 28 77 24 q 109 50 100 35 q 117 98 117 66 l 117 937 q 109 984 117 968 q 88 1006 101 999 q 58 1016 78 1010 l 58 1034 l 460 1034 q 606 1005 550 1034 q 687 930 661 976 q 712 832 712 884 q 669 708 711 760 q 559 612 627 656 q 707 563 644 606 q 805 452 770 519 q 840 313 840 385 q 820 197 840 253 q 752 97 800 142 q 625 26 705 53 q 425 0 545 0 m 425 18 q 680 101 595 20 q 764 317 764 182 q 729 442 764 381 q 637 542 694 503 q 516 585 581 581 l 475 560 q 353 481 413 523 q 249 384 294 439 q 184 255 203 330 l 184 98 q 250 19 184 20 l 425 18 m 184 314 q 289 455 222 397 q 429 561 356 513 q 533 635 486 597 q 611 720 581 673 q 641 828 641 766 q 620 919 641 876 q 555 989 599 962 q 445 1016 511 1016 l 256 1016 q 200 996 216 1016 q 184 937 184 975 l 184 314 z "},"C":{"ha":948,"x_min":-18,"x_max":951,"o":"m 517 -18 q 248 54 370 -18 q 55 248 127 126 q -18 517 -18 370 q 55 787 -18 665 q 248 980 127 908 q 517 1053 370 1053 q 756 997 647 1053 q 940 846 865 941 l 905 764 q 714 958 829 890 q 474 1026 598 1026 q 264 969 366 1026 q 104 797 159 905 q 49 563 49 689 q 123 282 49 415 q 316 80 198 151 q 560 8 434 8 q 781 65 684 9 q 935 232 879 122 l 951 191 q 773 36 879 90 q 517 -18 668 -18 z "},"D":{"ha":956,"x_min":58,"x_max":920,"o":"m 391 0 l 58 0 l 58 19 q 87 28 77 24 q 108 50 100 35 q 116 98 116 66 l 116 937 q 108 984 116 968 q 87 1006 100 999 q 58 1016 78 1010 l 58 1034 l 391 1034 q 623 990 524 1034 q 787 872 722 946 q 886 706 853 799 q 920 517 920 614 q 886 328 920 420 q 787 162 853 235 q 623 44 722 88 q 391 0 524 0 m 416 19 q 608 61 526 19 q 745 174 690 103 q 827 334 800 245 q 854 515 854 422 q 826 699 854 610 q 744 860 799 788 q 607 974 690 931 q 416 1016 525 1016 l 254 1016 q 200 995 216 1016 q 184 937 184 975 l 184 98 q 252 19 184 19 l 416 19 z "},"E":{"ha":607,"x_min":58,"x_max":615,"o":"m 593 0 l 58 0 l 58 19 q 87 29 78 24 q 108 51 100 35 q 116 98 116 66 l 116 937 q 108 984 116 968 q 87 1006 100 999 q 58 1016 78 1010 l 58 1034 l 593 1034 l 615 958 l 597 958 q 568 998 591 981 q 496 1016 545 1016 l 250 1016 q 184 937 184 1016 l 184 749 l 458 749 l 458 730 l 184 730 l 184 98 q 198 42 184 65 q 249 19 213 19 l 496 19 q 568 37 545 19 q 597 77 591 54 l 615 77 l 593 0 z "},"F":{"ha":530,"x_min":58,"x_max":615,"o":"m 242 0 l 58 0 l 58 19 q 87 29 78 24 q 108 51 100 35 q 116 98 116 66 l 116 937 q 108 984 116 968 q 87 1006 100 999 q 58 1016 78 1010 l 58 1034 l 593 1034 l 615 958 l 596 958 q 568 998 591 981 q 496 1016 545 1016 l 250 1016 q 184 937 184 1016 l 184 749 l 458 749 l 458 730 l 184 730 l 184 98 q 192 51 184 66 q 212 29 199 35 q 242 19 222 24 l 242 0 z "},"G":{"ha":1004,"x_min":-18,"x_max":954,"o":"m 517 -18 q 248 54 370 -18 q 55 248 127 126 q -18 517 -18 370 q 55 787 -18 665 q 248 980 127 908 q 517 1053 370 1053 q 756 997 646 1053 q 940 846 865 941 l 905 764 q 714 958 829 890 q 474 1026 598 1026 q 264 969 366 1026 q 104 799 159 905 q 49 564 50 692 q 123 282 49 415 q 316 80 198 151 q 560 8 434 8 q 750 65 667 10 q 883 210 833 121 q 936 404 932 300 l 936 536 l 500 536 q 428 519 451 536 q 400 478 405 501 l 381 478 l 403 555 l 954 555 l 954 208 q 763 36 871 91 q 517 -18 654 -18 z "},"H":{"ha":989,"x_min":58,"x_max":933,"o":"m 933 0 l 748 0 l 748 19 q 779 29 768 24 q 799 51 791 35 q 806 98 806 66 l 806 641 q 635 599 707 637 q 500 509 564 560 q 362 419 437 458 q 184 375 288 379 l 184 98 q 192 51 184 66 q 212 29 199 35 q 242 19 222 24 l 242 0 l 58 0 l 58 19 q 87 29 78 24 q 108 51 100 35 q 116 98 116 66 l 116 937 q 108 984 116 968 q 87 1006 100 999 q 58 1016 78 1010 l 58 1034 l 242 1034 l 242 1016 q 212 1006 222 1010 q 192 984 199 999 q 184 937 184 968 l 184 393 q 354 436 282 397 q 489 525 425 474 q 627 616 553 576 q 806 659 702 656 l 806 937 q 799 984 806 968 q 779 1006 791 999 q 748 1016 768 1010 l 748 1034 l 933 1034 l 933 1016 q 903 1006 912 1010 q 882 984 890 999 q 874 937 874 968 l 874 98 q 882 51 874 66 q 903 29 890 35 q 933 19 912 24 l 933 0 z "},"I":{"ha":298,"x_min":58,"x_max":242,"o":"m 242 0 l 58 0 l 58 19 q 87 29 78 24 q 108 51 100 35 q 116 98 116 66 l 116 937 q 108 984 116 968 q 87 1006 100 999 q 58 1016 78 1010 l 58 1034 l 242 1034 l 242 1016 q 212 1006 222 1010 q 192 984 199 999 q 184 937 184 968 l 184 98 q 192 51 184 66 q 212 29 199 35 q 242 19 222 24 l 242 0 z "},"J":{"ha":380,"x_min":16,"x_max":332,"o":"m 109 -18 q 16 3 66 -18 l 16 26 q 79 14 52 14 q 164 43 138 16 q 197 119 191 71 q 204 230 203 168 l 205 937 q 183 999 205 981 q 134 1017 161 1017 q 79 1000 105 1017 q 46 958 54 983 l 28 958 l 49 1034 l 332 1034 l 332 1016 q 301 1006 311 1010 q 280 984 288 999 q 273 937 273 968 l 273 237 q 254 86 273 142 q 199 6 235 30 q 109 -18 163 -18 z "},"K":{"ha":722,"x_min":58,"x_max":685,"o":"m 685 0 l 500 0 l 500 19 l 505 20 q 531 30 519 23 q 551 51 543 36 q 559 98 559 66 l 559 397 q 529 562 559 498 q 453 654 499 625 q 357 683 406 683 q 272 661 311 682 q 209 601 233 640 q 184 509 184 562 l 184 98 q 192 51 184 66 q 212 29 199 35 q 242 19 221 24 l 242 0 l 58 0 l 58 19 q 87 28 77 24 q 108 50 100 35 q 116 98 116 66 l 116 937 q 108 984 116 968 q 87 1006 100 999 q 58 1016 78 1010 l 58 1034 l 242 1034 l 242 1016 q 212 1006 222 1010 q 192 984 199 999 q 184 937 184 968 l 184 610 l 503 937 q 537 992 537 974 q 514 1016 537 1008 l 514 1034 l 658 1034 l 658 1016 q 603 998 631 1012 q 529 937 576 984 l 300 702 q 389 720 344 720 q 503 684 449 720 q 592 575 557 647 q 627 397 627 503 l 627 98 q 635 50 627 66 q 655 28 643 35 q 685 19 665 24 l 685 0 z "},"L":{"ha":592,"x_min":58,"x_max":615,"o":"m 593 0 l 58 0 l 58 19 q 88 29 78 24 q 108 51 100 35 q 116 98 116 66 l 116 937 q 108 984 116 968 q 88 1006 100 999 q 58 1016 78 1010 l 58 1034 l 243 1034 l 243 1016 q 212 1006 222 1010 q 192 984 199 999 q 184 937 184 968 l 184 98 q 200 39 184 60 q 255 19 216 19 l 496 19 q 568 37 545 19 q 597 77 591 54 l 615 77 l 593 0 z "},"M":{"ha":1222,"x_min":58,"x_max":1165,"o":"m 1165 0 l 980 0 l 980 19 q 1010 28 1000 24 q 1030 50 1022 35 q 1038 98 1038 66 l 1038 937 q 1037 962 1038 952 q 1023 937 1029 951 l 598 0 l 577 0 l 152 937 q 136 965 144 954 q 134 937 134 954 l 134 98 q 142 51 134 66 q 162 29 150 35 q 193 19 172 24 l 193 0 l 58 0 l 58 19 q 87 28 77 24 q 108 50 100 35 q 116 98 116 66 l 116 937 q 108 984 116 968 q 87 1006 100 999 q 58 1016 78 1010 l 58 1034 l 251 1034 l 251 1016 q 225 1006 233 1010 q 215 983 215 1000 q 229 937 215 967 l 616 85 l 1002 937 q 1016 983 1016 967 q 1006 1006 1016 1000 q 980 1016 998 1010 l 980 1034 l 1165 1034 l 1165 1016 q 1135 1006 1145 1010 q 1115 984 1122 999 q 1107 937 1107 968 l 1107 98 q 1115 51 1107 66 q 1135 29 1122 35 q 1165 19 1144 24 l 1165 0 z "},"N":{"ha":760,"x_min":58,"x_max":704,"o":"m 704 0 l 511 0 l 511 19 l 514 20 q 537 29 527 23 q 547 52 547 35 q 533 98 547 67 l 152 937 q 137 965 144 954 q 134 937 134 954 l 134 98 q 142 51 134 66 q 162 29 150 35 q 193 19 172 24 l 193 0 l 58 0 l 58 19 q 87 28 77 24 q 108 50 100 35 q 116 98 116 66 l 116 937 q 108 984 116 968 q 87 1006 100 999 q 58 1016 78 1010 l 58 1034 l 251 1034 l 251 1016 q 225 1006 233 1010 q 215 983 215 1000 q 229 937 215 967 l 610 98 q 625 69 617 81 q 627 98 627 81 l 627 937 q 620 984 627 968 q 599 1006 612 999 q 569 1016 589 1010 l 569 1034 l 704 1034 l 704 1016 q 674 1006 684 1010 q 653 984 661 999 q 646 937 646 968 l 646 98 q 653 51 646 66 q 673 29 661 35 q 704 19 683 24 l 704 0 z "},"O":{"ha":1088,"x_min":-18,"x_max":1053,"o":"m 518 -18 q 249 54 370 -18 q 55 248 127 126 q -18 517 -18 370 q 55 787 -18 665 q 249 980 127 908 q 518 1053 370 1053 q 787 980 666 1053 q 981 787 909 908 q 1053 517 1053 665 q 981 248 1053 370 q 787 54 909 126 q 518 -18 666 -18 m 564 8 q 771 65 671 8 q 930 231 873 127 q 987 456 987 335 q 913 752 987 618 q 718 955 837 884 q 472 1027 600 1027 q 264 969 364 1027 q 105 799 160 905 q 49 564 50 692 q 124 282 49 415 q 316 79 199 149 q 564 8 432 9 z "},"P":{"ha":783,"x_min":58,"x_max":796,"o":"m 243 0 l 58 0 l 58 19 q 87 28 77 24 q 108 50 100 35 q 116 98 116 66 l 116 937 q 108 984 116 968 q 87 1006 100 999 q 58 1016 78 1010 l 58 1034 l 544 1034 q 690 1005 634 1034 q 771 930 745 976 q 796 832 796 884 q 754 715 795 768 q 649 615 713 662 q 510 524 584 569 q 392 448 450 488 q 287 365 334 409 q 212 268 240 320 q 184 153 184 216 l 184 98 q 192 51 184 66 q 212 30 199 36 q 239 20 224 23 l 243 19 l 243 0 m 184 248 q 306 407 227 339 q 475 533 386 475 q 597 621 541 576 q 689 715 654 665 q 725 828 725 766 q 704 919 725 876 q 639 989 682 962 q 529 1016 595 1016 l 249 1016 q 198 992 213 1016 q 184 937 184 969 l 184 248 z "},"Q":{"ha":1088,"x_min":-18,"x_max":1053,"o":"m 587 -255 l 581 -255 q 384 -212 481 -255 q 235 -86 286 -170 l 499 -18 q 238 61 354 -12 q 52 253 121 133 q -18 517 -18 373 q 55 787 -18 665 q 248 980 127 908 q 517 1053 370 1053 q 787 980 665 1053 q 981 787 909 908 q 1053 517 1053 665 q 1005 292 1053 395 q 871 116 956 189 q 675 5 786 42 q 406 -64 551 -33 q 262 -98 328 -81 q 383 -192 313 -162 q 526 -221 452 -221 q 641 -200 588 -221 q 727 -139 694 -178 q 760 -45 760 -100 l 760 -34 l 824 -83 q 791 -178 824 -140 q 705 -235 759 -216 q 587 -255 652 -254 m 564 8 q 771 65 670 8 q 929 231 873 127 q 986 456 986 335 q 913 752 986 618 q 718 955 837 884 q 472 1027 600 1027 q 264 969 364 1027 q 105 799 159 905 q 49 564 50 692 q 123 282 49 416 q 316 79 199 149 q 564 8 432 9 z "},"R":{"ha":870,"x_min":58,"x_max":894,"o":"m 802 -18 q 688 9 739 -18 q 596 79 637 36 q 520 172 554 122 q 456 271 486 222 q 412 341 433 309 q 306 415 369 398 q 188 431 243 431 l 184 431 l 184 98 q 192 51 184 66 q 212 29 199 35 q 239 20 224 23 l 242 19 l 242 0 l 58 0 l 58 19 l 61 20 q 88 29 75 23 q 108 51 100 35 q 116 98 116 66 l 116 937 q 108 984 116 968 q 88 1005 100 999 q 61 1015 75 1012 q 58 1016 59 1015 l 58 1034 l 499 1034 q 646 994 585 1034 q 738 889 706 954 q 770 753 770 825 q 740 613 770 681 q 646 497 709 545 q 486 435 583 449 q 376 427 431 428 q 466 353 423 404 q 552 241 509 302 q 635 131 592 183 q 729 43 679 78 q 840 9 780 9 q 894 19 867 9 l 894 5 q 802 -18 848 -18 m 337 446 q 674 631 603 446 q 698 756 698 693 q 672 883 698 823 q 598 979 646 942 q 484 1016 550 1016 l 252 1016 q 184 937 184 1016 l 184 456 q 337 446 260 446 z "},"S":{"ha":718,"x_min":-13,"x_max":703,"o":"m 355 -18 q 188 17 269 -18 q 53 130 108 52 q -13 338 -1 208 l 78 372 q 66 272 66 318 q 109 113 66 173 q 218 27 152 54 q 351 0 283 0 q 481 32 419 0 q 584 124 544 63 q 623 272 623 184 q 601 367 623 326 q 539 440 578 408 q 452 499 500 472 q 351 551 404 526 q 248 604 298 576 q 158 665 198 631 q 93 743 117 699 q 69 846 69 787 q 101 946 69 899 q 192 1023 132 994 q 336 1053 252 1053 q 446 1036 393 1053 q 541 985 499 1020 q 608 894 583 949 l 528 838 q 495 949 524 905 q 422 1013 466 992 q 334 1034 379 1034 q 232 1008 276 1034 q 163 940 188 981 q 138 855 138 899 q 159 769 138 806 q 218 703 181 732 q 302 650 255 674 q 399 602 349 625 q 509 547 456 576 q 607 481 563 518 q 677 396 651 445 q 703 282 703 348 q 674 157 703 213 q 595 63 645 102 q 483 3 545 24 q 355 -18 420 -18 z "},"T":{"ha":478,"x_min":-21,"x_max":547,"o":"m 355 0 l 170 0 l 170 19 q 201 29 191 24 q 221 51 213 35 q 229 98 229 66 l 229 1016 l 98 1016 q 25 998 48 1016 q -3 958 3 981 l -21 958 l 0 1034 l 526 1034 l 547 958 l 528 958 q 500 998 524 981 q 428 1016 477 1016 l 297 1016 l 297 98 q 305 51 297 66 q 325 29 313 35 q 355 19 334 24 l 355 0 z "},"U":{"ha":793,"x_min":50,"x_max":747,"o":"m 396 -18 q 199 37 273 -18 q 109 252 109 104 l 109 937 q 101 984 109 968 q 80 1006 93 999 q 50 1016 71 1010 l 50 1034 l 235 1034 l 235 1016 q 205 1006 215 1010 q 185 984 193 999 q 177 937 177 968 l 177 252 q 256 62 177 121 q 427 14 321 14 q 517 23 474 14 q 671 252 671 59 l 671 937 q 663 984 671 968 q 642 1006 655 999 q 612 1016 633 1010 l 612 1034 l 747 1034 l 747 1016 q 718 1006 727 1010 q 697 984 705 999 q 689 937 689 968 l 689 252 q 597 37 689 103 q 396 -18 522 -18 z "},"V":{"ha":821,"x_min":-24,"x_max":907,"o":"m 458 -18 q 405 -1 429 -18 q 380 54 380 17 q 396 124 380 87 q 425 190 411 161 l 431 202 l 73 937 q 27 997 50 983 q -20 1015 4 1011 l -24 1016 l -24 1034 l 169 1034 l 169 1017 q 143 1006 151 1011 q 134 985 134 1001 q 149 937 134 969 l 469 279 l 789 937 q 804 985 804 969 q 796 1006 804 1001 q 770 1017 787 1011 l 770 1034 l 907 1034 l 907 1016 l 903 1015 q 857 997 880 1011 q 810 937 833 983 l 479 258 q 545 59 545 130 q 532 16 545 33 q 499 -10 519 -1 q 458 -18 479 -18 m 447 0 q 473 12 463 0 q 484 48 483 23 q 467 123 484 83 q 441 180 450 163 l 439 175 q 399 54 399 99 q 415 14 401 28 q 447 0 430 0 z "},"W":{"ha":1350,"x_min":-19,"x_max":1426,"o":"m 953 0 l 704 610 l 455 0 l 72 937 q 30 997 52 983 q -16 1015 8 1011 l -19 1016 l -19 1034 l 172 1034 l 172 1016 q 145 1005 153 1010 q 135 981 135 999 q 146 937 135 965 l 481 115 l 694 634 l 675 680 q 640 762 657 718 q 610 847 623 805 q 598 923 598 889 q 626 1002 598 970 q 709 1034 654 1034 q 781 1002 755 1033 q 808 927 808 972 q 788 822 808 878 q 747 716 769 766 l 741 700 l 980 115 l 1316 937 q 1327 981 1327 965 q 1316 1005 1327 999 q 1289 1016 1308 1010 l 1289 1034 l 1426 1034 l 1426 1016 l 1423 1015 q 1377 997 1399 1011 q 1335 937 1355 983 l 953 0 m 731 725 l 741 749 q 774 838 759 791 q 790 927 790 884 q 770 983 790 965 q 725 1001 749 1001 q 684 981 703 1001 q 666 930 666 960 q 686 840 668 890 q 723 744 703 790 l 731 725 z "},"X":{"ha":726,"x_min":-4,"x_max":741,"o":"m 741 0 l 545 0 l 545 19 l 547 20 q 568 28 559 23 q 577 47 577 34 q 559 98 577 64 l 353 471 l 148 98 q 130 47 130 64 q 139 28 130 34 q 160 20 148 23 l 163 19 l 163 0 l 24 0 l 24 19 l 26 20 q 76 37 52 23 q 127 98 100 52 l 343 491 l 98 937 q 47 997 71 983 q -1 1015 24 1011 l -4 1016 l -4 1034 l 191 1034 l 191 1016 q 166 1006 174 1010 q 159 987 159 1001 q 177 937 159 970 l 382 563 l 588 937 q 606 987 606 970 q 598 1006 606 1001 q 573 1016 590 1010 l 573 1034 l 711 1034 l 711 1016 l 708 1015 q 660 997 684 1011 q 610 937 635 983 l 393 543 l 638 98 q 689 37 665 52 q 739 20 713 23 l 741 19 l 741 0 z "},"Y":{"ha":635,"x_min":-25,"x_max":727,"o":"m 448 0 l 264 0 l 264 19 q 294 28 283 24 q 314 50 306 35 q 322 98 322 66 l 322 491 l 77 937 q 27 997 51 983 q -22 1015 3 1011 l -25 1016 l -25 1034 l 171 1034 l 171 1016 q 146 1006 154 1010 q 138 987 138 1001 q 156 937 138 970 l 380 530 l 604 937 q 621 987 621 970 q 613 1006 621 1001 q 589 1016 606 1010 l 589 1034 l 727 1034 l 727 1016 l 724 1015 q 675 997 699 1011 q 625 937 651 983 l 391 511 l 390 98 q 398 51 390 66 q 418 29 406 35 q 448 19 427 24 l 448 0 z "},"Z":{"ha":603,"x_min":20,"x_max":618,"o":"m 583 0 l 20 0 l 20 19 l 22 20 q 68 37 46 23 q 111 98 91 52 l 453 937 q 464 980 464 962 q 415 1016 464 1016 l 152 1016 q 80 998 102 1016 q 52 958 57 981 l 33 958 l 54 1034 l 618 1034 l 618 1016 l 614 1015 q 569 997 591 1011 q 527 937 547 983 l 184 98 q 174 55 174 74 q 219 19 174 19 l 486 19 q 558 37 535 19 q 586 77 581 54 l 604 77 l 583 0 z "},"[":{"ha":340,"x_min":34,"x_max":307,"o":"m 307 -161 l 34 -161 l 34 1196 l 307 1196 l 307 1177 l 160 1177 q 131 1171 144 1177 q 110 1148 118 1165 q 102 1099 102 1131 l 102 -64 q 110 -114 102 -97 q 131 -137 118 -131 q 160 -143 144 -143 l 307 -143 l 307 -161 z "},"\\":{"ha":641,"x_min":34,"x_max":607,"o":"m 607 0 l 443 0 l 443 19 q 470 29 461 24 q 480 54 480 35 q 469 98 480 69 l 125 937 q 83 997 105 983 q 37 1015 61 1011 l 34 1016 l 34 1034 l 197 1034 l 197 1016 q 170 1005 178 1010 q 160 981 160 999 q 172 937 160 965 l 516 98 q 557 38 536 52 q 603 20 579 24 l 607 19 l 607 0 z "},"]":{"ha":340,"x_min":34,"x_max":307,"o":"m 307 -161 l 34 -161 l 34 -143 l 180 -143 q 209 -137 196 -143 q 231 -114 222 -131 q 239 -64 239 -97 l 239 1099 q 231 1148 239 1131 q 209 1171 222 1165 q 180 1177 196 1177 l 34 1177 l 34 1196 l 307 1196 l 307 -161 z "},"^":{"ha":399,"x_min":34,"x_max":365,"o":"m 321 749 l 199 960 l 77 749 l 34 774 l 184 1034 l 215 1034 l 365 774 l 321 749 z "},"_":{"ha":545,"x_min":34,"x_max":511,"o":"m 511 -77 l 34 -77 l 34 -39 l 511 -39 l 511 -77 z "},"`":{"ha":242,"x_min":34,"x_max":208,"o":"m 208 801 l 201 801 l 34 899 l 125 899 l 208 801 z "},"a":{"ha":665,"x_min":18,"x_max":644,"o":"m 229 -18 q 121 5 170 -18 q 45 73 73 28 q 18 178 18 117 q 50 296 18 247 q 136 379 83 345 q 254 436 189 413 q 386 473 319 458 q 511 496 452 487 q 475 666 511 603 q 315 747 429 747 q 225 727 267 747 q 157 668 184 707 q 130 574 130 629 l 131 557 l 54 572 q 136 714 59 662 q 314 767 213 767 q 500 705 429 767 q 583 474 583 632 l 583 98 q 591 51 583 66 q 612 29 599 36 q 644 19 622 24 l 644 0 l 511 0 l 511 270 q 419 73 482 149 q 229 -18 345 -18 m 243 11 q 339 37 297 11 q 414 107 382 64 q 468 202 446 150 q 500 307 489 254 q 511 404 511 359 l 511 477 q 401 456 458 469 q 289 422 343 444 q 190 370 235 401 q 119 294 146 338 q 93 188 93 249 q 114 91 93 130 q 168 32 134 52 q 243 11 202 12 z "},"b":{"ha":770,"x_min":24,"x_max":743,"o":"m 450 -18 q 247 100 323 -18 q 154 353 184 196 l 154 0 l 24 0 l 24 19 l 27 20 q 68 38 51 24 q 86 98 85 52 l 86 859 q 70 920 85 905 q 31 938 54 934 l 28 939 l 28 957 q 78 962 57 957 q 113 985 99 968 q 136 1034 127 1002 l 155 1034 l 155 644 q 259 736 197 705 q 397 767 321 767 q 552 731 487 767 q 660 634 617 694 q 723 499 703 574 q 743 348 743 425 q 724 212 743 277 q 668 95 705 146 q 576 12 631 43 q 450 -18 521 -18 m 450 3 q 573 48 525 3 q 646 164 622 92 q 670 321 670 236 q 651 471 670 396 q 593 608 631 547 q 499 708 555 670 q 370 745 444 745 q 155 609 238 745 l 154 540 q 161 420 154 480 q 245 140 186 250 q 450 3 319 3 z "},"c":{"ha":722,"x_min":12,"x_max":713,"o":"m 405 -18 q 207 35 296 -18 q 65 177 118 88 q 12 374 12 266 q 64 572 12 483 q 206 714 117 661 q 405 767 295 767 q 574 729 496 767 q 707 625 652 691 l 673 562 q 538 697 617 650 q 372 745 460 745 q 218 699 285 745 q 114 575 151 652 q 75 408 76 499 q 103 259 76 331 q 179 129 130 186 q 293 38 227 72 q 435 4 359 4 q 584 52 516 4 q 687 174 651 100 l 713 132 q 578 22 659 62 q 405 -18 498 -18 z "},"d":{"ha":781,"x_min":22,"x_max":741,"o":"m 316 -18 q 188 14 243 -18 q 96 100 133 46 q 40 222 59 154 q 22 363 22 290 q 43 510 22 437 q 108 640 65 582 q 216 732 151 698 q 368 767 281 767 q 506 735 444 767 q 612 643 568 704 l 612 859 q 595 920 611 905 q 557 938 580 934 l 554 939 l 554 957 q 604 962 583 957 q 639 985 625 968 q 662 1034 654 1002 l 681 1034 l 680 98 q 688 51 680 66 q 709 29 696 35 q 741 19 720 24 l 741 0 l 612 0 l 612 355 q 519 100 583 197 q 316 -18 443 -18 m 316 3 q 522 141 447 3 q 604 421 581 250 q 612 551 612 487 l 612 608 q 395 745 529 745 q 266 708 322 745 q 172 608 210 670 q 115 471 134 547 q 96 319 96 395 q 120 164 96 237 q 193 48 144 92 q 316 3 241 3 z "},"e":{"ha":747,"x_min":12,"x_max":754,"o":"m 405 -18 q 207 35 296 -18 q 65 177 118 88 q 12 374 12 266 q 63 570 12 481 q 204 713 115 659 q 405 767 293 767 q 611 709 519 767 q 754 554 704 650 l 754 536 l 97 536 q 75 408 75 474 q 103 259 76 331 q 179 129 130 186 q 293 38 227 72 q 435 4 359 4 q 584 52 516 4 q 687 174 651 100 l 713 132 q 578 22 659 62 q 405 -18 498 -18 m 677 554 q 542 695 622 646 q 372 745 462 745 q 209 692 279 745 q 104 554 140 639 l 677 554 z "},"f":{"ha":365,"x_min":33,"x_max":425,"o":"m 233 0 l 48 0 l 48 19 q 78 28 68 24 q 98 50 90 35 q 106 98 106 66 l 106 749 l 33 749 l 33 767 l 106 767 l 106 840 q 198 1033 106 987 q 282 1053 238 1053 q 370 1030 330 1053 q 425 959 410 1008 l 366 941 q 354 995 366 974 q 321 1025 341 1015 q 279 1035 302 1035 q 229 1020 252 1035 q 190 970 205 1004 q 175 876 175 935 l 175 767 l 395 767 l 395 749 l 175 749 l 174 98 q 182 51 174 66 q 202 29 190 35 q 233 19 212 24 l 233 0 z "},"g":{"ha":728,"x_min":27,"x_max":677,"o":"m 342 -216 q 161 -186 242 -216 q 63 -95 79 -157 l 148 -49 q 145 -74 145 -62 q 173 -143 145 -115 q 247 -183 201 -170 q 342 -197 292 -197 q 430 -188 385 -197 q 516 -160 476 -178 q 581 -115 556 -142 q 606 -54 606 -88 q 581 2 606 -18 q 513 31 555 22 q 418 41 471 39 q 311 43 366 43 q 205 45 256 43 q 115 55 155 47 q 51 81 75 63 q 27 132 27 99 q 39 168 27 149 q 83 201 51 187 q 176 217 115 214 q 72 324 111 258 q 34 467 34 389 q 76 616 34 549 q 188 724 117 684 q 345 767 258 764 q 410 864 361 827 q 514 901 459 901 q 637 847 581 901 l 625 767 q 541 827 581 808 q 466 846 500 846 q 365 767 387 844 q 520 722 451 763 q 630 615 589 682 q 671 467 671 548 q 628 316 671 385 q 513 207 585 248 q 353 167 441 167 q 200 203 269 167 q 113 192 138 203 q 87 163 87 180 q 118 127 87 138 q 198 114 148 117 q 308 111 248 111 q 436 107 372 111 q 556 91 501 104 q 644 48 610 77 q 677 -34 677 19 q 649 -111 677 -77 q 572 -168 620 -144 q 464 -203 524 -191 q 342 -216 404 -216 m 367 186 q 484 217 434 186 q 568 312 539 252 q 597 441 597 372 q 558 597 597 519 q 457 709 519 669 q 330 749 396 749 q 220 717 273 749 q 135 621 162 679 q 109 498 109 563 q 127 386 109 441 q 180 285 146 330 q 262 213 214 240 q 367 186 309 186 z "},"h":{"ha":695,"x_min":42,"x_max":669,"o":"m 227 0 l 42 0 l 42 19 q 72 28 62 24 q 92 50 84 35 q 100 98 100 66 l 100 859 q 93 907 100 891 q 73 928 85 922 q 43 939 62 933 l 43 957 q 93 963 72 957 q 127 985 113 968 q 151 1034 142 1002 l 169 1034 l 169 583 q 214 676 184 635 q 289 742 243 718 q 398 767 335 767 q 503 741 454 767 q 581 657 551 714 q 611 510 611 601 l 611 98 q 619 51 611 66 q 640 29 627 36 q 669 19 649 24 l 669 1 l 485 1 l 485 19 q 515 29 505 24 q 535 51 528 36 q 543 98 543 66 l 543 510 q 518 637 543 587 q 453 711 492 687 q 370 736 414 736 q 214 648 265 736 q 169 465 170 573 l 168 98 q 176 51 168 66 q 196 29 184 35 q 227 19 205 24 l 227 0 z "},"i":{"ha":265,"x_min":44,"x_max":229,"o":"m 122 802 q 85 817 100 802 q 69 854 69 833 q 85 891 69 876 q 122 907 100 907 q 159 891 144 907 q 174 854 174 876 q 159 817 174 833 q 122 802 144 802 m 229 0 l 44 0 l 44 19 q 74 29 64 24 q 95 51 87 35 q 102 98 102 66 l 102 574 q 86 634 102 620 q 47 652 71 648 l 45 653 l 45 671 q 95 677 74 671 q 130 699 115 682 q 153 749 144 716 l 171 749 l 170 98 q 178 51 170 66 q 198 29 186 35 q 229 19 208 24 l 229 0 z "},"j":{"ha":224,"x_min":-172,"x_max":151,"o":"m -24 -195 l -28 -195 q -116 -173 -77 -195 q -172 -102 -156 -151 l -113 -83 l -113 -85 q -100 -138 -113 -117 q -67 -168 -87 -159 q -25 -178 -47 -178 q 25 -163 1 -178 q 79 -18 79 -129 l 79 574 q 71 621 79 606 q 51 643 63 637 q 21 653 41 648 l 21 671 q 71 677 50 671 q 106 700 92 683 q 129 749 120 716 l 147 749 l 147 18 q 122 -107 147 -61 q 58 -175 96 -154 q -24 -195 19 -195 m 98 802 q 61 817 77 802 q 46 854 46 833 q 61 891 46 876 q 98 907 77 907 q 135 891 120 907 q 151 854 151 876 q 135 817 151 833 q 98 802 120 802 z "},"k":{"ha":637,"x_min":42,"x_max":616,"o":"m 616 0 l 431 0 l 431 19 q 462 29 452 24 q 482 51 474 35 q 490 98 490 66 l 490 307 q 466 413 490 370 q 403 478 441 456 q 321 500 364 500 q 247 483 281 499 q 191 436 212 466 q 169 364 169 406 l 169 98 q 177 51 169 66 q 197 29 184 35 q 227 19 206 24 l 227 0 l 42 0 l 42 19 q 72 28 62 24 q 92 50 84 35 q 100 98 100 66 l 100 859 q 93 907 100 891 q 73 928 85 922 q 43 939 62 933 l 43 957 q 93 963 72 957 q 128 985 114 968 q 151 1034 142 1002 l 170 1034 l 169 446 l 397 651 q 437 709 437 687 q 420 730 437 724 l 420 749 l 564 749 l 564 730 l 563 730 q 507 712 536 726 q 425 651 477 699 l 275 517 q 345 528 307 528 q 446 504 397 528 q 526 430 494 481 q 557 298 557 380 l 557 98 q 566 50 557 66 q 586 28 574 35 q 616 19 596 24 l 616 0 z "},"l":{"ha":269,"x_min":42,"x_max":227,"o":"m 227 0 l 42 0 l 42 19 q 73 29 62 24 q 93 51 85 35 q 100 98 100 66 l 100 859 q 84 920 100 905 q 46 938 68 934 l 43 939 l 43 957 q 93 962 72 957 q 128 985 114 968 q 151 1034 142 1002 l 170 1034 l 169 98 q 176 51 169 66 q 197 29 184 35 q 227 19 206 24 l 227 0 z "},"m":{"ha":1137,"x_min":41,"x_max":1112,"o":"m 226 0 l 41 0 l 41 19 q 71 29 61 24 q 91 51 83 35 q 99 98 99 66 l 99 574 q 83 634 98 620 q 44 652 67 648 l 41 653 l 41 671 q 92 677 71 671 q 127 699 113 682 q 149 749 141 716 l 168 749 l 168 583 q 213 676 183 634 q 288 742 242 718 q 397 767 334 767 q 491 746 447 767 q 566 682 535 726 q 606 568 596 637 q 650 668 621 623 q 726 740 680 713 q 840 767 773 767 q 944 741 896 767 q 1023 657 993 714 q 1053 510 1053 601 l 1053 98 q 1061 51 1053 66 q 1081 30 1069 36 q 1112 19 1090 24 l 1112 1 l 926 1 l 926 19 q 957 30 947 24 q 977 51 969 36 q 985 98 985 66 l 985 510 q 960 637 985 587 q 895 711 935 687 q 812 736 855 736 q 652 640 703 736 q 610 447 610 562 l 610 98 q 618 51 610 66 q 638 30 626 36 q 669 19 648 24 l 669 1 l 484 1 l 484 19 q 514 30 505 24 q 534 51 527 36 q 542 98 542 66 l 542 510 q 517 637 542 587 q 452 711 492 687 q 370 736 412 736 q 268 708 307 736 q 206 635 228 680 q 176 537 184 590 q 168 434 168 485 l 167 98 q 175 51 167 66 q 195 29 182 35 q 226 19 205 24 l 226 0 z "},"n":{"ha":694,"x_min":41,"x_max":669,"o":"m 226 0 l 41 0 l 41 19 q 71 28 60 24 q 92 50 83 35 q 100 98 100 66 l 100 574 q 92 621 100 606 q 72 643 84 637 q 42 653 62 648 l 42 671 q 92 677 71 671 q 127 700 113 683 q 150 749 141 716 l 168 749 l 168 583 q 213 676 184 635 q 289 742 243 718 q 397 767 334 767 q 502 741 453 767 q 580 657 550 714 q 610 510 610 601 l 610 98 q 618 51 610 66 q 639 29 626 36 q 669 19 648 24 l 669 1 l 484 1 l 484 19 q 513 29 504 24 q 534 51 526 36 q 542 98 542 66 l 542 510 q 517 637 542 587 q 452 711 492 687 q 370 736 413 736 q 214 650 266 736 q 168 471 170 578 l 168 96 q 176 50 168 64 q 195 29 183 35 q 226 19 205 24 l 226 0 z "},"o":{"ha":817,"x_min":12,"x_max":797,"o":"m 404 -18 q 207 35 296 -18 q 64 177 117 88 q 12 374 12 266 q 64 572 12 483 q 207 714 117 661 q 404 767 296 767 q 602 714 513 767 q 744 572 691 661 q 797 374 797 483 q 744 177 797 266 q 602 35 691 88 q 404 -18 513 -18 m 429 4 q 582 45 514 4 q 695 170 656 92 q 734 342 733 248 q 682 545 734 444 q 547 692 629 640 q 374 745 465 744 q 226 703 297 745 q 115 584 155 659 q 75 423 75 510 q 127 203 75 301 q 260 57 179 109 q 429 4 341 4 z "},"p":{"ha":772,"x_min":27,"x_max":743,"o":"m 212 -286 l 27 -286 l 27 -267 q 57 -256 47 -262 q 78 -235 70 -250 q 85 -188 85 -220 l 85 574 q 69 634 85 620 q 31 652 53 648 l 28 653 l 28 671 q 78 677 57 671 q 113 699 98 682 q 136 749 127 716 l 154 749 l 154 644 q 259 736 197 705 q 397 767 321 767 q 550 731 485 767 q 659 636 616 696 q 722 504 701 577 q 743 354 743 430 q 724 216 743 283 q 668 97 705 150 q 576 13 631 44 q 450 -18 522 -18 q 246 99 323 -18 q 154 353 183 195 l 153 -188 q 161 -235 153 -220 q 181 -256 169 -250 q 212 -267 191 -261 l 212 -286 m 450 3 q 572 47 523 3 q 645 161 621 90 q 669 313 669 231 q 650 466 669 389 q 594 605 631 543 q 500 707 556 668 q 370 745 444 745 q 154 609 237 745 l 154 488 q 164 374 154 437 q 197 246 175 311 q 254 126 219 181 q 337 37 289 71 q 450 3 386 3 z "},"q":{"ha":755,"x_min":22,"x_max":738,"o":"m 738 -286 l 553 -286 l 553 -267 q 584 -256 574 -261 q 604 -235 596 -250 q 612 -188 612 -220 l 611 353 q 519 99 582 195 q 315 -18 442 -18 q 189 13 244 -18 q 97 96 134 44 q 41 215 60 149 q 22 351 22 281 q 43 502 22 428 q 106 635 64 576 q 214 731 149 695 q 368 767 279 767 q 587 673 500 767 q 633 694 615 677 q 661 749 651 711 l 680 749 l 680 -188 q 687 -235 680 -220 q 708 -256 695 -250 q 738 -267 718 -262 l 738 -286 m 315 3 q 499 106 428 3 q 588 333 558 191 q 611 499 611 440 l 611 609 q 395 745 528 745 q 266 707 321 745 q 172 606 210 669 q 115 468 134 544 q 96 315 96 391 q 120 162 96 233 q 193 47 144 91 q 315 3 241 3 z "},"r":{"ha":489,"x_min":41,"x_max":493,"o":"m 225 1 l 41 1 l 41 20 l 45 20 q 71 30 59 24 q 91 52 83 37 q 99 99 99 67 l 99 574 q 92 622 99 606 q 72 644 84 637 q 41 654 62 648 l 41 672 q 92 678 71 672 q 126 700 113 684 q 149 749 140 717 l 168 749 q 168 646 168 692 q 246 738 198 709 q 348 767 294 767 q 430 750 393 767 q 493 700 468 734 l 458 610 q 402 709 440 677 q 319 740 363 740 q 217 695 263 740 q 168 571 171 650 l 166 393 l 167 99 q 175 52 167 67 q 195 30 182 37 q 225 20 204 25 l 225 1 z "},"s":{"ha":543,"x_min":1,"x_max":528,"o":"m 262 -18 q 146 2 204 -18 q 49 70 89 23 q 1 196 9 117 l 83 228 l 82 205 q 133 55 82 109 q 260 0 184 0 q 399 43 347 0 q 454 155 452 85 q 427 245 454 208 q 356 313 399 283 q 263 370 313 342 q 166 430 213 398 q 90 505 120 462 q 60 608 60 547 q 85 686 60 650 q 155 745 110 722 q 262 767 201 767 q 383 735 329 767 q 462 634 437 704 l 397 601 q 376 686 396 653 q 326 734 357 719 q 260 749 295 749 q 190 731 220 749 q 142 684 159 713 q 125 623 125 656 q 151 545 125 578 q 218 485 177 511 q 306 433 258 458 q 386 387 347 411 q 457 332 425 362 q 508 263 489 302 q 528 173 528 224 q 492 74 528 117 q 397 6 457 31 q 262 -18 337 -18 z "},"t":{"ha":275,"x_min":17,"x_max":267,"o":"m 209 -18 q 106 30 137 -18 q 76 167 76 77 l 75 651 q 69 707 75 690 q 50 727 63 723 q 17 730 37 730 l 17 749 q 125 844 110 749 l 143 844 l 143 749 l 267 749 l 267 730 l 143 730 l 144 165 q 150 86 144 123 q 174 26 155 49 q 232 3 193 3 q 261 7 245 3 l 261 -14 q 209 -18 233 -18 z "},"u":{"ha":693,"x_min":18,"x_max":645,"o":"m 289 -18 q 184 9 233 -18 q 106 92 136 35 q 76 240 76 149 l 76 651 q 68 698 76 683 q 47 720 60 713 q 18 730 38 725 l 18 749 l 202 749 l 202 730 q 172 720 182 725 q 152 698 159 713 q 144 651 144 683 l 144 240 q 169 113 144 163 q 234 38 194 62 q 317 14 273 14 q 477 109 425 14 q 518 300 518 186 l 518 651 q 510 698 518 683 q 490 720 503 713 q 460 730 480 725 l 460 749 l 645 749 l 645 730 q 615 720 625 725 q 594 698 602 713 q 587 651 587 683 l 587 98 q 594 51 587 66 q 614 29 602 35 q 645 19 624 24 l 645 0 l 518 0 l 518 168 q 474 74 503 116 q 398 7 444 33 q 289 -18 353 -18 z "},"v":{"ha":661,"x_min":-27,"x_max":686,"o":"m 329 0 l 64 651 q 22 711 44 697 q -24 730 0 726 l -27 730 l -27 749 l 163 749 l 163 730 q 136 720 144 725 q 126 696 126 713 q 138 651 126 680 l 356 115 l 575 651 q 587 696 587 680 q 576 720 587 713 q 549 730 568 725 l 549 749 l 686 749 l 686 730 l 683 730 q 637 711 659 726 q 595 651 615 697 l 329 0 z "},"w":{"ha":1122,"x_min":-27,"x_max":1147,"o":"m 791 0 l 781 25 l 560 566 l 329 0 l 63 651 q 22 711 44 696 q -24 730 0 726 l -27 730 l -27 749 l 163 749 l 163 730 q 136 720 144 725 q 126 696 126 713 q 138 651 126 680 l 356 115 l 550 591 l 526 651 q 484 711 506 697 q 438 730 462 726 l 435 730 l 435 749 l 625 749 l 625 730 q 598 720 606 725 q 588 696 588 713 q 600 651 588 680 l 818 115 l 1037 651 q 1048 696 1048 680 q 1038 720 1048 713 q 1010 730 1029 725 l 1010 749 l 1147 749 l 1147 730 l 1144 730 q 1098 711 1120 726 q 1057 651 1076 697 l 791 0 z "},"x":{"ha":578,"x_min":-2,"x_max":585,"o":"m 585 0 l 390 0 l 390 19 l 393 20 q 414 28 405 23 q 422 47 422 34 q 404 98 422 64 l 277 329 l 151 98 q 132 47 132 64 q 141 28 132 34 q 162 20 150 23 l 165 19 l 165 0 l 27 0 l 27 19 l 30 20 q 79 37 54 23 q 129 98 103 52 l 267 348 l 100 651 q 50 711 74 697 q 1 730 26 726 l -2 730 l -2 749 l 194 749 l 194 730 q 169 720 177 725 q 161 701 161 715 q 179 651 161 685 l 307 420 l 433 651 q 452 702 452 685 q 444 720 452 715 q 418 730 435 725 l 418 749 l 557 749 l 557 730 l 553 730 q 505 711 529 726 q 455 651 481 697 l 317 401 l 484 98 q 534 37 510 52 q 583 20 558 23 l 585 19 l 585 0 z "},"y":{"ha":662,"x_min":-26,"x_max":687,"o":"m 155 -206 l 152 -206 q 96 -192 125 -206 l 121 -136 q 178 -160 151 -160 q 275 -83 245 -156 l 319 25 l 64 651 q 23 711 45 697 q -23 730 1 726 l -26 730 l -26 749 l 165 749 l 165 730 q 138 720 146 725 q 127 695 127 713 q 138 651 127 680 l 357 116 l 576 651 q 587 695 587 680 q 577 720 587 713 q 550 730 569 725 l 550 749 l 687 749 l 687 730 l 684 730 q 638 711 660 726 q 596 651 616 697 l 293 -89 q 239 -169 275 -135 q 155 -206 204 -203 z "},"z":{"ha":483,"x_min":17,"x_max":472,"o":"m 450 0 l 17 0 l 17 19 q 57 36 41 22 q 94 98 74 50 l 320 651 q 332 698 332 681 q 294 730 332 730 l 157 730 q 84 713 107 730 q 56 672 61 695 l 37 672 l 59 749 l 471 749 l 471 730 q 430 712 447 726 q 394 651 414 699 l 168 98 q 156 52 156 68 q 193 19 156 19 l 353 19 q 425 37 402 19 q 454 77 448 54 l 472 77 l 450 0 z "},"{":{"ha":484,"x_min":34,"x_max":450,"o":"m 450 -161 l 359 -161 q 222 -116 266 -161 q 178 41 178 -70 l 178 296 q 174 373 178 336 q 156 441 170 411 q 113 490 142 471 q 34 511 84 509 l 34 524 q 113 545 84 526 q 156 593 142 563 q 174 662 170 624 q 178 739 178 699 l 178 993 q 222 1150 178 1105 q 359 1196 266 1196 l 450 1196 l 450 1177 l 377 1177 q 308 1154 338 1177 q 262 1093 279 1131 q 245 1008 245 1054 l 245 745 q 238 648 245 692 q 203 572 231 604 q 116 517 175 539 q 203 463 175 496 q 238 387 231 430 q 245 290 245 343 l 245 26 q 262 -58 245 -20 q 308 -120 279 -96 q 377 -143 338 -143 l 450 -143 l 450 -161 z "},"|":{"ha":678,"x_min":305,"x_max":373,"o":"m 373 -323 l 305 -323 l 305 1034 l 373 1034 l 373 -323 z "},"}":{"ha":484,"x_min":34,"x_max":450,"o":"m 125 -161 l 34 -161 l 34 -143 l 107 -143 q 176 -120 146 -143 q 222 -58 205 -96 q 239 26 239 -20 l 239 290 q 246 387 239 343 q 281 463 253 430 q 369 517 309 496 q 281 572 309 539 q 246 648 253 604 q 239 745 239 692 l 239 1008 q 222 1093 239 1054 q 176 1154 205 1131 q 107 1177 146 1177 l 34 1177 l 34 1196 l 125 1196 q 262 1150 218 1196 q 307 993 307 1105 l 307 739 q 310 662 307 699 q 328 593 314 624 q 371 545 342 563 q 450 524 400 526 l 450 511 q 371 490 400 509 q 328 441 342 471 q 310 373 314 411 q 307 296 307 336 l 307 41 q 262 -116 307 -70 q 125 -161 218 -161 z "},"~":{"ha":454,"x_min":34,"x_max":420,"o":"m 321 446 q 263 457 290 446 q 213 482 237 468 q 164 506 189 496 q 113 517 140 517 q 34 456 66 517 l 34 464 q 61 554 34 518 q 137 589 89 589 q 196 577 170 589 q 247 552 223 566 q 294 528 271 538 q 342 517 317 517 q 420 578 388 517 l 420 570 q 395 482 420 518 q 321 446 371 446 z "},"¡":{"ha":183,"x_min":34,"x_max":149,"o":"m 90 -385 q 52 -370 69 -385 q 34 -325 34 -355 l 82 515 l 102 515 l 149 -323 q 132 -369 149 -354 q 90 -385 114 -384 m 92 566 q 62 578 75 566 q 50 608 50 591 q 62 637 50 625 q 92 650 75 650 q 121 637 109 650 q 134 608 134 625 q 121 578 134 591 q 92 566 109 566 z "},"¢":{"ha":770,"x_min":34,"x_max":736,"o":"m 262 -121 l 243 -117 l 278 12 q 101 154 169 57 q 34 374 34 252 q 86 572 34 483 q 228 714 139 661 q 427 767 317 767 q 479 764 454 767 l 508 870 l 526 865 l 498 761 q 730 625 640 732 l 695 562 q 490 730 614 690 l 306 43 q 458 4 375 4 q 606 52 538 4 q 709 174 673 100 l 736 132 q 601 22 681 62 q 427 -18 521 -18 q 295 5 358 -18 l 262 -121 m 289 53 l 472 735 q 394 745 433 745 q 240 699 307 745 q 136 575 174 652 q 98 408 98 499 q 150 204 99 299 q 289 53 201 109 z "},"£":{"ha":669,"x_min":34,"x_max":635,"o":"m 602 0 l 35 0 l 35 19 q 118 97 88 56 q 160 179 148 138 q 172 258 172 220 q 168 309 172 284 l 62 309 l 62 328 l 164 328 q 106 477 153 379 q 57 590 80 532 q 34 720 34 648 q 106 954 34 865 q 342 1053 186 1053 q 468 1029 407 1053 q 574 959 530 1006 q 635 841 619 912 l 538 826 q 509 944 538 898 q 434 1013 479 990 q 339 1035 389 1035 q 206 999 256 1035 q 132 902 156 962 q 107 768 109 842 q 117 677 107 721 q 177 510 133 610 q 239 328 229 392 l 480 328 l 480 309 l 241 309 q 242 275 242 292 q 223 184 242 231 q 71 19 184 92 l 504 19 q 604 77 591 19 l 623 77 l 602 0 z "},"¤":{"ha":671,"x_min":34,"x_max":637,"o":"m 336 216 q 222 238 275 216 q 128 298 170 260 l 54 223 l 41 235 l 116 311 q 56 404 77 351 q 34 517 34 457 q 56 630 34 577 q 116 724 78 684 l 41 800 l 54 811 l 128 736 q 222 797 170 775 q 336 819 275 819 q 449 797 395 819 q 543 736 502 775 l 617 811 l 629 800 l 555 724 q 615 630 593 684 q 637 517 637 577 q 615 404 637 457 q 555 311 593 351 l 629 235 l 617 223 l 543 298 q 449 238 502 260 q 336 216 395 216 m 336 296 q 492 361 427 296 q 557 517 557 426 q 492 674 557 609 q 336 739 427 739 q 179 674 244 739 q 115 517 115 609 q 179 361 115 426 q 336 296 244 296 z "},"¥":{"ha":820,"x_min":34,"x_max":786,"o":"m 508 0 l 323 0 l 323 19 q 325 20 324 19 q 352 28 340 22 q 373 50 365 35 q 381 98 381 66 l 381 427 l 201 427 l 201 446 l 381 446 l 381 491 l 380 493 l 201 493 l 201 511 l 370 511 l 136 937 q 86 997 110 983 q 37 1015 62 1011 q 34 1016 35 1015 l 34 1034 l 230 1034 l 230 1016 q 207 1006 213 1010 q 197 987 197 1001 q 215 937 197 970 l 439 530 l 663 937 q 681 987 681 970 q 672 1006 681 1001 q 648 1016 666 1010 l 648 1034 l 786 1034 l 786 1016 q 783 1015 785 1015 q 734 997 758 1011 q 684 937 710 983 l 450 511 l 619 511 l 619 493 l 450 493 l 450 446 l 619 446 l 619 427 l 450 427 l 450 98 q 477 29 450 43 q 508 19 491 22 l 508 0 z "},"¦":{"ha":678,"x_min":305,"x_max":373,"o":"m 373 451 l 305 451 l 305 1035 l 373 1035 l 373 451 m 373 -284 l 305 -284 l 305 300 l 373 300 l 373 -284 z "},"§":{"ha":892,"x_min":34,"x_max":858,"o":"m 401 -235 q 235 -200 315 -235 q 100 -87 155 -165 q 34 121 46 -9 l 125 155 q 113 50 113 98 q 157 -104 115 -45 q 264 -190 199 -163 q 398 -217 330 -217 q 529 -185 467 -217 q 631 -93 591 -154 q 671 55 671 -33 q 648 150 671 109 q 586 223 625 191 q 499 282 547 255 q 398 334 451 309 q 296 387 346 359 q 205 448 245 414 q 140 526 165 482 q 116 629 116 570 q 145 725 116 680 q 228 800 174 770 q 224 846 224 822 q 255 946 224 899 q 347 1023 287 994 q 491 1053 406 1053 q 601 1036 547 1053 q 696 985 654 1020 q 763 894 738 949 l 683 838 q 650 949 679 905 q 577 1013 621 992 q 488 1034 534 1034 q 387 1008 431 1034 q 317 940 342 981 q 292 855 292 899 q 314 769 292 806 q 373 703 336 732 q 456 650 410 674 q 554 602 503 625 q 664 547 610 576 q 762 481 718 518 q 832 396 806 445 q 858 282 858 348 q 829 158 858 213 q 751 64 800 102 q 699 -95 749 -28 q 569 -199 649 -162 q 401 -235 490 -235 m 743 132 q 778 272 778 190 q 755 367 778 326 q 694 440 732 408 q 607 499 655 472 q 507 550 558 526 q 347 639 420 590 q 240 761 273 688 q 185 638 185 705 q 207 552 185 589 q 266 486 229 515 q 349 433 302 457 q 446 385 396 408 q 572 321 511 355 q 679 241 633 287 q 743 132 724 195 z "},"¨":{"ha":204,"x_min":34,"x_max":170,"o":"m 65 801 q 43 810 52 801 q 34 833 34 819 q 43 855 34 846 q 65 864 52 864 q 88 855 79 864 q 97 833 97 846 q 88 810 97 819 q 65 801 79 801 m 139 801 q 116 810 125 801 q 107 833 107 819 q 116 855 107 846 q 139 864 125 864 q 161 855 152 864 q 170 833 170 846 q 161 810 170 819 q 139 801 152 801 z "},"©":{"ha":790,"x_min":-5,"x_max":776,"o":"m 410 254 q 277 289 337 254 q 182 385 218 325 q 146 517 146 445 q 182 650 146 590 q 277 746 218 710 q 410 781 337 781 q 618 680 533 781 l 619 677 l 599 629 l 595 635 q 505 727 560 693 q 387 761 450 761 q 240 692 294 755 q 186 539 186 629 q 219 411 186 471 q 307 312 252 350 q 431 274 363 274 q 537 303 488 274 q 612 389 587 332 l 625 358 l 623 357 q 530 278 584 302 q 410 254 477 254 m 385 127 q 189 180 277 127 q 48 321 100 233 q -5 517 -5 410 q 48 714 -5 625 q 189 855 100 802 q 385 907 277 907 q 582 855 493 907 q 723 714 670 802 q 776 517 776 625 q 723 321 776 410 q 582 180 670 233 q 385 127 493 127 m 385 146 q 572 197 488 146 q 706 331 656 247 q 756 517 756 415 q 706 704 756 620 q 572 838 656 788 q 385 888 488 888 q 199 838 283 888 q 65 704 115 788 q 15 517 15 620 q 65 331 15 415 q 199 197 115 247 q 385 146 283 146 z "},"ª":{"ha":481,"x_min":34,"x_max":447,"o":"m 174 564 q 74 595 114 564 q 34 682 34 626 q 66 767 34 733 q 149 821 99 800 q 255 853 199 842 q 359 873 311 865 q 350 943 359 908 q 313 1000 340 977 q 230 1023 285 1023 q 171 1010 199 1023 q 126 975 144 998 q 108 919 108 952 l 109 909 l 58 918 q 112 1003 61 972 q 229 1035 163 1035 q 315 1019 275 1035 q 381 965 356 1003 q 407 859 407 926 l 407 633 q 418 597 407 605 q 445 587 429 589 l 447 586 l 447 574 l 359 574 l 359 736 q 325 654 348 693 q 265 589 302 615 q 174 564 228 564 m 183 581 q 260 605 227 581 q 315 666 293 629 q 348 744 337 703 q 359 817 359 784 l 359 861 q 83 688 83 826 q 112 609 83 635 q 183 581 141 582 m 389 489 l 95 489 l 95 519 l 389 519 l 389 489 z "},"«":{"ha":320,"x_min":34,"x_max":286,"o":"m 133 380 l 34 517 l 133 654 l 168 618 l 96 517 l 168 416 l 133 380 m 251 380 l 152 517 l 251 654 l 286 618 l 215 517 l 286 416 l 251 380 z "},"¬":{"ha":405,"x_min":34,"x_max":371,"o":"m 371 422 l 321 422 l 321 562 l 34 562 l 34 612 l 371 612 l 371 422 z "},"®":{"ha":848,"x_min":34,"x_max":814,"o":"m 617 258 q 562 271 588 258 q 496 326 524 291 q 447 398 469 361 l 425 434 q 321 476 395 475 l 321 318 q 323 302 321 311 q 332 289 325 293 q 345 284 338 285 l 349 283 l 349 267 l 252 267 l 252 283 l 256 284 q 269 289 262 285 q 278 301 276 293 q 280 318 280 310 l 280 725 q 274 751 280 745 q 252 761 268 757 l 252 777 l 470 777 q 529 764 502 777 q 576 726 557 751 q 605 636 605 684 q 571 535 605 581 q 505 488 543 500 q 425 475 467 475 q 463 437 446 458 q 498 391 480 416 q 559 315 526 349 q 633 279 592 281 q 660 283 647 279 l 665 286 l 665 271 q 617 258 645 258 m 393 491 q 537 551 493 491 q 563 637 563 592 q 551 696 563 668 q 516 742 538 724 q 463 760 494 760 l 350 760 q 327 750 333 760 q 321 725 321 741 l 321 496 q 393 491 357 491 m 424 127 q 228 180 316 127 q 86 321 139 233 q 34 517 34 410 q 86 714 34 625 q 228 855 139 802 q 424 907 316 907 q 620 855 532 907 q 761 714 709 802 q 814 517 814 625 q 761 321 814 410 q 620 180 709 233 q 424 127 532 127 m 424 146 q 610 197 526 146 q 745 331 694 247 q 795 517 795 415 q 745 704 795 620 q 610 838 694 788 q 424 888 526 888 q 237 838 321 888 q 103 704 153 788 q 53 517 53 620 q 103 331 53 415 q 237 197 153 247 q 424 146 321 146 z "},"¯":{"ha":405,"x_min":34,"x_max":371,"o":"m 371 768 l 34 768 l 34 819 l 371 819 l 371 768 z "},"°":{"ha":435,"x_min":34,"x_max":401,"o":"m 218 578 q 87 647 141 578 q 34 815 34 717 q 87 983 34 913 q 218 1053 141 1053 q 348 983 294 1053 q 401 815 401 913 q 348 647 401 717 q 218 578 294 578 m 236 597 q 308 650 279 597 q 338 781 338 702 q 312 921 338 851 q 260 1003 290 975 q 198 1032 230 1032 q 143 1005 169 1032 q 109 938 121 979 q 97 848 97 897 q 123 709 97 779 q 175 626 144 655 q 236 597 205 597 z "},"±":{"ha":405,"x_min":34,"x_max":371,"o":"m 228 349 l 178 349 l 178 492 l 34 492 l 34 543 l 178 543 l 178 686 l 228 686 l 228 543 l 371 543 l 371 492 l 228 492 l 228 349 m 371 0 l 34 0 l 34 50 l 371 50 l 371 0 z "},"´":{"ha":242,"x_min":34,"x_max":208,"o":"m 41 801 l 34 801 l 117 899 l 208 899 l 41 801 z "},"µ":{"ha":695,"x_min":34,"x_max":661,"o":"m 218 -286 l 34 -286 l 34 -267 l 37 -266 q 64 -256 52 -263 q 92 -188 92 -242 l 92 651 q 64 720 92 705 q 34 730 50 726 l 34 749 l 218 749 l 218 730 q 189 720 202 726 q 160 651 160 705 l 160 240 q 185 113 160 163 q 250 38 210 62 q 333 14 290 14 q 493 109 442 14 q 534 300 534 186 l 534 651 q 527 699 534 683 q 476 730 515 721 l 476 749 l 661 749 l 661 730 q 631 720 645 726 q 603 651 603 705 l 603 98 q 631 29 603 43 q 661 19 644 22 l 661 0 l 534 0 l 534 168 q 490 74 519 116 q 415 7 460 33 q 305 -18 369 -18 q 201 9 250 -18 q 161 39 178 21 l 160 -188 q 168 -235 160 -220 q 188 -256 176 -250 q 216 -266 201 -262 l 218 -267 l 218 -286 z "},"¶":{"ha":719,"x_min":34,"x_max":685,"o":"m 644 0 l 459 0 l 459 19 q 489 28 479 24 q 509 50 501 35 q 517 98 517 66 l 517 937 q 509 987 517 970 q 459 1016 495 1016 l 385 1016 q 356 1010 370 1016 q 326 937 326 996 l 326 98 q 334 50 326 66 q 355 28 342 35 q 385 19 365 24 l 385 0 l 243 0 l 243 19 q 274 29 264 24 q 294 51 286 35 q 302 98 302 66 l 302 551 q 153 588 213 551 q 64 682 94 625 q 34 801 34 739 q 61 913 34 860 q 144 1001 89 967 q 281 1034 199 1034 l 685 1034 l 685 1016 q 636 1012 659 1016 q 600 992 614 1008 q 585 937 585 976 l 585 98 q 593 51 585 66 q 613 29 601 35 q 644 19 623 24 l 644 0 z "},"·":{"ha":345,"x_min":34,"x_max":105,"o":"m 70 451 q 44 461 55 451 q 34 486 34 471 q 44 511 34 501 q 70 522 55 522 q 95 511 84 522 q 105 486 105 501 q 95 461 105 471 q 70 451 84 451 z "},"∙":{"ha":345,"x_min":34,"x_max":105,"o":"m 70 451 q 44 461 55 451 q 34 486 34 471 q 44 511 34 501 q 70 522 55 522 q 95 511 84 522 q 105 486 105 501 q 95 461 105 471 q 70 451 84 451 z "},"¸":{"ha":191,"x_min":34,"x_max":157,"o":"m 84 -136 q 41 -131 64 -136 l 34 -98 q 96 -109 69 -109 q 120 -99 113 -109 q 127 -79 127 -90 q 65 -50 127 -50 l 38 -50 l 38 -20 l 88 37 l 109 19 l 70 -26 l 84 -26 q 137 -41 117 -26 q 157 -77 157 -57 q 140 -118 157 -100 q 84 -136 123 -136 z "},"º":{"ha":527,"x_min":34,"x_max":493,"o":"m 263 517 q 148 553 200 517 q 65 651 96 590 q 34 785 34 712 q 65 918 34 857 q 148 1016 96 979 q 263 1053 200 1053 q 379 1016 327 1053 q 462 918 431 979 q 493 785 493 857 q 462 651 493 712 q 379 553 431 590 q 263 517 327 517 m 277 551 q 349 572 319 551 q 396 626 378 593 q 422 697 414 659 q 431 767 431 734 q 419 846 431 803 q 385 928 408 890 q 328 992 361 967 q 249 1018 294 1018 q 178 998 207 1018 q 131 945 149 977 q 105 877 113 913 q 96 807 96 840 q 107 727 96 771 q 141 643 119 682 q 197 577 163 603 q 277 551 231 551 z "},"»":{"ha":320,"x_min":34,"x_max":286,"o":"m 69 380 l 34 416 l 105 517 l 34 618 l 69 654 l 168 517 l 69 380 m 187 380 l 152 416 l 224 517 l 152 618 l 187 654 l 286 517 l 187 380 z "},"¼":{"ha":833,"x_min":68,"x_max":766,"o":"m 202 516 l 78 516 l 78 544 l 79 544 q 102 552 97 548 q 108 574 108 557 l 108 955 q 74 945 100 952 l 74 979 q 117 1000 104 988 q 137 1034 131 1013 l 172 1034 l 172 571 q 177 553 172 557 q 201 544 182 548 l 202 544 l 202 516 m 258 0 l 68 0 l 68 19 l 72 20 q 117 38 96 24 q 159 98 139 52 l 503 937 q 514 981 514 965 q 504 1005 514 999 q 477 1016 496 1010 l 477 1034 l 667 1034 l 667 1016 l 665 1015 q 618 997 640 1011 q 576 937 596 983 q 232 98 404 517 q 220 54 220 69 q 231 29 220 35 q 258 19 239 24 l 258 0 m 647 205 l 647 454 l 441 205 l 647 205 m 741 0 l 616 0 l 616 28 q 642 36 636 32 q 647 58 647 41 l 647 151 l 388 151 l 388 197 l 654 518 l 711 518 l 711 205 l 766 205 l 766 151 l 711 151 l 711 58 q 715 37 711 41 q 741 28 720 33 l 741 0 z "},"½":{"ha":871,"x_min":68,"x_max":804,"o":"m 786 0 l 454 0 l 454 47 q 477 130 454 92 q 535 200 500 167 q 608 262 570 233 q 668 313 640 288 q 713 364 695 338 q 730 418 730 390 q 715 461 730 444 q 675 488 700 479 q 624 496 651 496 q 579 487 600 496 q 546 454 559 477 q 534 393 534 431 l 453 404 q 519 498 470 469 q 624 527 568 527 q 707 513 669 527 q 770 474 745 500 q 794 414 794 449 q 773 339 794 374 q 720 273 752 304 q 652 213 687 242 q 590 159 618 186 q 543 103 561 132 q 524 42 524 74 l 524 31 l 724 31 q 753 37 745 31 q 765 59 761 43 l 804 59 l 786 0 m 202 516 l 78 516 l 78 544 l 79 544 q 102 552 97 548 q 108 574 108 557 l 108 955 q 74 945 100 952 l 74 979 q 117 1000 104 988 q 137 1034 131 1013 l 172 1034 l 172 571 q 177 553 172 557 q 201 544 182 548 l 202 544 l 202 516 m 258 0 l 68 0 l 68 19 l 72 20 q 117 38 96 24 q 159 98 139 52 l 503 937 q 514 981 514 965 q 504 1005 514 999 q 477 1016 496 1010 l 477 1034 l 667 1034 l 667 1016 l 665 1015 q 618 997 640 1011 q 576 937 596 983 q 232 98 404 517 q 220 54 220 69 q 231 29 220 35 q 258 19 239 24 l 258 0 z "},"¾":{"ha":1019,"x_min":68,"x_max":951,"o":"m 272 517 q 173 541 220 517 q 97 615 126 566 q 68 741 68 665 l 153 741 q 141 671 141 698 q 162 603 141 631 q 213 561 183 575 q 268 547 242 547 q 348 566 315 547 q 397 616 380 585 q 414 682 414 647 q 392 760 414 733 q 334 796 370 787 q 257 806 299 806 l 219 804 l 219 837 q 292 848 258 837 q 347 881 326 859 q 368 934 368 903 q 346 997 368 971 q 281 1022 323 1022 q 238 1012 258 1022 q 206 980 218 1002 q 193 918 193 957 l 113 929 q 149 1001 123 974 q 209 1040 174 1028 q 279 1053 243 1053 q 351 1039 316 1053 q 410 999 387 1025 q 433 936 433 973 q 420 883 432 905 q 397 849 409 861 q 382 836 385 837 q 450 784 420 831 q 480 683 480 737 q 457 605 480 643 q 387 542 433 566 q 272 517 341 517 m 444 0 l 254 0 l 254 19 l 258 20 q 303 38 281 24 q 345 98 325 52 l 688 937 q 700 981 700 965 q 690 1005 700 999 q 663 1016 682 1010 l 663 1034 l 853 1034 l 853 1016 l 850 1015 q 804 997 826 1011 q 762 937 782 983 q 418 98 589 517 q 406 54 406 69 q 417 29 406 35 q 444 19 425 24 l 444 0 m 833 205 l 833 454 l 627 205 l 833 205 m 927 0 l 802 0 l 802 28 q 827 36 822 32 q 833 58 833 41 l 833 151 l 574 151 l 574 197 l 840 518 l 897 518 l 897 205 l 951 205 l 951 151 l 897 151 l 897 58 q 901 37 897 41 q 927 28 906 33 l 927 0 z "},"¿":{"ha":667,"x_min":34,"x_max":633,"o":"m 330 -403 q 169 -372 235 -403 q 68 -290 102 -341 q 34 -180 34 -239 q 51 -66 34 -113 q 97 18 68 -19 q 158 88 125 54 q 236 182 198 130 q 299 312 274 234 q 325 513 325 390 l 325 515 l 342 515 l 343 475 q 322 284 343 361 q 268 153 300 208 q 202 56 236 99 q 154 -14 176 21 q 118 -91 132 -49 q 104 -187 104 -132 q 131 -284 104 -240 q 210 -357 158 -329 q 337 -385 261 -385 q 434 -361 389 -385 q 508 -292 479 -338 q 536 -173 536 -245 l 633 -188 q 521 -352 607 -300 q 330 -403 435 -403 m 334 566 q 304 578 316 566 q 292 608 292 591 q 304 637 292 625 q 334 650 316 650 q 363 637 351 650 q 375 608 375 625 q 363 578 375 591 q 334 566 351 566 z "},"À":{"ha":865,"x_min":-62,"x_max":890,"o":"m 555 510 l 384 942 l 275 668 q 428 618 355 658 q 555 510 500 579 m 890 0 l 700 0 l 700 19 q 724 28 719 25 q 732 49 732 34 q 720 98 732 65 l 609 373 q 478 561 561 490 q 267 649 395 632 l 48 97 q 37 52 37 68 q 48 27 37 34 q 75 18 60 21 l 75 0 l -62 0 l -62 18 q -14 38 -35 24 q 28 98 7 52 l 400 1034 l 420 1034 l 793 98 q 835 39 812 53 q 890 19 858 24 l 890 0 m 469 1086 l 461 1086 l 294 1185 l 386 1185 l 469 1086 z "},"Á":{"ha":865,"x_min":-62,"x_max":890,"o":"m 555 510 l 384 942 l 275 668 q 428 618 355 658 q 555 510 500 579 m 890 0 l 700 0 l 700 19 q 724 28 719 25 q 732 49 732 34 q 720 98 732 65 l 609 373 q 478 561 561 490 q 267 649 395 632 l 48 97 q 37 52 37 68 q 48 27 37 34 q 75 18 60 21 l 75 0 l -62 0 l -62 18 q -14 38 -35 24 q 28 98 7 52 l 400 1034 l 420 1034 l 793 98 q 835 39 812 53 q 890 19 858 24 l 890 0 m 359 1086 l 352 1086 l 435 1185 l 526 1185 l 359 1086 z "},"Â":{"ha":865,"x_min":-62,"x_max":890,"o":"m 555 510 l 384 942 l 275 668 q 428 618 355 658 q 555 510 500 579 m 890 0 l 700 0 l 700 19 q 724 28 719 25 q 732 49 732 34 q 720 98 732 65 l 609 373 q 478 561 561 490 q 267 649 395 632 l 48 97 q 37 52 37 68 q 48 27 37 34 q 75 18 60 21 l 75 0 l -62 0 l -62 18 q -14 38 -35 24 q 28 98 7 52 l 400 1034 l 420 1034 l 793 98 q 835 39 812 53 q 890 19 858 24 l 890 0 m 457 1086 l 410 1164 l 363 1086 l 342 1093 l 409 1204 l 411 1204 l 479 1093 l 457 1086 z "},"Ã":{"ha":865,"x_min":-62,"x_max":890,"o":"m 555 510 l 384 942 l 275 668 q 428 618 355 658 q 555 510 500 579 m 890 0 l 700 0 l 700 19 q 724 28 719 25 q 732 49 732 34 q 720 98 732 65 l 609 373 q 478 561 561 490 q 267 649 395 632 l 48 97 q 37 52 37 68 q 48 27 37 34 q 75 18 60 21 l 75 0 l -62 0 l -62 18 q -14 38 -35 24 q 28 98 7 52 l 400 1034 l 420 1034 l 793 98 q 835 39 812 53 q 890 19 858 24 l 890 0 m 458 1086 q 429 1092 443 1086 q 404 1105 416 1098 q 379 1118 391 1112 q 353 1123 367 1123 q 312 1092 328 1123 l 312 1097 q 326 1142 312 1124 q 364 1160 340 1160 q 395 1154 381 1160 q 421 1140 408 1147 q 445 1128 433 1133 q 470 1123 457 1123 q 509 1154 494 1123 l 509 1150 q 497 1105 509 1124 q 458 1086 484 1086 z "},"Ä":{"ha":865,"x_min":-62,"x_max":890,"o":"m 555 510 l 384 942 l 275 668 q 428 618 355 658 q 555 510 500 579 m 890 0 l 700 0 l 700 19 q 724 28 719 25 q 732 49 732 34 q 720 98 732 65 l 609 373 q 478 561 561 490 q 267 649 395 632 l 48 97 q 37 52 37 68 q 48 27 37 34 q 75 18 60 21 l 75 0 l -62 0 l -62 18 q -14 38 -35 24 q 28 98 7 52 l 400 1034 l 420 1034 l 793 98 q 835 39 812 53 q 890 19 858 24 l 890 0 m 373 1086 q 351 1096 360 1086 q 342 1118 342 1105 q 351 1140 342 1131 q 373 1149 360 1149 q 396 1140 387 1149 q 405 1118 405 1131 q 396 1096 405 1105 q 373 1086 387 1086 m 447 1086 q 424 1096 433 1086 q 415 1118 415 1105 q 424 1140 415 1131 q 447 1149 433 1149 q 469 1140 460 1149 q 478 1118 478 1131 q 469 1096 478 1105 q 447 1086 460 1086 z "},"Å":{"ha":865,"x_min":-62,"x_max":890,"o":"m 555 510 l 384 942 l 275 668 q 428 618 355 658 q 555 510 500 579 m 890 0 l 700 0 l 700 19 q 724 28 719 25 q 732 49 732 34 q 720 98 732 65 l 609 373 q 478 561 561 490 q 267 649 395 632 l 48 97 q 37 52 37 68 q 48 27 37 34 q 75 18 60 21 l 75 0 l -62 0 l -62 18 q -14 38 -35 24 q 28 98 7 52 l 400 1034 l 420 1034 l 793 98 q 835 39 812 53 q 890 19 858 24 l 890 0 m 410 1086 q 374 1101 389 1086 q 359 1137 359 1116 q 374 1173 359 1158 q 410 1188 389 1188 q 446 1173 431 1188 q 461 1137 461 1158 q 446 1101 461 1116 q 410 1086 431 1086 m 410 1104 q 434 1114 424 1104 q 444 1137 444 1124 q 434 1161 444 1151 q 410 1171 424 1171 q 387 1161 397 1171 q 377 1137 377 1151 q 387 1114 377 1124 q 410 1104 397 1104 z "},"Æ":{"ha":1125,"x_min":-62,"x_max":1133,"o":"m 555 510 l 384 942 l 275 668 q 428 618 355 658 q 555 510 500 579 m 1112 0 l 576 0 l 576 19 q 606 29 585 19 q 634 98 634 43 l 634 311 l 609 373 q 478 561 561 490 q 267 649 395 632 l 48 97 q 37 52 37 68 q 48 27 37 34 q 75 18 60 21 l 75 0 l -62 0 l -62 18 q -14 38 -35 24 q 28 98 7 52 l 400 1034 l 420 1034 l 634 497 l 634 937 q 626 984 634 968 q 606 1005 618 999 q 579 1015 593 1012 q 576 1016 577 1015 l 576 1034 l 1112 1034 l 1133 958 l 1115 958 q 1014 1016 1101 1016 l 768 1016 q 702 937 702 1016 l 702 749 l 976 749 l 976 730 l 702 730 l 702 98 q 768 19 702 19 l 1014 19 q 1115 77 1101 19 l 1133 77 l 1112 0 z "},"Ç":{"ha":948,"x_min":-18,"x_max":951,"o":"m 538 -167 q 494 -161 517 -167 l 488 -129 q 549 -139 523 -139 q 574 -130 567 -139 q 581 -110 581 -120 q 519 -80 581 -80 l 492 -80 l 492 -51 l 520 -18 l 517 -18 q 248 54 370 -18 q 55 248 127 126 q -18 517 -18 370 q 55 787 -18 665 q 248 980 127 908 q 517 1053 370 1053 q 756 997 647 1053 q 940 846 865 941 l 905 764 q 714 958 829 890 q 474 1026 598 1026 q 264 969 366 1026 q 104 797 159 905 q 49 563 49 689 q 123 282 49 415 q 316 80 198 151 q 560 8 434 8 q 781 65 684 9 q 935 232 879 122 l 951 191 q 557 -18 811 -5 l 524 -56 l 538 -56 q 591 -72 571 -56 q 610 -108 610 -87 q 594 -149 610 -130 q 538 -167 577 -167 z "},"È":{"ha":607,"x_min":58,"x_max":615,"o":"m 593 0 l 58 0 l 58 19 q 87 29 78 24 q 108 51 100 35 q 116 98 116 66 l 116 937 q 108 984 116 968 q 87 1006 100 999 q 58 1016 78 1010 l 58 1034 l 593 1034 l 615 958 l 597 958 q 568 998 591 981 q 496 1016 545 1016 l 250 1016 q 184 937 184 1016 l 184 749 l 458 749 l 458 730 l 184 730 l 184 98 q 198 42 184 65 q 249 19 213 19 l 496 19 q 568 37 545 19 q 597 77 591 54 l 615 77 l 593 0 m 439 1086 l 431 1086 l 264 1185 l 356 1185 l 439 1086 z "},"É":{"ha":607,"x_min":58,"x_max":615,"o":"m 593 0 l 58 0 l 58 19 q 87 29 78 24 q 108 51 100 35 q 116 98 116 66 l 116 937 q 108 984 116 968 q 87 1006 100 999 q 58 1016 78 1010 l 58 1034 l 593 1034 l 615 958 l 597 958 q 568 998 591 981 q 496 1016 545 1016 l 250 1016 q 184 937 184 1016 l 184 749 l 458 749 l 458 730 l 184 730 l 184 98 q 198 42 184 65 q 249 19 213 19 l 496 19 q 568 37 545 19 q 597 77 591 54 l 615 77 l 593 0 m 302 1086 l 294 1086 l 377 1185 l 469 1185 l 302 1086 z "},"Ê":{"ha":607,"x_min":58,"x_max":615,"o":"m 593 0 l 58 0 l 58 19 q 87 29 78 24 q 108 51 100 35 q 116 98 116 66 l 116 937 q 108 984 116 968 q 87 1006 100 999 q 58 1016 78 1010 l 58 1034 l 593 1034 l 615 958 l 597 958 q 568 998 591 981 q 496 1016 545 1016 l 250 1016 q 184 937 184 1016 l 184 749 l 458 749 l 458 730 l 184 730 l 184 98 q 198 42 184 65 q 249 19 213 19 l 496 19 q 568 37 545 19 q 597 77 591 54 l 615 77 l 593 0 m 411 1086 l 364 1164 l 317 1086 l 296 1093 l 363 1204 l 365 1204 l 433 1093 l 411 1086 z "},"Ë":{"ha":607,"x_min":58,"x_max":615,"o":"m 593 0 l 58 0 l 58 19 q 87 29 78 24 q 108 51 100 35 q 116 98 116 66 l 116 937 q 108 984 116 968 q 87 1006 100 999 q 58 1016 78 1010 l 58 1034 l 593 1034 l 615 958 l 597 958 q 568 998 591 981 q 496 1016 545 1016 l 250 1016 q 184 937 184 1016 l 184 749 l 458 749 l 458 730 l 184 730 l 184 98 q 198 42 184 65 q 249 19 213 19 l 496 19 q 568 37 545 19 q 597 77 591 54 l 615 77 l 593 0 m 313 1086 q 291 1096 300 1086 q 282 1118 282 1105 q 291 1140 282 1131 q 313 1149 300 1149 q 336 1140 327 1149 q 345 1118 345 1131 q 336 1096 345 1105 q 313 1086 327 1086 m 387 1086 q 365 1096 374 1086 q 355 1118 355 1105 q 365 1140 355 1131 q 387 1149 374 1149 q 409 1140 400 1149 q 418 1118 418 1131 q 409 1096 418 1105 q 387 1086 400 1086 z "},"Ì":{"ha":298,"x_min":34,"x_max":242,"o":"m 242 0 l 58 0 l 58 19 q 87 29 78 24 q 108 51 100 35 q 116 98 116 66 l 116 937 q 108 984 116 968 q 87 1006 100 999 q 58 1016 78 1010 l 58 1034 l 242 1034 l 242 1016 q 212 1006 222 1010 q 192 984 199 999 q 184 937 184 968 l 184 98 q 192 51 184 66 q 212 29 199 35 q 242 19 222 24 l 242 0 m 208 1086 l 201 1086 l 34 1185 l 125 1185 l 208 1086 z "},"Í":{"ha":298,"x_min":58,"x_max":266,"o":"m 242 0 l 58 0 l 58 19 q 87 29 78 24 q 108 51 100 35 q 116 98 116 66 l 116 937 q 108 984 116 968 q 87 1006 100 999 q 58 1016 78 1010 l 58 1034 l 242 1034 l 242 1016 q 212 1006 222 1010 q 192 984 199 999 q 184 937 184 968 l 184 98 q 192 51 184 66 q 212 29 199 35 q 242 19 222 24 l 242 0 m 99 1086 l 92 1086 l 174 1185 l 266 1185 l 99 1086 z "},"Î":{"ha":298,"x_min":58,"x_max":242,"o":"m 242 0 l 58 0 l 58 19 q 87 29 78 24 q 108 51 100 35 q 116 98 116 66 l 116 937 q 108 984 116 968 q 87 1006 100 999 q 58 1016 78 1010 l 58 1034 l 242 1034 l 242 1016 q 212 1006 222 1010 q 192 984 199 999 q 184 937 184 968 l 184 98 q 192 51 184 66 q 212 29 199 35 q 242 19 222 24 l 242 0 m 197 1086 l 150 1164 l 102 1086 l 81 1093 l 149 1204 l 151 1204 l 218 1093 l 197 1086 z "},"Ï":{"ha":298,"x_min":58,"x_max":242,"o":"m 242 0 l 58 0 l 58 19 q 87 29 78 24 q 108 51 100 35 q 116 98 116 66 l 116 937 q 108 984 116 968 q 87 1006 100 999 q 58 1016 78 1010 l 58 1034 l 242 1034 l 242 1016 q 212 1006 222 1010 q 192 984 199 999 q 184 937 184 968 l 184 98 q 192 51 184 66 q 212 29 199 35 q 242 19 222 24 l 242 0 m 113 1086 q 91 1096 100 1086 q 81 1118 81 1105 q 91 1140 81 1131 q 113 1149 100 1149 q 135 1140 126 1149 q 144 1118 144 1131 q 135 1096 144 1105 q 113 1086 126 1086 m 186 1086 q 164 1096 173 1086 q 155 1118 155 1105 q 164 1140 155 1131 q 186 1149 173 1149 q 209 1140 199 1149 q 218 1118 218 1131 q 209 1096 218 1105 q 186 1086 199 1086 z "},"Ð":{"ha":956,"x_min":-49,"x_max":920,"o":"m 416 19 q 608 61 526 19 q 745 174 690 103 q 827 334 800 245 q 854 515 854 422 q 826 699 854 610 q 744 860 799 788 q 607 974 690 931 q 416 1016 525 1016 l 254 1016 q 200 995 216 1016 q 184 937 184 975 l 184 536 l 429 536 l 429 498 l 184 498 l 184 98 q 252 19 184 19 l 416 19 m 391 0 l 58 0 l 58 19 q 60 20 59 19 q 87 28 75 22 q 116 98 116 43 l 116 498 l -49 498 l -49 536 l 116 536 l 116 937 q 88 1006 116 991 q 58 1016 74 1012 l 58 1034 l 391 1034 q 623 990 524 1034 q 787 872 722 946 q 886 706 853 799 q 920 517 920 614 q 886 328 920 420 q 787 162 853 235 q 623 44 722 88 q 391 0 524 0 z "},"Ñ":{"ha":760,"x_min":58,"x_max":704,"o":"m 704 0 l 511 0 l 511 19 l 514 20 q 537 29 527 23 q 547 52 547 35 q 533 98 547 67 l 152 937 q 137 965 144 954 q 134 937 134 954 l 134 98 q 142 51 134 66 q 162 29 150 35 q 193 19 172 24 l 193 0 l 58 0 l 58 19 q 87 28 77 24 q 108 50 100 35 q 116 98 116 66 l 116 937 q 108 984 116 968 q 87 1006 100 999 q 58 1016 78 1010 l 58 1034 l 251 1034 l 251 1016 q 225 1006 233 1010 q 215 983 215 1000 q 229 937 215 967 l 610 98 q 625 69 617 81 q 627 98 627 81 l 627 937 q 620 984 627 968 q 599 1006 612 999 q 569 1016 589 1010 l 569 1034 l 704 1034 l 704 1016 q 674 1006 684 1010 q 653 984 661 999 q 646 937 646 968 l 646 98 q 653 51 646 66 q 673 29 661 35 q 704 19 683 24 l 704 0 m 429 1086 q 400 1092 414 1086 q 374 1105 387 1098 q 350 1118 362 1112 q 323 1123 338 1123 q 283 1092 298 1123 l 283 1097 q 297 1142 283 1124 q 335 1160 311 1160 q 366 1154 352 1160 q 392 1140 379 1147 q 416 1128 404 1133 q 441 1123 428 1123 q 480 1154 465 1123 l 480 1150 q 468 1105 480 1124 q 429 1086 455 1086 z "},"Ò":{"ha":1088,"x_min":-18,"x_max":1053,"o":"m 518 -18 q 249 54 370 -18 q 55 248 127 126 q -18 517 -18 370 q 55 787 -18 665 q 249 980 127 908 q 518 1053 370 1053 q 787 980 666 1053 q 981 787 909 908 q 1053 517 1053 665 q 981 248 1053 370 q 787 54 909 126 q 518 -18 666 -18 m 564 8 q 771 65 671 8 q 930 231 873 127 q 987 456 987 335 q 913 752 987 618 q 718 955 837 884 q 472 1027 600 1027 q 264 969 364 1027 q 105 799 160 905 q 49 564 50 692 q 124 282 49 415 q 316 79 199 149 q 564 8 432 9 m 576 1086 l 569 1086 l 402 1185 l 494 1185 l 576 1086 z "},"Ó":{"ha":1088,"x_min":-18,"x_max":1053,"o":"m 518 -18 q 249 54 370 -18 q 55 248 127 126 q -18 517 -18 370 q 55 787 -18 665 q 249 980 127 908 q 518 1053 370 1053 q 787 980 666 1053 q 981 787 909 908 q 1053 517 1053 665 q 981 248 1053 370 q 787 54 909 126 q 518 -18 666 -18 m 564 8 q 771 65 671 8 q 930 231 873 127 q 987 456 987 335 q 913 752 987 618 q 718 955 837 884 q 472 1027 600 1027 q 264 969 364 1027 q 105 799 160 905 q 49 564 50 692 q 124 282 49 415 q 316 79 199 149 q 564 8 432 9 m 467 1086 l 460 1086 l 543 1185 l 634 1185 l 467 1086 z "},"Ô":{"ha":1088,"x_min":-18,"x_max":1053,"o":"m 518 -18 q 249 54 370 -18 q 55 248 127 126 q -18 517 -18 370 q 55 787 -18 665 q 249 980 127 908 q 518 1053 370 1053 q 787 980 666 1053 q 981 787 909 908 q 1053 517 1053 665 q 981 248 1053 370 q 787 54 909 126 q 518 -18 666 -18 m 564 8 q 771 65 671 8 q 930 231 873 127 q 987 456 987 335 q 913 752 987 618 q 718 955 837 884 q 472 1027 600 1027 q 264 969 364 1027 q 105 799 160 905 q 49 564 50 692 q 124 282 49 415 q 316 79 199 149 q 564 8 432 9 m 565 1086 l 518 1164 l 471 1086 l 450 1093 l 517 1204 l 519 1204 l 587 1093 l 565 1086 z "},"Õ":{"ha":1088,"x_min":-18,"x_max":1053,"o":"m 518 -18 q 249 54 370 -18 q 55 248 127 126 q -18 517 -18 370 q 55 787 -18 665 q 249 980 127 908 q 518 1053 370 1053 q 787 980 666 1053 q 981 787 909 908 q 1053 517 1053 665 q 981 248 1053 370 q 787 54 909 126 q 518 -18 666 -18 m 564 8 q 771 65 671 8 q 930 231 873 127 q 987 456 987 335 q 913 752 987 618 q 718 955 837 884 q 472 1027 600 1027 q 264 969 364 1027 q 105 799 160 905 q 49 564 50 692 q 124 282 49 415 q 316 79 199 149 q 564 8 432 9 m 566 1086 q 537 1092 551 1086 q 511 1105 524 1098 q 487 1118 499 1112 q 460 1123 475 1123 q 420 1092 435 1123 l 420 1097 q 434 1142 420 1124 q 472 1160 448 1160 q 503 1154 489 1160 q 529 1140 516 1147 q 553 1128 541 1133 q 578 1123 565 1123 q 617 1154 602 1123 l 617 1150 q 605 1105 617 1124 q 566 1086 592 1086 z "},"Ö":{"ha":1088,"x_min":-18,"x_max":1053,"o":"m 518 -18 q 249 54 370 -18 q 55 248 127 126 q -18 517 -18 370 q 55 787 -18 665 q 249 980 127 908 q 518 1053 370 1053 q 787 980 666 1053 q 981 787 909 908 q 1053 517 1053 665 q 981 248 1053 370 q 787 54 909 126 q 518 -18 666 -18 m 564 8 q 771 65 671 8 q 930 231 873 127 q 987 456 987 335 q 913 752 987 618 q 718 955 837 884 q 472 1027 600 1027 q 264 969 364 1027 q 105 799 160 905 q 49 564 50 692 q 124 282 49 415 q 316 79 199 149 q 564 8 432 9 m 481 1086 q 459 1096 468 1086 q 450 1118 450 1105 q 459 1140 450 1131 q 481 1149 468 1149 q 504 1140 494 1149 q 513 1118 513 1131 q 504 1096 513 1105 q 481 1086 494 1086 m 555 1086 q 532 1096 541 1086 q 523 1118 523 1105 q 532 1140 523 1131 q 555 1149 541 1149 q 577 1140 568 1149 q 586 1118 586 1131 q 577 1096 586 1105 q 555 1086 568 1086 z "},"×":{"ha":342,"x_min":34,"x_max":308,"o":"m 273 380 l 171 481 l 69 380 l 34 416 l 136 517 l 34 618 l 69 654 l 171 553 l 273 654 l 308 618 l 206 517 l 308 416 l 273 380 z "},"Ø":{"ha":1088,"x_min":-18,"x_max":1053,"o":"m 564 8 q 771 65 671 8 q 930 231 873 127 q 987 456 987 335 q 913 752 987 617 q 721 954 838 882 l 369 98 q 358 56 359 71 q 564 8 456 9 m 314 80 q 667 937 319 90 q 678 977 677 962 q 472 1027 578 1027 q 264 969 364 1027 q 105 799 160 905 q 49 564 50 692 q 124 282 49 415 q 314 80 199 150 m 518 -18 q 376 0 444 -18 l 231 0 l 231 19 l 235 20 q 279 37 258 24 q 55 248 137 109 q -18 517 -18 370 q 55 787 -18 665 q 249 980 127 908 q 518 1053 370 1053 q 661 1034 593 1053 l 804 1034 l 804 1016 q 756 998 772 1008 q 981 787 899 926 q 1053 517 1053 665 q 981 248 1053 370 q 787 54 909 126 q 518 -18 666 -18 z "},"Ù":{"ha":793,"x_min":50,"x_max":747,"o":"m 396 -18 q 199 37 273 -18 q 109 252 109 104 l 109 937 q 101 984 109 968 q 80 1006 93 999 q 50 1016 71 1010 l 50 1034 l 235 1034 l 235 1016 q 205 1006 215 1010 q 185 984 193 999 q 177 937 177 968 l 177 252 q 256 62 177 121 q 427 14 321 14 q 517 23 474 14 q 671 252 671 59 l 671 937 q 663 984 671 968 q 642 1006 655 999 q 612 1016 633 1010 l 612 1034 l 747 1034 l 747 1016 q 718 1006 727 1010 q 697 984 705 999 q 689 937 689 968 l 689 252 q 597 37 689 103 q 396 -18 522 -18 m 479 1086 l 471 1086 l 304 1185 l 396 1185 l 479 1086 z "},"Ú":{"ha":793,"x_min":50,"x_max":747,"o":"m 396 -18 q 199 37 273 -18 q 109 252 109 104 l 109 937 q 101 984 109 968 q 80 1006 93 999 q 50 1016 71 1010 l 50 1034 l 235 1034 l 235 1016 q 205 1006 215 1010 q 185 984 193 999 q 177 937 177 968 l 177 252 q 256 62 177 121 q 427 14 321 14 q 517 23 474 14 q 671 252 671 59 l 671 937 q 663 984 671 968 q 642 1006 655 999 q 612 1016 633 1010 l 612 1034 l 747 1034 l 747 1016 q 718 1006 727 1010 q 697 984 705 999 q 689 937 689 968 l 689 252 q 597 37 689 103 q 396 -18 522 -18 m 360 1086 l 353 1086 l 435 1185 l 527 1185 l 360 1086 z "},"Û":{"ha":793,"x_min":50,"x_max":747,"o":"m 396 -18 q 199 37 273 -18 q 109 252 109 104 l 109 937 q 101 984 109 968 q 80 1006 93 999 q 50 1016 71 1010 l 50 1034 l 235 1034 l 235 1016 q 205 1006 215 1010 q 185 984 193 999 q 177 937 177 968 l 177 252 q 256 62 177 121 q 427 14 321 14 q 517 23 474 14 q 671 252 671 59 l 671 937 q 663 984 671 968 q 642 1006 655 999 q 612 1016 633 1010 l 612 1034 l 747 1034 l 747 1016 q 718 1006 727 1010 q 697 984 705 999 q 689 937 689 968 l 689 252 q 597 37 689 103 q 396 -18 522 -18 m 465 1086 l 418 1164 l 371 1086 l 350 1093 l 417 1204 l 419 1204 l 487 1093 l 465 1086 z "},"Ü":{"ha":793,"x_min":50,"x_max":747,"o":"m 396 -18 q 199 37 273 -18 q 109 252 109 104 l 109 937 q 101 984 109 968 q 80 1006 93 999 q 50 1016 71 1010 l 50 1034 l 235 1034 l 235 1016 q 205 1006 215 1010 q 185 984 193 999 q 177 937 177 968 l 177 252 q 256 62 177 121 q 427 14 321 14 q 517 23 474 14 q 671 252 671 59 l 671 937 q 663 984 671 968 q 642 1006 655 999 q 612 1016 633 1010 l 612 1034 l 747 1034 l 747 1016 q 718 1006 727 1010 q 697 984 705 999 q 689 937 689 968 l 689 252 q 597 37 689 103 q 396 -18 522 -18 m 380 1086 q 358 1096 367 1086 q 349 1118 349 1105 q 358 1140 349 1131 q 380 1149 367 1149 q 402 1140 393 1149 q 412 1118 412 1131 q 402 1096 412 1105 q 380 1086 393 1086 m 454 1086 q 431 1096 440 1086 q 422 1118 422 1105 q 431 1140 422 1131 q 454 1149 440 1149 q 476 1140 467 1149 q 485 1118 485 1131 q 476 1096 485 1105 q 454 1086 467 1086 z "},"Ý":{"ha":635,"x_min":-25,"x_max":727,"o":"m 448 0 l 264 0 l 264 19 q 294 28 283 24 q 314 50 306 35 q 322 98 322 66 l 322 491 l 77 937 q 27 997 51 983 q -22 1015 3 1011 l -25 1016 l -25 1034 l 171 1034 l 171 1016 q 146 1006 154 1010 q 138 987 138 1001 q 156 937 138 970 l 380 530 l 604 937 q 621 987 621 970 q 613 1006 621 1001 q 589 1016 606 1010 l 589 1034 l 727 1034 l 727 1016 l 724 1015 q 675 997 699 1011 q 625 937 651 983 l 391 511 l 390 98 q 398 51 390 66 q 418 29 406 35 q 448 19 427 24 l 448 0 m 316 1086 l 309 1086 l 391 1185 l 483 1185 l 316 1086 z "},"Þ":{"ha":783,"x_min":58,"x_max":796,"o":"m 184 113 q 306 271 227 203 q 475 397 386 339 q 597 485 541 441 q 689 580 654 530 q 725 692 725 630 q 704 784 725 741 q 639 853 682 827 q 529 880 595 880 l 249 880 q 184 801 184 880 l 184 113 m 243 -136 l 58 -136 l 58 -117 q 60 -116 59 -117 q 87 -107 75 -113 q 116 -38 116 -93 l 116 937 q 88 1006 116 991 q 58 1016 74 1012 l 58 1034 l 242 1034 l 242 1016 q 212 1006 226 1012 q 184 937 184 991 l 184 899 l 544 899 q 690 869 634 899 q 771 794 745 840 q 796 696 796 748 q 754 579 795 632 q 649 480 713 526 q 510 389 584 433 q 287 229 358 296 q 184 17 184 131 l 184 -38 q 192 -85 184 -70 q 243 -117 204 -109 l 243 -136 z "},"ß":{"ha":836,"x_min":39,"x_max":814,"o":"m 550 -18 q 434 2 492 -18 q 336 70 376 23 q 288 196 296 117 l 370 228 l 370 203 q 420 54 370 109 q 547 0 471 0 q 687 43 635 0 q 741 155 739 85 q 715 246 741 208 q 646 313 688 283 q 556 369 604 342 q 463 428 507 396 q 389 502 418 459 q 359 604 359 544 q 370 657 359 633 q 398 700 381 680 q 435 739 415 720 q 473 780 454 758 q 504 828 492 802 q 515 889 515 854 q 496 957 515 928 q 444 1001 476 986 q 374 1017 412 1017 q 246 959 292 1013 q 183 829 201 905 q 165 688 165 752 l 165 98 q 173 51 165 66 q 193 29 181 35 q 224 19 203 24 l 224 0 l 39 0 l 39 19 q 69 28 59 24 q 90 50 81 35 q 98 98 98 66 l 98 688 q 113 818 98 755 q 161 928 129 880 q 369 1034 233 1034 q 484 996 437 1034 q 534 890 530 959 q 522 820 534 851 q 494 764 511 789 q 459 715 477 738 q 426 669 440 691 q 412 623 412 646 q 438 545 412 578 q 505 485 464 511 q 593 433 545 458 q 672 387 633 411 q 744 332 711 362 q 795 263 776 302 q 814 173 814 224 q 780 74 814 117 q 685 6 745 31 q 550 -18 625 -18 z "},"à":{"ha":665,"x_min":18,"x_max":644,"o":"m 229 -18 q 121 5 170 -18 q 45 73 73 28 q 18 178 18 117 q 50 296 18 247 q 136 379 83 345 q 254 436 189 413 q 386 473 319 458 q 511 496 452 487 q 475 666 511 603 q 315 747 429 747 q 225 727 267 747 q 157 668 184 707 q 130 574 130 629 l 131 557 l 54 572 q 136 714 59 662 q 314 767 213 767 q 500 705 429 767 q 583 474 583 632 l 583 98 q 591 51 583 66 q 612 29 599 36 q 644 19 622 24 l 644 0 l 511 0 l 511 270 q 419 73 482 149 q 229 -18 345 -18 m 243 11 q 339 37 297 11 q 414 107 382 64 q 468 202 446 150 q 500 307 489 254 q 511 404 511 359 l 511 477 q 401 456 458 469 q 289 422 343 444 q 190 370 235 401 q 119 294 146 338 q 93 188 93 249 q 114 91 93 130 q 168 32 134 52 q 243 11 202 12 m 373 801 l 366 801 l 199 899 l 290 899 l 373 801 z "},"á":{"ha":665,"x_min":18,"x_max":644,"o":"m 229 -18 q 121 5 170 -18 q 45 73 73 28 q 18 178 18 117 q 50 296 18 247 q 136 379 83 345 q 254 436 189 413 q 386 473 319 458 q 511 496 452 487 q 475 666 511 603 q 315 747 429 747 q 225 727 267 747 q 157 668 184 707 q 130 574 130 629 l 131 557 l 54 572 q 136 714 59 662 q 314 767 213 767 q 500 705 429 767 q 583 474 583 632 l 583 98 q 591 51 583 66 q 612 29 599 36 q 644 19 622 24 l 644 0 l 511 0 l 511 270 q 419 73 482 149 q 229 -18 345 -18 m 243 11 q 339 37 297 11 q 414 107 382 64 q 468 202 446 150 q 500 307 489 254 q 511 404 511 359 l 511 477 q 401 456 458 469 q 289 422 343 444 q 190 370 235 401 q 119 294 146 338 q 93 188 93 249 q 114 91 93 130 q 168 32 134 52 q 243 11 202 12 m 264 801 l 256 801 l 339 899 l 431 899 l 264 801 z "},"â":{"ha":665,"x_min":18,"x_max":644,"o":"m 229 -18 q 121 5 170 -18 q 45 73 73 28 q 18 178 18 117 q 50 296 18 247 q 136 379 83 345 q 254 436 189 413 q 386 473 319 458 q 511 496 452 487 q 475 666 511 603 q 315 747 429 747 q 225 727 267 747 q 157 668 184 707 q 130 574 130 629 l 131 557 l 54 572 q 136 714 59 662 q 314 767 213 767 q 500 705 429 767 q 583 474 583 632 l 583 98 q 591 51 583 66 q 612 29 599 36 q 644 19 622 24 l 644 0 l 511 0 l 511 270 q 419 73 482 149 q 229 -18 345 -18 m 243 11 q 339 37 297 11 q 414 107 382 64 q 468 202 446 150 q 500 307 489 254 q 511 404 511 359 l 511 477 q 401 456 458 469 q 289 422 343 444 q 190 370 235 401 q 119 294 146 338 q 93 188 93 249 q 114 91 93 130 q 168 32 134 52 q 243 11 202 12 m 361 801 l 315 879 l 267 801 l 246 807 l 313 919 l 315 919 l 383 807 l 361 801 z "},"ã":{"ha":665,"x_min":18,"x_max":644,"o":"m 229 -18 q 121 5 170 -18 q 45 73 73 28 q 18 178 18 117 q 50 296 18 247 q 136 379 83 345 q 254 436 189 413 q 386 473 319 458 q 511 496 452 487 q 475 666 511 603 q 315 747 429 747 q 225 727 267 747 q 157 668 184 707 q 130 574 130 629 l 131 557 l 54 572 q 136 714 59 662 q 314 767 213 767 q 500 705 429 767 q 583 474 583 632 l 583 98 q 591 51 583 66 q 612 29 599 36 q 644 19 622 24 l 644 0 l 511 0 l 511 270 q 419 73 482 149 q 229 -18 345 -18 m 243 11 q 339 37 297 11 q 414 107 382 64 q 468 202 446 150 q 500 307 489 254 q 511 404 511 359 l 511 477 q 401 456 458 469 q 289 422 343 444 q 190 370 235 401 q 119 294 146 338 q 93 188 93 249 q 114 91 93 130 q 168 32 134 52 q 243 11 202 12 m 363 801 q 334 807 347 801 q 308 820 320 812 q 283 832 296 827 q 257 838 271 838 q 216 806 232 838 l 216 812 q 230 857 216 839 q 269 874 244 874 q 299 868 286 874 q 325 855 313 862 q 350 843 338 848 q 374 838 361 838 q 414 869 398 838 l 414 865 q 401 820 414 838 q 363 801 389 801 z "},"ä":{"ha":665,"x_min":18,"x_max":644,"o":"m 229 -18 q 121 5 170 -18 q 45 73 73 28 q 18 178 18 117 q 50 296 18 247 q 136 379 83 345 q 254 436 189 413 q 386 473 319 458 q 511 496 452 487 q 475 666 511 603 q 315 747 429 747 q 225 727 267 747 q 157 668 184 707 q 130 574 130 629 l 131 557 l 54 572 q 136 714 59 662 q 314 767 213 767 q 500 705 429 767 q 583 474 583 632 l 583 98 q 591 51 583 66 q 612 29 599 36 q 644 19 622 24 l 644 0 l 511 0 l 511 270 q 419 73 482 149 q 229 -18 345 -18 m 243 11 q 339 37 297 11 q 414 107 382 64 q 468 202 446 150 q 500 307 489 254 q 511 404 511 359 l 511 477 q 401 456 458 469 q 289 422 343 444 q 190 370 235 401 q 119 294 146 338 q 93 188 93 249 q 114 91 93 130 q 168 32 134 52 q 243 11 202 12 m 277 801 q 255 810 264 801 q 246 833 246 819 q 255 855 246 846 q 277 864 264 864 q 300 855 291 864 q 309 833 309 846 q 300 810 309 819 q 277 801 291 801 m 351 801 q 329 810 338 801 q 319 833 319 819 q 329 855 319 846 q 351 864 338 864 q 373 855 364 864 q 382 833 382 846 q 373 810 382 819 q 351 801 364 801 z "},"å":{"ha":665,"x_min":18,"x_max":644,"o":"m 229 -18 q 121 5 170 -18 q 45 73 73 28 q 18 178 18 117 q 50 296 18 247 q 136 379 83 345 q 254 436 189 413 q 386 473 319 458 q 511 496 452 487 q 475 666 511 603 q 315 747 429 747 q 225 727 267 747 q 157 668 184 707 q 130 574 130 629 l 131 557 l 54 572 q 136 714 59 662 q 314 767 213 767 q 500 705 429 767 q 583 474 583 632 l 583 98 q 591 51 583 66 q 612 29 599 36 q 644 19 622 24 l 644 0 l 511 0 l 511 270 q 419 73 482 149 q 229 -18 345 -18 m 243 11 q 339 37 297 11 q 414 107 382 64 q 468 202 446 150 q 500 307 489 254 q 511 404 511 359 l 511 477 q 401 456 458 469 q 289 422 343 444 q 190 370 235 401 q 119 294 146 338 q 93 188 93 249 q 114 91 93 130 q 168 32 134 52 q 243 11 202 12 m 315 801 q 279 816 294 801 q 264 852 264 831 q 279 888 264 873 q 315 903 294 903 q 351 888 336 903 q 366 852 366 873 q 351 816 366 831 q 315 801 336 801 m 315 819 q 338 828 328 819 q 348 852 348 838 q 338 875 348 865 q 315 885 328 885 q 291 875 301 885 q 281 852 281 865 q 291 828 281 838 q 315 819 301 819 z "},"æ":{"ha":1253,"x_min":18,"x_max":1260,"o":"m 243 11 q 339 37 297 11 q 414 107 382 64 q 468 202 446 150 q 500 307 489 254 q 511 404 511 359 l 511 477 q 401 456 458 469 q 289 422 343 444 q 190 370 235 401 q 119 294 146 338 q 93 188 93 249 q 114 91 93 130 q 168 32 134 52 q 243 11 202 12 m 1183 554 q 1048 695 1128 646 q 877 745 968 745 q 715 692 785 745 q 610 554 646 639 l 1183 554 m 911 -18 q 713 35 802 -18 q 571 177 624 88 q 524 299 536 234 q 419 73 479 146 q 229 -18 345 -18 q 121 5 170 -18 q 45 73 73 28 q 18 178 18 117 q 254 436 18 353 q 511 496 356 471 q 315 747 511 747 q 225 727 267 747 q 157 668 184 707 q 130 574 130 629 l 131 557 l 54 572 q 136 714 59 662 q 314 767 213 767 q 500 705 429 767 q 572 576 553 658 q 710 713 623 661 q 911 767 799 767 q 1117 709 1025 767 q 1260 554 1209 650 l 1260 536 l 603 536 q 581 408 581 474 q 609 259 582 331 q 684 129 635 186 q 799 38 733 72 q 941 4 865 4 q 1089 52 1022 4 q 1193 174 1157 100 l 1219 132 q 1084 22 1164 62 q 911 -18 1004 -18 z "},"ç":{"ha":722,"x_min":12,"x_max":713,"o":"m 415 -168 q 372 -163 395 -168 l 365 -130 q 427 -140 400 -140 q 451 -131 444 -140 q 458 -111 458 -121 q 396 -81 458 -81 l 369 -81 l 369 -52 l 399 -18 q 208 35 294 -17 q 65 177 118 88 q 12 374 12 266 q 64 572 12 483 q 206 714 117 661 q 405 767 295 767 q 574 729 496 767 q 707 625 652 691 l 673 562 q 538 697 617 650 q 372 745 460 745 q 218 699 285 745 q 114 575 151 652 q 75 408 76 499 q 103 259 76 331 q 179 129 130 186 q 293 38 227 72 q 435 4 359 4 q 584 52 516 4 q 687 174 651 100 l 713 132 q 578 22 659 62 q 436 -17 512 -12 l 401 -58 l 415 -58 q 468 -73 448 -58 q 488 -109 488 -89 q 471 -150 488 -132 q 415 -168 454 -168 z "},"è":{"ha":747,"x_min":12,"x_max":754,"o":"m 405 -18 q 207 35 296 -18 q 65 177 118 88 q 12 374 12 266 q 63 570 12 481 q 204 713 115 659 q 405 767 293 767 q 611 709 519 767 q 754 554 704 650 l 754 536 l 97 536 q 75 408 75 474 q 103 259 76 331 q 179 129 130 186 q 293 38 227 72 q 435 4 359 4 q 584 52 516 4 q 687 174 651 100 l 713 132 q 578 22 659 62 q 405 -18 498 -18 m 677 554 q 542 695 622 646 q 372 745 462 745 q 209 692 279 745 q 104 554 140 639 l 677 554 m 463 801 l 455 801 l 288 899 l 380 899 l 463 801 z "},"é":{"ha":747,"x_min":12,"x_max":754,"o":"m 405 -18 q 207 35 296 -18 q 65 177 118 88 q 12 374 12 266 q 63 570 12 481 q 204 713 115 659 q 405 767 293 767 q 611 709 519 767 q 754 554 704 650 l 754 536 l 97 536 q 75 408 75 474 q 103 259 76 331 q 179 129 130 186 q 293 38 227 72 q 435 4 359 4 q 584 52 516 4 q 687 174 651 100 l 713 132 q 578 22 659 62 q 405 -18 498 -18 m 677 554 q 542 695 622 646 q 372 745 462 745 q 209 692 279 745 q 104 554 140 639 l 677 554 m 353 801 l 346 801 l 429 899 l 520 899 l 353 801 z "},"ê":{"ha":747,"x_min":12,"x_max":754,"o":"m 405 -18 q 207 35 296 -18 q 65 177 118 88 q 12 374 12 266 q 63 570 12 481 q 204 713 115 659 q 405 767 293 767 q 611 709 519 767 q 754 554 704 650 l 754 536 l 97 536 q 75 408 75 474 q 103 259 76 331 q 179 129 130 186 q 293 38 227 72 q 435 4 359 4 q 584 52 516 4 q 687 174 651 100 l 713 132 q 578 22 659 62 q 405 -18 498 -18 m 677 554 q 542 695 622 646 q 372 745 462 745 q 209 692 279 745 q 104 554 140 639 l 677 554 m 451 801 l 404 879 l 357 801 l 336 807 l 403 919 l 405 919 l 473 807 l 451 801 z "},"ë":{"ha":747,"x_min":12,"x_max":754,"o":"m 405 -18 q 207 35 296 -18 q 65 177 118 88 q 12 374 12 266 q 63 570 12 481 q 204 713 115 659 q 405 767 293 767 q 611 709 519 767 q 754 554 704 650 l 754 536 l 97 536 q 75 408 75 474 q 103 259 76 331 q 179 129 130 186 q 293 38 227 72 q 435 4 359 4 q 584 52 516 4 q 687 174 651 100 l 713 132 q 578 22 659 62 q 405 -18 498 -18 m 677 554 q 542 695 622 646 q 372 745 462 745 q 209 692 279 745 q 104 554 140 639 l 677 554 m 367 801 q 345 810 354 801 q 336 833 336 819 q 345 855 336 846 q 367 864 354 864 q 390 855 380 864 q 399 833 399 846 q 390 810 399 819 q 367 801 380 801 m 441 801 q 418 810 427 801 q 409 833 409 819 q 418 855 409 846 q 441 864 427 864 q 463 855 454 864 q 472 833 472 846 q 463 810 472 819 q 441 801 454 801 z "},"ì":{"ha":250,"x_min":14,"x_max":217,"o":"m 217 0 l 33 0 l 33 19 q 62 29 53 24 q 83 51 75 35 q 91 98 91 66 l 91 574 q 75 634 90 620 q 36 652 59 648 l 33 653 l 33 671 q 83 677 62 671 q 118 699 104 682 q 141 749 132 716 l 159 749 l 159 98 q 166 51 159 66 q 186 29 174 35 q 217 19 197 24 l 217 0 m 189 801 l 181 801 l 14 899 l 106 899 l 189 801 z "},"í":{"ha":250,"x_min":33,"x_max":233,"o":"m 217 0 l 33 0 l 33 19 q 62 29 53 24 q 83 51 75 35 q 91 98 91 66 l 91 574 q 75 634 90 620 q 36 652 59 648 l 33 653 l 33 671 q 83 677 62 671 q 118 699 104 682 q 141 749 132 716 l 159 749 l 159 98 q 166 51 159 66 q 186 29 174 35 q 217 19 197 24 l 217 0 m 66 801 l 58 801 l 141 899 l 233 899 l 66 801 z "},"î":{"ha":250,"x_min":33,"x_max":217,"o":"m 217 0 l 33 0 l 33 19 q 62 29 53 24 q 83 51 75 35 q 91 98 91 66 l 91 574 q 75 634 90 620 q 36 652 59 648 l 33 653 l 33 671 q 83 677 62 671 q 118 699 104 682 q 141 749 132 716 l 159 749 l 159 98 q 166 51 159 66 q 186 29 174 35 q 217 19 197 24 l 217 0 m 168 801 l 121 879 l 73 801 l 52 807 l 119 919 l 121 919 l 189 807 l 168 801 z "},"ï":{"ha":250,"x_min":33,"x_max":217,"o":"m 217 0 l 33 0 l 33 19 q 62 29 53 24 q 83 51 75 35 q 91 98 91 66 l 91 574 q 75 634 90 620 q 36 652 59 648 l 33 653 l 33 671 q 83 677 62 671 q 118 699 104 682 q 141 749 132 716 l 159 749 l 159 98 q 166 51 159 66 q 186 29 174 35 q 217 19 197 24 l 217 0 m 81 801 q 59 810 68 801 q 50 833 50 819 q 59 855 50 846 q 81 864 68 864 q 104 855 95 864 q 113 833 113 846 q 104 810 113 819 q 81 801 95 801 m 155 801 q 133 810 142 801 q 123 833 123 819 q 133 855 123 846 q 155 864 142 864 q 177 855 168 864 q 186 833 186 846 q 177 810 186 819 q 155 801 168 801 z "},"ð":{"ha":781,"x_min":22,"x_max":754,"o":"m 316 3 q 522 141 448 3 q 604 421 581 250 q 612 551 612 487 l 612 608 q 395 745 529 745 q 266 708 322 745 q 172 608 210 670 q 115 471 134 547 q 96 319 96 395 q 120 164 96 237 q 193 48 144 92 q 316 3 241 3 m 316 -18 q 96 100 177 -18 q 22 363 22 208 q 43 510 22 437 q 108 640 65 582 q 216 732 151 698 q 368 767 281 767 q 612 643 524 767 l 612 840 l 277 840 l 277 878 l 610 878 q 595 920 608 909 q 554 939 583 932 l 554 957 q 604 962 583 957 q 662 1034 647 974 l 681 1034 l 681 878 l 754 878 l 754 840 l 681 840 l 680 98 q 710 29 680 43 q 741 19 732 19 l 741 0 l 612 0 l 612 355 q 519 100 583 197 q 316 -18 444 -18 z "},"ñ":{"ha":694,"x_min":41,"x_max":669,"o":"m 226 0 l 41 0 l 41 19 q 71 28 60 24 q 92 50 83 35 q 100 98 100 66 l 100 574 q 92 621 100 606 q 72 643 84 637 q 42 653 62 648 l 42 671 q 92 677 71 671 q 127 700 113 683 q 150 749 141 716 l 168 749 l 168 583 q 213 676 184 635 q 289 742 243 718 q 397 767 334 767 q 502 741 453 767 q 580 657 550 714 q 610 510 610 601 l 610 98 q 618 51 610 66 q 639 29 626 36 q 669 19 648 24 l 669 1 l 484 1 l 484 19 q 513 29 504 24 q 534 51 526 36 q 542 98 542 66 l 542 510 q 517 637 542 587 q 452 711 492 687 q 370 736 413 736 q 214 650 266 736 q 168 471 170 578 l 168 96 q 176 50 168 64 q 195 29 183 35 q 226 19 205 24 l 226 0 m 403 801 q 374 807 387 801 q 348 820 360 812 q 323 832 336 827 q 297 838 311 838 q 256 806 272 838 l 256 812 q 270 857 256 839 q 309 874 284 874 q 339 868 326 874 q 365 855 353 862 q 390 843 378 848 q 414 838 401 838 q 454 869 438 838 l 454 865 q 441 820 454 838 q 403 801 429 801 z "},"ò":{"ha":817,"x_min":12,"x_max":797,"o":"m 404 -18 q 207 35 296 -18 q 64 177 117 88 q 12 374 12 266 q 64 572 12 483 q 207 714 117 661 q 404 767 296 767 q 602 714 513 767 q 744 572 691 661 q 797 374 797 483 q 744 177 797 266 q 602 35 691 88 q 404 -18 513 -18 m 429 4 q 582 45 514 4 q 695 170 656 92 q 734 342 733 248 q 682 545 734 444 q 547 692 629 640 q 374 745 465 744 q 226 703 297 745 q 115 584 155 659 q 75 423 75 510 q 127 203 75 301 q 260 57 179 109 q 429 4 341 4 m 463 801 l 455 801 l 288 899 l 380 899 l 463 801 z "},"ó":{"ha":817,"x_min":12,"x_max":797,"o":"m 404 -18 q 207 35 296 -18 q 64 177 117 88 q 12 374 12 266 q 64 572 12 483 q 207 714 117 661 q 404 767 296 767 q 602 714 513 767 q 744 572 691 661 q 797 374 797 483 q 744 177 797 266 q 602 35 691 88 q 404 -18 513 -18 m 429 4 q 582 45 514 4 q 695 170 656 92 q 734 342 733 248 q 682 545 734 444 q 547 692 629 640 q 374 745 465 744 q 226 703 297 745 q 115 584 155 659 q 75 423 75 510 q 127 203 75 301 q 260 57 179 109 q 429 4 341 4 m 353 801 l 346 801 l 429 899 l 520 899 l 353 801 z "},"ô":{"ha":817,"x_min":12,"x_max":797,"o":"m 404 -18 q 207 35 296 -18 q 64 177 117 88 q 12 374 12 266 q 64 572 12 483 q 207 714 117 661 q 404 767 296 767 q 602 714 513 767 q 744 572 691 661 q 797 374 797 483 q 744 177 797 266 q 602 35 691 88 q 404 -18 513 -18 m 429 4 q 582 45 514 4 q 695 170 656 92 q 734 342 733 248 q 682 545 734 444 q 547 692 629 640 q 374 745 465 744 q 226 703 297 745 q 115 584 155 659 q 75 423 75 510 q 127 203 75 301 q 260 57 179 109 q 429 4 341 4 m 451 801 l 404 879 l 357 801 l 336 807 l 403 919 l 405 919 l 473 807 l 451 801 z "},"õ":{"ha":817,"x_min":12,"x_max":797,"o":"m 404 -18 q 207 35 296 -18 q 64 177 117 88 q 12 374 12 266 q 64 572 12 483 q 207 714 117 661 q 404 767 296 767 q 602 714 513 767 q 744 572 691 661 q 797 374 797 483 q 744 177 797 266 q 602 35 691 88 q 404 -18 513 -18 m 429 4 q 582 45 514 4 q 695 170 656 92 q 734 342 733 248 q 682 545 734 444 q 547 692 629 640 q 374 745 465 744 q 226 703 297 745 q 115 584 155 659 q 75 423 75 510 q 127 203 75 301 q 260 57 179 109 q 429 4 341 4 m 452 801 q 423 807 437 801 q 397 820 410 812 q 373 832 385 827 q 347 838 361 838 q 306 806 321 838 l 306 812 q 320 857 306 839 q 358 874 334 874 q 389 868 375 874 q 415 855 402 862 q 439 843 427 848 q 464 838 451 838 q 503 869 488 838 l 503 865 q 491 820 503 838 q 452 801 478 801 z "},"ö":{"ha":817,"x_min":12,"x_max":797,"o":"m 404 -18 q 207 35 296 -18 q 64 177 117 88 q 12 374 12 266 q 64 572 12 483 q 207 714 117 661 q 404 767 296 767 q 602 714 513 767 q 744 572 691 661 q 797 374 797 483 q 744 177 797 266 q 602 35 691 88 q 404 -18 513 -18 m 429 4 q 582 45 514 4 q 695 170 656 92 q 734 342 733 248 q 682 545 734 444 q 547 692 629 640 q 374 745 465 744 q 226 703 297 745 q 115 584 155 659 q 75 423 75 510 q 127 203 75 301 q 260 57 179 109 q 429 4 341 4 m 367 801 q 345 810 354 801 q 336 833 336 819 q 345 855 336 846 q 367 864 354 864 q 390 855 380 864 q 399 833 399 846 q 390 810 399 819 q 367 801 380 801 m 441 801 q 418 810 427 801 q 409 833 409 819 q 418 855 409 846 q 441 864 427 864 q 463 855 454 864 q 472 833 472 846 q 463 810 472 819 q 441 801 454 801 z "},"÷":{"ha":405,"x_min":34,"x_max":371,"o":"m 371 492 l 34 492 l 34 543 l 371 543 l 371 492 m 203 348 q 173 360 185 348 q 161 390 161 372 q 173 419 161 407 q 203 431 185 431 q 232 419 220 431 q 244 390 244 407 q 232 360 244 372 q 203 348 220 348 m 203 603 q 173 615 185 603 q 161 645 161 627 q 173 674 161 662 q 203 686 185 686 q 232 674 220 686 q 244 645 244 662 q 232 615 244 627 q 203 603 220 603 z "},"ø":{"ha":817,"x_min":12,"x_max":797,"o":"m 429 4 q 582 45 513 4 q 695 170 656 92 q 734 342 733 248 q 682 545 734 444 q 555 686 631 635 l 290 39 q 429 4 357 4 m 252 62 l 517 709 q 374 745 449 744 q 226 703 297 745 q 115 584 155 659 q 75 423 75 510 q 127 203 75 300 q 252 62 176 114 m 281 -142 l 117 -142 l 117 -123 q 167 -104 145 -119 q 208 -45 189 -90 l 235 20 q 64 177 127 73 q 12 374 12 266 q 64 572 12 483 q 207 714 117 661 q 404 767 296 767 q 533 746 473 767 l 553 794 q 564 838 564 823 q 553 863 564 857 q 527 873 542 870 l 527 892 l 690 892 l 690 873 q 642 854 658 865 q 600 794 619 840 l 573 730 q 744 572 682 677 q 797 374 797 483 q 744 177 797 266 q 602 35 691 88 q 404 -18 513 -18 q 275 3 336 -18 l 255 -45 q 244 -89 244 -73 q 255 -114 244 -107 q 279 -123 265 -120 l 281 -123 l 281 -142 z "},"ù":{"ha":693,"x_min":18,"x_max":645,"o":"m 289 -18 q 184 9 233 -18 q 106 92 136 35 q 76 240 76 149 l 76 651 q 68 698 76 683 q 47 720 60 713 q 18 730 38 725 l 18 749 l 202 749 l 202 730 q 172 720 182 725 q 152 698 159 713 q 144 651 144 683 l 144 240 q 169 113 144 163 q 234 38 194 62 q 317 14 273 14 q 477 109 425 14 q 518 300 518 186 l 518 651 q 510 698 518 683 q 490 720 503 713 q 460 730 480 725 l 460 749 l 645 749 l 645 730 q 615 720 625 725 q 594 698 602 713 q 587 651 587 683 l 587 98 q 594 51 587 66 q 614 29 602 35 q 645 19 624 24 l 645 0 l 518 0 l 518 168 q 474 74 503 116 q 398 7 444 33 q 289 -18 353 -18 m 390 801 l 382 801 l 216 899 l 307 899 l 390 801 z "},"ú":{"ha":693,"x_min":18,"x_max":645,"o":"m 289 -18 q 184 9 233 -18 q 106 92 136 35 q 76 240 76 149 l 76 651 q 68 698 76 683 q 47 720 60 713 q 18 730 38 725 l 18 749 l 202 749 l 202 730 q 172 720 182 725 q 152 698 159 713 q 144 651 144 683 l 144 240 q 169 113 144 163 q 234 38 194 62 q 317 14 273 14 q 477 109 425 14 q 518 300 518 186 l 518 651 q 510 698 518 683 q 490 720 503 713 q 460 730 480 725 l 460 749 l 645 749 l 645 730 q 615 720 625 725 q 594 698 602 713 q 587 651 587 683 l 587 98 q 594 51 587 66 q 614 29 602 35 q 645 19 624 24 l 645 0 l 518 0 l 518 168 q 474 74 503 116 q 398 7 444 33 q 289 -18 353 -18 m 281 801 l 273 801 l 356 899 l 448 899 l 281 801 z "},"û":{"ha":693,"x_min":18,"x_max":645,"o":"m 289 -18 q 184 9 233 -18 q 106 92 136 35 q 76 240 76 149 l 76 651 q 68 698 76 683 q 47 720 60 713 q 18 730 38 725 l 18 749 l 202 749 l 202 730 q 172 720 182 725 q 152 698 159 713 q 144 651 144 683 l 144 240 q 169 113 144 163 q 234 38 194 62 q 317 14 273 14 q 477 109 425 14 q 518 300 518 186 l 518 651 q 510 698 518 683 q 490 720 503 713 q 460 730 480 725 l 460 749 l 645 749 l 645 730 q 615 720 625 725 q 594 698 602 713 q 587 651 587 683 l 587 98 q 594 51 587 66 q 614 29 602 35 q 645 19 624 24 l 645 0 l 518 0 l 518 168 q 474 74 503 116 q 398 7 444 33 q 289 -18 353 -18 m 378 801 l 332 879 l 284 801 l 263 807 l 330 919 l 332 919 l 400 807 l 378 801 z "},"ü":{"ha":693,"x_min":18,"x_max":645,"o":"m 289 -18 q 184 9 233 -18 q 106 92 136 35 q 76 240 76 149 l 76 651 q 68 698 76 683 q 47 720 60 713 q 18 730 38 725 l 18 749 l 202 749 l 202 730 q 172 720 182 725 q 152 698 159 713 q 144 651 144 683 l 144 240 q 169 113 144 163 q 234 38 194 62 q 317 14 273 14 q 477 109 425 14 q 518 300 518 186 l 518 651 q 510 698 518 683 q 490 720 503 713 q 460 730 480 725 l 460 749 l 645 749 l 645 730 q 615 720 625 725 q 594 698 602 713 q 587 651 587 683 l 587 98 q 594 51 587 66 q 614 29 602 35 q 645 19 624 24 l 645 0 l 518 0 l 518 168 q 474 74 503 116 q 398 7 444 33 q 289 -18 353 -18 m 294 801 q 272 810 281 801 q 263 833 263 819 q 272 855 263 846 q 294 864 281 864 q 317 855 308 864 q 326 833 326 846 q 317 810 326 819 q 294 801 308 801 m 368 801 q 346 810 355 801 q 336 833 336 819 q 346 855 336 846 q 368 864 355 864 q 390 855 381 864 q 399 833 399 846 q 390 810 399 819 q 368 801 381 801 z "},"ý":{"ha":662,"x_min":-26,"x_max":687,"o":"m 155 -206 l 152 -206 q 96 -192 125 -206 l 121 -136 q 178 -160 151 -160 q 275 -83 245 -156 l 319 25 l 64 651 q 23 711 45 697 q -23 730 1 726 l -26 730 l -26 749 l 165 749 l 165 730 q 138 720 146 725 q 127 695 127 713 q 138 651 127 680 l 357 116 l 576 651 q 587 695 587 680 q 577 720 587 713 q 550 730 569 725 l 550 749 l 687 749 l 687 730 l 684 730 q 638 711 660 726 q 596 651 616 697 l 293 -89 q 239 -169 275 -135 q 155 -206 204 -203 m 279 801 l 272 801 l 355 899 l 446 899 l 279 801 z "},"þ":{"ha":772,"x_min":27,"x_max":743,"o":"m 212 -286 l 27 -286 l 27 -267 q 57 -256 47 -262 q 78 -235 70 -250 q 85 -188 85 -220 l 85 859 q 69 919 85 905 q 31 937 53 933 l 28 938 l 28 956 q 78 962 57 956 q 113 984 98 967 q 136 1034 127 1001 l 154 1034 l 154 644 q 259 736 197 705 q 397 767 321 767 q 550 731 485 767 q 659 636 616 696 q 722 504 701 577 q 743 354 743 430 q 724 216 743 283 q 668 97 705 150 q 576 13 631 44 q 450 -18 522 -18 q 246 99 323 -18 q 154 353 183 195 l 153 -188 q 161 -235 153 -220 q 181 -256 169 -250 q 212 -267 191 -261 l 212 -286 m 450 3 q 572 47 523 3 q 645 161 621 90 q 669 313 669 231 q 650 466 669 389 q 594 605 631 543 q 500 707 556 668 q 370 745 444 745 q 154 609 237 745 l 154 488 q 164 374 154 437 q 197 246 175 311 q 254 126 219 181 q 337 37 289 71 q 450 3 386 3 z "},"ÿ":{"ha":662,"x_min":-26,"x_max":687,"o":"m 155 -206 l 152 -206 q 96 -192 125 -206 l 121 -136 q 178 -160 151 -160 q 275 -83 245 -156 l 319 25 l 64 651 q 23 711 45 697 q -23 730 1 726 l -26 730 l -26 749 l 165 749 l 165 730 q 138 720 146 725 q 127 695 127 713 q 138 651 127 680 l 357 116 l 576 651 q 587 695 587 680 q 577 720 587 713 q 550 730 569 725 l 550 749 l 687 749 l 687 730 l 684 730 q 638 711 660 726 q 596 651 616 697 l 293 -89 q 239 -169 275 -135 q 155 -206 204 -203 m 315 801 q 293 810 302 801 q 284 833 284 819 q 293 855 284 846 q 315 864 302 864 q 338 855 329 864 q 347 833 347 846 q 338 810 347 819 q 315 801 329 801 m 389 801 q 367 810 376 801 q 357 833 357 819 q 367 855 357 846 q 389 864 376 864 q 411 855 402 864 q 420 833 420 846 q 411 810 420 819 q 389 801 402 801 z "},"ı":{"ha":250,"x_min":33,"x_max":217,"o":"m 217 0 l 33 0 l 33 19 q 62 29 53 24 q 83 51 75 35 q 91 98 91 66 l 91 574 q 75 634 90 620 q 36 652 59 648 l 33 653 l 33 671 q 83 677 62 671 q 118 699 104 682 q 141 749 132 716 l 159 749 l 159 98 q 166 51 159 66 q 186 29 174 35 q 217 19 197 24 l 217 0 z "},"̀":{"ha":242,"x_min":34,"x_max":208,"o":"m 208 801 l 201 801 l 34 899 l 125 899 l 208 801 z "},"́":{"ha":242,"x_min":34,"x_max":208,"o":"m 41 801 l 34 801 l 117 899 l 208 899 l 41 801 z "},"̂":{"ha":205,"x_min":34,"x_max":171,"o":"m 149 801 l 102 879 l 55 801 l 34 807 l 101 919 l 103 919 l 171 807 l 149 801 z "},"̃":{"ha":265,"x_min":34,"x_max":231,"o":"m 180 801 q 151 807 165 801 q 125 820 138 812 q 101 832 113 827 q 75 838 89 838 q 34 806 50 838 l 34 812 q 48 857 34 839 q 86 874 62 874 q 117 868 103 874 q 143 855 130 862 q 167 843 155 848 q 192 838 179 838 q 231 869 216 838 l 231 865 q 219 820 231 838 q 180 801 206 801 z "},"̄":{"ha":237,"x_min":34,"x_max":203,"o":"m 203 801 l 34 801 l 34 823 l 203 823 l 203 801 z "},"̇":{"ha":131,"x_min":34,"x_max":97,"o":"m 66 801 q 43 810 52 801 q 34 833 34 819 q 43 855 34 846 q 66 864 52 864 q 88 855 79 864 q 97 833 97 846 q 88 810 97 819 q 66 801 79 801 z "},"̈":{"ha":204,"x_min":34,"x_max":170,"o":"m 65 801 q 43 810 52 801 q 34 833 34 819 q 43 855 34 846 q 65 864 52 864 q 88 855 79 864 q 97 833 97 846 q 88 810 97 819 q 65 801 79 801 m 139 801 q 116 810 125 801 q 107 833 107 819 q 116 855 107 846 q 139 864 125 864 q 161 855 152 864 q 170 833 170 846 q 161 810 170 819 q 139 801 152 801 z "},"̊":{"ha":170,"x_min":34,"x_max":136,"o":"m 85 801 q 49 816 64 801 q 34 852 34 831 q 49 888 34 873 q 85 903 64 903 q 121 888 106 903 q 136 852 136 873 q 121 816 136 831 q 85 801 106 801 m 85 819 q 108 828 98 819 q 118 852 118 838 q 108 875 118 865 q 85 885 98 885 q 61 875 71 885 q 52 852 52 865 q 61 828 52 838 q 85 819 71 819 z "},"̌":{"ha":204,"x_min":34,"x_max":170,"o":"m 103 801 l 101 801 l 34 912 l 55 919 l 102 841 l 149 919 l 170 912 l 103 801 z "},"̧":{"ha":191,"x_min":34,"x_max":157,"o":"m 84 -136 q 41 -131 64 -136 l 34 -98 q 96 -109 69 -109 q 120 -99 113 -109 q 127 -79 127 -90 q 65 -50 127 -50 l 38 -50 l 38 -20 l 88 37 l 109 19 l 70 -26 l 84 -26 q 137 -41 117 -26 q 157 -77 157 -57 q 140 -118 157 -100 q 84 -136 123 -136 z "},"–":{"ha":450,"x_min":34,"x_max":416,"o":"m 416 306 l 34 306 l 34 344 l 416 344 l 416 306 z "},"—":{"ha":832,"x_min":34,"x_max":798,"o":"m 798 306 l 34 306 l 34 344 l 798 344 l 798 306 z "},"‘":{"ha":136,"x_min":34,"x_max":102,"o":"m 69 898 q 42 911 51 898 q 34 943 34 925 q 81 1034 34 1013 l 88 1024 q 49 959 49 1002 l 49 957 q 69 964 57 964 q 92 954 83 964 q 102 930 102 944 q 92 907 102 917 q 69 898 83 898 z "},"’":{"ha":135,"x_min":34,"x_max":101,"o":"m 54 898 l 47 908 q 87 973 87 929 l 87 975 q 66 968 78 968 q 43 978 53 968 q 34 1001 34 988 q 43 1024 34 1015 q 66 1034 53 1034 q 93 1021 85 1034 q 101 988 101 1007 q 54 898 101 920 z "},"‚":{"ha":135,"x_min":34,"x_max":101,"o":"m 54 -71 l 47 -60 q 87 5 87 -39 l 87 7 q 66 0 78 0 q 43 10 53 0 q 34 33 34 20 q 43 57 34 47 q 66 66 53 66 q 93 53 85 66 q 101 20 101 39 q 54 -71 101 -47 z "},"“":{"ha":231,"x_min":34,"x_max":197,"o":"m 69 898 q 42 911 51 898 q 34 943 34 925 q 81 1034 34 1013 l 88 1024 q 49 959 49 1002 l 49 957 q 69 964 57 964 q 92 954 83 964 q 102 930 102 944 q 92 907 102 917 q 69 898 83 898 m 164 898 q 137 911 146 898 q 129 943 129 925 q 176 1034 129 1013 l 183 1024 q 144 959 144 1002 l 144 957 q 164 964 152 964 q 187 954 178 964 q 197 930 197 944 q 187 907 197 917 q 164 898 178 898 z "},"”":{"ha":229,"x_min":34,"x_max":195,"o":"m 54 898 l 47 908 q 87 973 87 929 l 87 975 q 66 968 78 968 q 43 978 53 968 q 34 1001 34 988 q 43 1024 34 1015 q 66 1034 53 1034 q 93 1021 85 1034 q 101 988 101 1007 q 54 898 101 920 m 149 898 l 142 908 q 181 973 181 929 l 181 975 q 161 968 172 968 q 137 978 146 968 q 128 1001 128 988 q 137 1024 128 1015 q 161 1034 146 1034 q 187 1021 179 1034 q 195 988 195 1007 q 149 898 195 920 z "},"„":{"ha":229,"x_min":34,"x_max":195,"o":"m 54 -68 l 47 -58 q 87 7 87 -37 l 87 9 q 66 3 78 3 q 43 12 53 3 q 34 35 34 22 q 43 59 34 49 q 66 68 53 68 q 93 55 85 68 q 101 22 101 41 q 54 -68 101 -46 m 149 -68 l 142 -58 q 181 7 181 -37 l 181 9 q 161 3 172 3 q 137 12 146 3 q 128 35 128 22 q 137 59 128 49 q 161 68 146 68 q 187 55 179 68 q 195 22 195 41 q 149 -68 195 -46 z "},"†":{"ha":486,"x_min":34,"x_max":452,"o":"m 335 0 l 150 0 l 150 19 q 180 29 170 24 q 200 51 193 35 q 208 98 208 66 l 208 827 l 34 827 l 34 846 l 208 846 l 208 937 q 200 984 208 968 q 180 1006 193 999 q 150 1016 170 1010 l 150 1034 l 335 1034 l 335 1016 q 304 1006 314 1010 q 284 984 292 999 q 277 937 277 968 l 277 846 l 452 846 l 452 827 l 277 827 l 277 98 q 284 51 277 66 q 304 29 292 35 q 335 19 314 24 l 335 0 z "},"‡":{"ha":486,"x_min":34,"x_max":452,"o":"m 335 0 l 151 0 l 151 19 q 181 29 171 24 q 201 51 193 35 q 209 98 209 66 l 209 189 l 34 189 l 34 207 l 209 207 l 209 827 l 34 827 l 34 846 l 209 846 l 209 937 q 201 984 209 968 q 180 1006 193 999 q 151 1016 171 1010 l 151 1034 l 335 1034 l 335 1016 q 304 1006 315 1010 q 284 984 292 999 q 277 937 277 968 l 277 846 l 452 846 l 452 827 l 277 827 l 277 207 l 452 207 l 452 189 l 277 189 l 277 98 q 284 51 277 66 q 305 29 292 35 q 335 19 315 24 l 335 0 z "},"•":{"ha":694,"x_min":67,"x_max":233,"o":"m 151 404 q 92 428 116 404 q 67 486 67 452 q 92 545 67 521 q 151 569 116 569 q 209 545 184 569 q 233 486 233 521 q 209 428 233 452 q 151 404 184 404 z "},"…":{"ha":1389,"x_min":34,"x_max":1044,"o":"m 75 0 q 46 12 58 0 q 34 42 34 24 q 46 71 34 59 q 75 83 58 83 q 105 71 93 83 q 117 42 117 59 q 105 12 117 24 q 75 0 93 0 m 538 0 q 509 12 522 0 q 497 42 497 24 q 509 71 497 59 q 538 83 522 83 q 568 71 556 83 q 581 42 581 59 q 568 12 581 24 q 538 0 556 0 m 1002 0 q 972 12 985 0 q 960 42 960 24 q 972 71 960 59 q 1002 83 985 83 q 1031 71 1019 83 q 1044 42 1044 59 q 1031 12 1044 24 q 1002 0 1019 0 z "},"‹":{"ha":202,"x_min":34,"x_max":168,"o":"m 133 380 l 34 517 l 133 654 l 168 618 l 96 517 l 168 416 l 133 380 z "},"›":{"ha":202,"x_min":34,"x_max":168,"o":"m 69 380 l 34 416 l 105 517 l 34 618 l 69 654 l 168 517 l 69 380 z "},"⁄":{"ha":667,"x_min":34,"x_max":633,"o":"m 224 0 l 34 0 l 34 19 l 38 20 q 83 38 62 24 q 125 98 105 52 l 469 937 q 480 981 480 965 q 470 1005 480 999 q 443 1016 462 1010 l 443 1034 l 633 1034 l 633 1016 l 631 1015 q 584 997 606 1011 q 543 937 562 983 q 198 98 370 517 q 186 54 186 69 q 197 29 186 35 q 224 19 205 24 l 224 0 z "},"∕":{"ha":667,"x_min":34,"x_max":633,"o":"m 224 0 l 34 0 l 34 19 l 38 20 q 83 38 62 24 q 125 98 105 52 l 469 937 q 480 981 480 965 q 470 1005 480 999 q 443 1016 462 1010 l 443 1034 l 633 1034 l 633 1016 l 631 1015 q 584 997 606 1011 q 543 937 562 983 q 198 98 370 517 q 186 54 186 69 q 197 29 186 35 q 224 19 205 24 l 224 0 z "},"₣":{"ha":743,"x_min":34,"x_max":709,"o":"m 336 0 l 151 0 l 151 19 q 182 29 161 19 q 210 98 210 43 l 210 368 l 34 368 l 34 386 l 210 386 l 210 937 q 202 984 210 968 q 151 1016 191 1006 l 151 1034 l 687 1034 l 709 958 l 690 958 q 589 1016 677 1016 l 344 1016 q 277 937 277 1016 l 277 749 l 551 749 l 551 730 l 277 730 l 277 386 l 452 386 l 452 368 l 277 368 l 277 98 q 306 29 277 43 q 336 19 326 19 l 336 0 z "},"₤":{"ha":669,"x_min":34,"x_max":635,"o":"m 602 0 l 35 0 l 35 19 q 172 243 163 109 l 62 243 l 62 262 l 172 262 q 168 309 172 286 l 62 309 l 62 328 l 164 328 q 106 477 153 379 q 57 590 80 532 q 34 720 34 648 q 106 954 34 865 q 342 1053 186 1053 q 468 1029 407 1053 q 574 959 530 1006 q 635 841 619 912 l 538 826 q 509 944 538 898 q 434 1013 479 990 q 339 1035 389 1035 q 206 999 256 1035 q 132 902 156 962 q 107 768 109 842 q 117 677 107 721 q 177 510 133 610 q 239 328 229 392 l 480 328 l 480 309 l 241 309 q 242 275 242 292 l 241 262 l 480 262 l 480 243 l 239 243 q 71 19 220 115 l 504 19 q 604 77 591 19 l 623 77 l 602 0 z "},"₧":{"ha":1560,"x_min":34,"x_max":1526,"o":"m 201 0 l 34 0 l 34 19 q 62 29 52 24 q 79 50 72 35 q 86 98 86 66 l 86 937 q 79 984 86 968 q 61 1006 73 999 q 34 1016 52 1010 l 34 1034 l 471 1034 q 603 1005 553 1034 q 675 930 652 976 q 699 832 699 884 q 661 715 697 768 q 566 615 625 662 q 441 524 508 569 q 335 448 387 488 q 240 365 283 409 q 173 268 198 320 q 147 153 147 216 l 147 98 q 154 51 147 66 q 173 30 161 36 q 197 20 184 23 l 201 19 l 201 0 m 148 248 q 258 407 186 339 q 410 533 330 475 q 519 621 469 576 q 603 715 570 665 q 635 828 635 766 q 615 919 635 876 q 557 989 596 962 q 458 1016 518 1016 l 206 1016 q 161 992 174 1016 q 148 937 148 969 l 148 248 m 924 -18 q 821 30 852 -18 q 791 167 791 77 l 790 651 q 784 707 790 690 q 765 727 778 723 q 732 730 752 730 l 732 749 q 840 844 824 749 l 858 844 l 858 749 l 982 749 l 982 730 l 858 730 l 859 165 q 864 86 859 123 q 889 26 870 49 q 947 3 907 3 q 976 7 960 3 l 976 -14 q 924 -18 947 -18 m 1261 -18 q 1145 2 1202 -18 q 1047 70 1087 23 q 1000 196 1007 117 l 1081 228 l 1080 205 q 1131 55 1080 109 q 1259 0 1181 0 q 1398 43 1345 0 q 1453 155 1451 85 q 1425 245 1453 208 q 1354 313 1398 283 q 1261 370 1311 342 q 1165 430 1211 398 q 1088 505 1118 462 q 1059 608 1059 547 q 1083 686 1059 650 q 1153 745 1108 722 q 1261 767 1198 767 q 1381 735 1326 767 q 1460 634 1436 704 l 1396 601 q 1375 686 1394 653 q 1324 734 1355 719 q 1259 749 1293 749 q 1188 731 1218 749 q 1141 684 1158 713 q 1124 623 1124 656 q 1149 545 1124 578 q 1216 485 1175 511 q 1304 433 1257 458 q 1384 387 1345 411 q 1455 332 1423 362 q 1507 263 1487 302 q 1526 173 1526 224 q 1491 74 1526 117 q 1395 6 1455 31 q 1261 -18 1335 -18 z "},"€":{"ha":982,"x_min":-33,"x_max":991,"o":"m 557 -18 q 288 54 410 -18 q 95 248 167 126 q 24 474 33 351 l -33 474 l -33 492 l 23 492 q 22 517 22 505 q 23 540 22 529 l -33 540 l -33 558 l 24 558 q 95 787 33 682 q 288 980 167 908 q 557 1053 410 1053 q 796 997 687 1053 q 980 846 905 941 l 945 764 q 754 958 869 890 q 514 1026 638 1026 q 304 969 406 1026 q 144 797 199 905 q 89 563 89 689 l 89 558 l 852 558 l 852 540 l 90 540 q 94 492 90 516 l 852 492 l 852 474 l 96 474 q 163 282 113 373 q 356 80 238 151 q 600 8 474 8 q 821 65 724 9 q 975 232 919 122 l 991 191 q 813 36 919 90 q 557 -18 708 -18 z "},"№":{"ha":1221,"x_min":34,"x_max":1187,"o":"m 680 0 l 487 0 l 487 19 l 490 20 q 513 29 503 23 q 523 52 523 35 q 509 98 523 67 l 128 937 q 113 965 121 954 q 111 937 111 954 l 111 98 q 118 51 111 66 q 138 29 126 35 q 169 19 148 24 l 169 0 l 34 0 l 34 19 q 64 28 54 24 q 84 50 76 35 q 92 98 92 66 l 92 937 q 84 984 92 968 q 64 1006 77 999 q 34 1016 54 1010 l 34 1034 l 227 1034 l 227 1016 q 201 1006 209 1010 q 191 983 191 1000 q 205 937 191 967 l 586 98 q 601 69 593 81 q 604 98 604 81 l 604 937 q 596 984 604 968 q 575 1006 588 999 q 545 1016 566 1010 l 545 1034 l 680 1034 l 680 1016 q 650 1006 660 1010 q 630 984 637 999 q 622 937 622 968 l 622 98 q 630 51 622 66 q 650 29 637 35 q 680 19 659 24 l 680 0 m 957 517 q 842 553 894 517 q 759 651 789 590 q 728 785 728 712 q 759 918 728 857 q 842 1016 789 979 q 957 1053 894 1053 q 1073 1016 1021 1053 q 1156 918 1124 979 q 1187 785 1187 857 q 1156 651 1187 712 q 1073 553 1124 590 q 957 517 1021 517 m 970 551 q 1043 572 1013 551 q 1090 626 1072 593 q 1116 697 1108 659 q 1124 767 1124 734 q 1113 846 1124 803 q 1078 928 1101 890 q 1021 992 1055 967 q 943 1018 987 1018 q 872 998 901 1018 q 825 945 843 977 q 799 877 807 913 q 790 807 790 840 q 801 727 790 771 q 835 643 812 682 q 891 577 857 603 q 970 551 925 551 m 1148 410 l 766 410 l 766 460 l 1148 460 l 1148 410 z "},"™":{"ha":1172,"x_min":34,"x_max":1138,"o":"m 1138 373 l 1019 373 l 1019 385 l 1021 386 q 1046 396 1035 388 q 1057 435 1057 405 q 1056 989 1057 972 q 1047 972 1051 982 l 775 373 l 762 373 l 489 972 q 479 991 484 983 q 478 435 478 983 q 488 397 478 406 q 513 386 498 389 l 515 385 l 515 373 l 429 373 l 429 385 l 431 386 q 456 396 445 388 q 467 435 467 405 l 467 972 q 456 1011 467 1003 q 431 1023 445 1020 l 429 1023 l 429 1035 l 553 1035 l 553 1023 q 536 1017 543 1021 q 530 1002 530 1013 q 538 972 530 992 l 786 427 l 1034 972 q 1042 1002 1042 992 q 1036 1017 1042 1013 q 1019 1023 1029 1021 l 1019 1035 l 1138 1035 l 1138 1023 l 1136 1023 q 1111 1011 1122 1020 q 1101 972 1101 1003 l 1101 435 q 1111 397 1101 406 q 1135 386 1121 389 l 1138 385 l 1138 373 m 275 373 l 157 373 l 157 385 l 159 386 q 183 396 173 388 q 194 436 194 405 l 194 1023 l 110 1023 q 45 986 54 1023 l 34 986 l 47 1035 l 384 1035 l 397 986 l 386 986 q 321 1023 377 1023 l 237 1023 l 237 436 q 248 396 237 405 q 273 386 258 388 l 275 385 l 275 373 z "},"−":{"ha":405,"x_min":34,"x_max":371,"o":"m 371 492 l 34 492 l 34 543 l 371 543 l 371 492 z "},"≈":{"ha":454,"x_min":34,"x_max":420,"o":"m 321 325 q 263 336 290 325 q 213 361 237 347 q 164 386 189 375 q 113 396 140 396 q 34 336 66 396 l 34 343 q 61 433 34 397 q 137 469 89 469 q 196 457 170 469 q 247 431 223 445 q 294 407 271 417 q 342 397 317 397 q 420 457 388 397 l 420 449 q 395 361 420 397 q 321 325 371 325 m 321 181 q 263 192 290 181 q 213 217 237 203 q 164 242 189 231 q 113 252 140 252 q 34 192 66 252 l 34 199 q 61 289 34 254 q 137 325 89 325 q 196 313 170 325 q 247 287 223 301 q 294 263 271 273 q 342 253 317 253 q 420 313 388 253 l 420 305 q 395 217 420 254 q 321 181 371 181 z "},"≤":{"ha":416,"x_min":34,"x_max":382,"o":"m 357 157 l 34 343 l 34 374 l 357 560 l 382 517 l 109 358 l 382 200 l 357 157 m 371 0 l 34 0 l 34 50 l 371 50 l 371 0 z "},"≥":{"ha":416,"x_min":34,"x_max":382,"o":"m 59 157 l 34 200 l 309 358 l 34 517 l 59 560 l 382 374 l 382 343 l 59 157 m 371 0 l 34 0 l 34 50 l 371 50 l 371 0 z "},"⁰":{"ha":527,"x_min":34,"x_max":493,"o":"m 263 517 q 148 553 200 517 q 65 651 96 590 q 34 785 34 712 q 65 918 34 857 q 148 1016 96 979 q 263 1053 200 1053 q 379 1016 327 1053 q 462 918 431 979 q 493 785 493 857 q 462 651 493 712 q 379 553 431 590 q 263 517 327 517 m 277 551 q 349 572 319 551 q 396 626 378 593 q 422 697 414 659 q 431 767 431 734 q 419 846 431 803 q 385 928 408 890 q 328 992 361 967 q 249 1018 294 1018 q 178 998 207 1018 q 131 945 149 977 q 105 877 113 913 q 96 807 96 840 q 107 727 96 771 q 141 643 119 682 q 197 577 163 603 q 277 551 231 551 z "},"¹":{"ha":196,"x_min":34,"x_max":162,"o":"m 162 516 l 38 516 l 38 544 l 39 544 q 62 552 57 548 q 68 574 68 557 l 68 955 q 34 945 60 952 l 34 979 q 77 1000 64 988 q 97 1034 91 1013 l 132 1034 l 132 571 q 137 553 132 557 q 161 544 142 548 l 162 544 l 162 516 z "},"²":{"ha":418,"x_min":34,"x_max":385,"o":"m 367 526 l 35 526 l 35 572 q 58 655 35 618 q 116 725 81 692 q 189 788 151 758 q 249 838 221 813 q 294 889 276 863 q 311 944 311 916 q 296 987 311 970 q 256 1013 281 1004 q 205 1022 232 1022 q 160 1012 180 1022 q 127 980 140 1002 q 115 918 115 957 l 34 930 q 100 1024 51 995 q 205 1053 149 1053 q 288 1039 250 1053 q 351 1000 326 1025 q 375 940 375 975 q 354 865 375 899 q 300 799 333 830 q 233 739 268 768 q 171 684 199 711 q 123 628 142 657 q 105 568 105 600 l 105 556 l 304 556 q 334 563 326 556 q 346 585 342 569 l 385 585 l 367 526 z "},"³":{"ha":480,"x_min":34,"x_max":446,"o":"m 238 517 q 139 541 186 517 q 63 615 92 566 q 34 741 34 665 l 119 741 q 107 671 107 698 q 128 603 107 631 q 179 561 149 575 q 234 547 208 547 q 314 566 281 547 q 363 616 347 585 q 380 682 380 647 q 358 760 380 733 q 300 796 336 787 q 223 806 265 806 l 185 804 l 185 837 q 258 848 224 837 q 313 881 292 859 q 334 934 334 903 q 312 997 334 971 q 247 1022 290 1022 q 204 1012 224 1022 q 172 980 184 1002 q 159 918 159 957 l 79 929 q 115 1001 89 974 q 175 1040 140 1028 q 245 1053 210 1053 q 317 1039 282 1053 q 376 999 353 1025 q 399 936 399 973 q 387 883 398 905 q 363 849 375 861 q 349 836 351 837 q 416 784 386 831 q 446 683 446 737 q 423 605 446 643 q 353 542 399 566 q 238 517 307 517 z "},"⁴":{"ha":446,"x_min":34,"x_max":412,"o":"m 293 722 l 293 970 l 87 722 l 293 722 m 387 516 l 262 516 l 262 544 q 288 552 282 548 q 293 574 293 557 l 293 667 l 34 667 l 34 713 l 300 1034 l 357 1034 l 357 722 l 412 722 l 412 667 l 357 667 l 357 574 q 361 553 357 557 q 387 544 366 549 l 387 516 z "},"":{"ha":1103,"x_min":34,"x_max":1127,"o":"m 1127 0 l 937 0 l 937 19 l 941 20 q 961 28 953 23 q 970 49 970 34 q 957 97 970 65 q 932 160 945 129 q 846 373 890 269 q 721 556 800 486 q 522 647 642 627 l 529 665 q 673 614 605 653 q 793 510 741 576 l 621 942 l 286 98 q 273 49 273 65 q 281 28 273 34 q 302 20 290 23 l 305 19 l 305 0 l 212 0 q 114 38 154 0 q 54 136 75 76 q 34 263 34 196 q 70 439 34 363 q 165 567 105 515 q 300 645 224 619 q 455 671 376 671 q 493 670 475 671 l 638 1034 l 658 1034 l 1030 98 q 1072 39 1049 53 q 1119 21 1095 24 l 1127 19 l 1127 0 m 194 28 q 240 51 224 30 q 266 98 256 71 l 486 651 q 451 652 469 652 q 306 628 376 652 q 179 554 235 603 q 90 434 123 506 q 56 267 56 361 q 64 193 56 234 q 87 115 71 153 q 130 53 104 78 q 194 28 156 28 z "},"":{"ha":467,"x_min":58,"x_max":1124,"o":"m 888 -218 q 757 -193 823 -216 q 620 -137 692 -170 q 468 -74 550 -105 q 285 -21 386 -43 q 58 0 184 0 l 58 19 q 87 28 77 24 q 108 50 100 35 q 116 98 116 66 l 116 937 q 108 984 116 968 q 88 1006 100 999 q 58 1016 78 1010 l 58 1034 l 243 1034 l 243 1016 q 213 1006 222 1010 q 192 984 200 999 q 184 937 184 968 l 184 127 q 207 69 184 91 q 271 32 229 47 q 374 0 313 16 q 599 -82 492 -33 q 697 -123 648 -104 q 793 -154 745 -142 q 890 -165 842 -165 q 1015 -142 957 -165 q 1117 -60 1072 -118 l 1124 -72 q 1025 -179 1085 -140 q 888 -218 966 -218 z "},"":{"ha":870,"x_min":57,"x_max":1236,"o":"m 1082 -191 q 891 -131 983 -188 q 715 9 799 -75 q 556 178 631 93 q 458 285 505 237 q 372 363 412 334 q 184 431 284 427 l 184 98 q 192 51 184 66 q 212 29 199 35 q 242 19 221 24 l 242 0 l 57 0 l 57 19 q 87 28 77 24 q 107 50 99 35 q 115 98 115 66 l 115 937 q 107 984 115 968 q 87 1006 100 999 q 57 1016 77 1010 l 57 1034 l 498 1034 q 646 994 585 1034 q 738 889 706 954 q 769 753 769 825 q 739 613 769 682 q 646 497 709 545 q 485 435 583 449 q 376 427 431 428 q 513 324 444 393 q 652 172 582 255 q 759 53 705 111 q 870 -54 813 -6 q 988 -130 927 -101 q 1115 -159 1049 -159 q 1236 -134 1173 -159 l 1236 -148 q 1082 -191 1157 -191 m 337 446 q 467 458 404 446 q 600 524 549 478 q 674 632 650 570 q 698 756 698 693 q 671 883 698 823 q 597 979 645 942 q 484 1016 549 1016 l 252 1016 q 184 937 184 1016 l 184 456 q 337 446 259 446 z "},"":{"ha":1325,"x_min":57,"x_max":1291,"o":"m 241 0 l 57 0 l 57 19 q 87 28 77 24 q 107 50 99 35 q 115 98 115 66 l 115 937 q 107 984 115 968 q 87 1006 100 999 q 57 1016 77 1010 l 57 1034 l 498 1034 q 612 1011 562 1034 q 696 950 662 989 q 642 934 668 943 q 574 994 614 971 q 484 1016 534 1016 l 252 1016 q 183 937 183 1016 l 183 456 q 336 446 259 446 q 466 458 404 446 q 637 566 576 486 q 697 756 697 646 q 661 904 697 836 q 475 793 553 873 q 363 598 397 713 l 345 598 q 520 855 392 758 q 809 951 648 951 q 1052 886 943 951 q 1226 712 1161 821 q 1291 470 1291 603 q 1233 240 1291 347 q 1076 69 1175 134 q 848 1 976 4 q 727 19 778 1 q 638 68 677 37 q 570 137 600 98 q 512 215 540 175 q 433 317 475 269 q 332 397 391 366 q 183 431 272 428 l 183 98 q 191 51 183 66 q 211 29 199 35 q 241 19 220 24 l 241 0 m 863 29 q 1021 65 950 29 q 1142 162 1092 101 q 1220 299 1193 222 q 1247 458 1247 376 q 1185 691 1247 586 q 1017 859 1122 796 q 783 922 911 922 q 722 917 752 922 q 768 753 768 841 q 691 538 768 624 q 485 435 614 453 q 376 427 431 428 q 472 353 429 401 q 555 248 515 304 q 617 168 585 207 q 685 98 648 130 q 765 48 721 67 q 863 29 808 29 z "},"":{"ha":1438,"x_min":58,"x_max":1463,"o":"m 1463 0 l 1274 0 l 1274 19 l 1277 20 q 1298 28 1289 23 q 1306 49 1306 34 q 1293 98 1306 65 l 1262 176 q 1169 406 1217 294 q 1031 576 1119 516 q 841 649 944 637 l 619 92 q 609 54 609 71 q 642 19 609 29 l 642 0 l 58 0 l 58 19 q 87 28 77 24 q 108 50 100 35 q 116 98 116 66 l 116 937 q 108 984 116 968 q 87 1006 100 999 q 58 1016 78 1010 l 58 1034 l 242 1034 l 242 1016 q 212 1006 222 1010 q 192 984 199 999 q 184 937 184 968 l 184 98 q 200 40 184 60 q 254 19 216 19 l 478 19 q 397 125 425 61 q 370 263 370 190 q 406 439 370 363 q 501 567 441 515 q 636 645 561 619 q 791 671 712 671 q 829 670 811 671 l 975 1034 l 994 1034 l 1367 98 q 1409 39 1385 53 q 1455 21 1432 24 l 1463 19 l 1463 0 m 1129 510 l 958 942 l 849 668 q 1002 618 929 658 q 1129 510 1074 579 m 522 23 q 569 44 548 23 q 602 98 589 66 l 822 651 q 787 652 805 652 q 596 608 686 652 q 451 477 507 564 q 393 263 395 391 q 434 95 393 167 q 522 23 475 23 z "},"":{"ha":1465,"x_min":-62,"x_max":1451,"o":"m 1102 -18 q 956 5 1012 -18 q 867 69 900 29 q 815 161 834 109 q 781 269 796 212 q 736 406 764 338 q 599 576 686 516 q 409 649 511 637 l 189 98 q 176 49 176 65 q 185 28 176 34 q 206 20 193 23 l 210 19 l 210 0 l 73 0 q -28 111 6 40 q -62 263 -62 181 q -27 439 -62 363 q 68 567 9 515 q 204 645 128 619 q 359 671 279 671 q 397 670 378 671 l 542 1034 l 562 1034 l 829 363 q 817 265 817 313 q 846 132 817 192 q 938 36 876 72 q 1099 0 1000 0 q 1229 32 1166 0 q 1331 124 1291 63 q 1371 272 1371 185 q 1349 367 1371 326 q 1291 440 1327 408 q 1209 499 1255 472 q 1114 551 1164 526 q 1017 604 1065 576 q 932 665 970 631 q 871 743 894 699 q 848 846 848 787 q 880 946 848 899 q 971 1023 911 994 q 1116 1053 1031 1053 q 1225 1036 1173 1053 q 1321 985 1278 1020 q 1388 894 1363 949 l 1308 838 q 1274 949 1303 905 q 1202 1013 1245 992 q 1113 1034 1158 1034 q 1012 1008 1056 1034 q 943 940 968 981 q 918 855 918 899 q 938 769 918 806 q 994 703 959 732 q 1072 650 1028 674 q 1164 602 1116 625 q 1267 547 1217 576 q 1360 481 1318 518 q 1426 396 1401 445 q 1451 282 1451 348 q 1421 157 1451 213 q 1342 63 1392 102 q 1230 3 1293 24 q 1102 -18 1168 -18 m 696 510 l 525 942 l 416 668 q 570 618 497 658 q 696 510 642 579 m 73 19 l 81 21 q 127 39 104 24 q 170 98 151 53 l 389 651 q 355 652 372 652 q 164 608 254 652 q 19 478 75 564 q -39 264 -37 391 q -11 118 -39 184 q 73 19 18 52 z "},"":{"ha":1624,"x_min":-18,"x_max":1589,"o":"m 1053 -18 q 936 -6 994 -18 q 806 42 878 7 q 856 77 831 58 q 859 75 857 76 q 861 73 860 75 q 1096 8 975 8 q 1306 65 1206 8 q 1465 231 1409 127 q 1522 456 1522 335 q 1448 752 1522 617 q 1253 955 1372 884 q 1007 1027 1135 1027 q 802 971 899 1027 q 985 780 917 899 q 1053 517 1053 661 q 1010 303 1053 401 q 892 134 966 205 q 721 22 817 62 q 518 -18 624 -18 q 249 54 370 -18 q 55 248 127 126 q -18 517 -18 370 q 55 787 -18 665 q 249 980 127 908 q 518 1053 370 1053 q 785 981 664 1053 q 1053 1053 912 1053 q 1323 980 1201 1053 q 1517 787 1444 908 q 1589 517 1589 665 q 1517 248 1589 370 q 1323 54 1444 126 q 1053 -18 1201 -18 m 564 8 q 768 64 672 8 q 584 259 650 139 q 518 517 518 378 q 573 754 518 645 q 722 938 628 863 l 740 926 q 624 765 663 859 q 585 564 585 672 q 647 304 585 429 q 821 100 709 180 q 943 257 900 164 q 987 456 987 351 q 913 752 987 618 q 800 894 867 832 q 650 991 733 956 q 472 1027 566 1027 q 264 969 364 1027 q 105 799 160 905 q 49 564 50 692 q 124 283 49 415 q 315 80 199 151 q 564 8 432 9 z "},"":{"ha":1718,"x_min":-18,"x_max":1744,"o":"m 517 -18 q 248 54 370 -18 q 55 248 127 126 q -18 517 -18 370 q 55 787 -18 665 q 248 980 127 908 q 517 1053 370 1053 q 756 997 646 1053 q 940 846 865 941 l 905 764 q 713 958 829 890 q 473 1026 597 1026 q 264 969 365 1026 q 104 797 159 905 q 49 563 49 689 q 123 282 49 415 q 316 80 198 151 q 560 8 434 8 q 965 308 850 11 l 1102 651 q 1067 652 1085 652 q 878 609 968 652 q 732 479 788 565 q 673 267 675 393 q 689 154 673 207 q 735 63 705 101 l 720 56 q 668 151 685 98 q 650 263 650 205 q 686 439 650 363 q 781 567 722 515 q 917 645 841 619 q 1072 671 992 671 q 1109 670 1091 671 l 1254 1034 l 1274 1034 l 1647 98 q 1689 39 1666 53 q 1735 21 1712 24 l 1744 19 l 1744 0 l 1554 0 l 1554 19 l 1557 20 q 1578 28 1569 23 q 1586 49 1586 34 q 1573 98 1586 65 l 1545 170 q 1449 406 1498 291 q 1312 576 1399 516 q 1121 649 1224 637 l 981 296 q 881 122 940 192 q 735 17 823 52 q 517 -18 648 -18 m 1409 510 l 1238 942 l 1128 668 q 1282 618 1209 658 q 1409 510 1354 579 z "},"":{"ha":1748,"x_min":58,"x_max":1773,"o":"m 802 -18 q 688 8 739 -18 q 596 78 637 35 q 520 172 554 121 q 456 271 486 222 q 412 341 433 309 q 307 415 370 398 q 189 431 243 431 l 184 431 l 184 98 q 192 51 184 66 q 212 29 200 35 q 239 20 224 23 l 243 19 l 243 0 l 58 0 l 58 19 q 60 20 59 19 q 87 28 75 22 q 108 50 100 35 q 116 98 116 66 l 116 937 q 108 984 116 968 q 88 1005 100 999 q 60 1015 75 1012 l 58 1016 l 58 1034 l 499 1034 q 646 994 586 1034 q 738 889 707 954 q 770 753 770 825 q 740 613 770 682 q 647 497 709 545 q 486 435 584 449 q 376 427 431 428 q 466 353 423 404 q 552 241 509 302 q 655 109 601 170 q 772 21 709 47 q 703 131 726 66 q 680 263 680 195 q 715 439 680 363 q 811 567 751 515 q 946 645 871 619 q 1101 671 1021 671 q 1139 670 1120 671 l 1284 1034 l 1304 1034 l 1676 98 q 1718 39 1695 53 q 1773 19 1741 24 l 1773 0 l 1583 0 l 1583 19 l 1586 20 q 1607 28 1598 23 q 1615 49 1615 34 q 1603 98 1615 65 l 1571 176 q 1478 406 1526 294 q 1341 576 1428 516 q 1151 649 1253 637 l 937 112 q 906 41 921 68 q 868 -2 892 14 q 802 -18 844 -18 m 828 12 q 868 27 852 12 q 897 66 885 43 q 916 109 908 88 l 1131 651 q 1097 652 1114 652 q 906 608 996 652 q 760 478 816 564 q 703 263 705 391 q 725 130 703 194 q 789 27 747 66 q 828 12 808 12 m 1439 510 l 1267 942 l 1158 668 q 1312 618 1239 658 q 1439 510 1384 579 m 338 446 q 467 458 404 446 q 600 524 549 478 q 675 632 651 570 q 699 756 699 693 q 672 883 699 823 q 598 979 646 942 q 484 1016 550 1016 l 252 1016 q 184 937 184 1016 l 184 456 q 338 446 260 446 z "},"":{"ha":1580,"x_min":-20,"x_max":1589,"o":"m 1093 563 q 1160 547 1125 556 l 1160 937 q 1225 1017 1160 1014 l 1471 1017 q 1544 998 1519 1017 q 1573 956 1567 979 l 1589 956 l 1570 1033 l 1033 1033 l 1033 1017 q 1065 1004 1055 1010 q 1084 982 1078 998 q 1093 937 1093 969 l 1093 563 m 1160 473 q 1247 460 1205 465 q 1525 610 1455 444 q 1253 511 1426 483 q 991 566 1138 524 q 962 572 975 569 q 713 623 828 610 q 435 467 505 636 q 709 572 534 597 q 930 529 808 562 l 930 406 q 879 211 927 300 q 745 66 828 121 q 556 9 661 12 q 313 79 431 9 q 118 284 195 153 q 44 563 44 416 q 102 800 47 690 q 262 969 156 905 q 469 1027 361 1027 q 709 956 594 1027 q 901 764 825 889 l 933 847 q 751 998 860 940 q 514 1052 642 1052 q 245 979 367 1052 q 50 787 124 908 q -20 518 -20 665 q 50 249 -20 371 q 245 54 124 127 q 514 -16 367 -16 q 758 38 649 -16 q 949 208 866 92 l 949 524 q 972 518 960 521 l 998 511 l 1093 487 l 1093 99 q 1084 51 1093 66 q 1065 32 1078 35 q 1033 19 1055 25 l 1033 -1 l 1570 -1 l 1589 79 l 1573 79 q 1544 38 1567 54 q 1471 19 1519 19 l 1225 19 q 1173 44 1190 19 q 1160 99 1160 66 l 1160 473 z "},"":{"ha":1962,"x_min":-22,"x_max":1974,"o":"m 1091 597 q 1145 588 1116 591 q 1158 585 1152 588 l 1158 937 q 1164 982 1158 969 q 1187 1004 1174 998 q 1216 1017 1196 1010 l 1216 1033 l 1030 1033 l 1030 1017 q 1062 1004 1053 1010 q 1082 982 1075 998 q 1091 937 1091 969 l 1091 597 m 1846 494 q 1974 604 1938 531 q 1846 529 1919 555 l 1846 937 q 1855 982 1846 969 q 1874 1004 1862 998 q 1907 1017 1885 1010 l 1907 1033 l 1721 1033 l 1721 1017 q 1750 1004 1740 1010 q 1772 982 1763 998 q 1779 937 1779 969 l 1779 511 q 1571 505 1686 492 q 1187 559 1404 518 l 1149 566 q 784 617 950 604 q 528 585 640 623 q 374 460 416 547 q 777 566 518 591 q 928 550 848 560 l 928 406 q 877 211 924 300 q 743 66 825 121 q 553 9 663 12 q 311 79 429 9 q 119 284 192 153 q 45 563 45 416 q 99 800 45 690 q 259 969 154 905 q 467 1027 358 1027 q 707 956 592 1027 q 899 764 822 889 l 935 847 q 749 998 857 940 q 512 1052 640 1052 q 243 979 365 1052 q 48 787 121 908 q -22 518 -22 665 q 48 249 -22 371 q 243 54 121 127 q 512 -16 365 -16 q 755 38 650 -16 q 947 208 864 92 l 947 547 q 1091 524 1016 538 l 1091 99 q 1082 51 1091 66 q 1062 32 1075 35 q 1030 19 1053 25 l 1030 -1 l 1216 -1 l 1216 19 q 1187 32 1196 25 q 1164 51 1174 35 q 1158 99 1158 66 l 1158 512 l 1162 511 l 1200 505 q 1565 454 1398 467 q 1779 472 1683 448 l 1779 99 q 1772 51 1779 66 q 1750 32 1763 35 q 1721 19 1740 25 l 1721 -1 l 1907 -1 l 1907 19 q 1874 32 1885 25 q 1855 51 1862 35 q 1846 99 1846 66 l 1846 494 z "},"":{"ha":1394,"x_min":-16,"x_max":1336,"o":"m 519 -17 q 763 37 655 -17 q 955 208 871 92 l 955 555 l 404 555 l 382 478 l 401 478 q 429 519 406 501 q 502 536 452 536 l 937 536 l 937 405 q 883 211 932 300 q 751 66 834 121 q 562 9 668 12 q 317 80 435 9 q 125 283 199 152 q 51 564 51 416 q 106 798 52 692 q 266 968 160 905 q 475 1025 367 1025 q 714 957 599 1025 q 906 764 830 889 l 941 846 q 876 916 911 884 q 871 920 873 918 q 814 1004 835 956 q 794 1105 794 1051 q 814 1207 794 1160 q 871 1291 835 1255 q 954 1347 907 1326 q 1056 1368 1002 1368 q 1158 1347 1110 1368 q 1242 1291 1206 1326 q 1298 1207 1278 1255 q 1318 1105 1318 1160 q 1300 1054 1318 1069 q 1249 1036 1282 1039 q 1195 1033 1225 1033 l 1143 1034 l 1143 1016 q 1180 999 1164 1013 q 1202 936 1202 981 l 1201 231 q 1195 120 1201 168 q 1162 45 1188 72 q 1077 16 1136 16 q 1013 27 1049 16 l 1013 4 q 1107 -16 1063 -16 q 1196 7 1160 -16 q 1251 86 1232 31 q 1270 237 1270 142 l 1270 936 q 1277 983 1270 968 q 1298 1005 1285 998 q 1329 1015 1308 1010 q 1332 1060 1329 1040 q 1336 1105 1336 1080 q 1314 1214 1336 1164 q 1254 1303 1293 1265 q 1165 1364 1216 1342 q 1056 1385 1114 1385 q 947 1364 998 1385 q 858 1303 897 1342 q 798 1214 820 1265 q 776 1105 776 1164 q 816 962 776 1027 q 519 1052 681 1052 q 250 980 371 1052 q 57 786 129 907 q -16 517 -16 665 q 57 249 -16 370 q 250 55 129 127 q 519 -17 371 -17 z "},"":{"ha":1707,"x_min":-27,"x_max":1688,"o":"m 507 -17 q 751 37 644 -17 q 943 208 859 92 l 943 555 l 392 555 l 371 478 l 390 478 q 417 519 394 501 q 490 536 441 536 l 924 536 l 924 405 q 871 211 920 300 q 739 66 822 121 q 549 9 656 12 q 306 80 424 9 q 113 283 188 152 q 39 564 39 416 q 94 798 40 692 q 254 968 149 905 q 463 1025 355 1025 q 703 957 587 1025 q 894 764 818 889 l 928 846 q 864 916 899 884 l 859 920 q 802 1004 823 956 q 782 1105 782 1051 q 802 1207 782 1160 q 859 1291 823 1255 q 942 1347 895 1326 q 1044 1368 990 1368 q 1146 1347 1099 1368 q 1230 1291 1194 1326 q 1286 1207 1265 1255 q 1306 1105 1306 1160 q 1288 1054 1306 1069 q 1236 1036 1270 1039 q 1183 1033 1213 1033 l 1131 1034 l 1131 1016 q 1168 999 1152 1013 q 1190 936 1190 981 l 1190 98 q 1162 30 1190 44 q 1131 20 1152 25 l 1131 1 l 1666 1 l 1688 78 l 1670 78 q 1569 20 1655 20 l 1329 20 q 1274 40 1290 20 q 1258 98 1258 61 l 1258 936 q 1266 983 1258 968 q 1286 1005 1274 998 q 1317 1015 1297 1010 q 1321 1060 1317 1040 q 1324 1105 1324 1080 q 1302 1214 1324 1164 q 1242 1303 1280 1265 q 1153 1364 1204 1342 q 1044 1385 1102 1385 q 935 1364 986 1385 q 846 1303 884 1342 q 786 1214 808 1265 q 764 1105 764 1164 q 804 962 764 1027 q 507 1052 671 1052 q 238 980 359 1052 q 45 786 117 907 q -27 517 -27 665 q 45 249 -27 370 q 238 55 117 127 q 507 -17 359 -17 z "},"":{"ha":1843,"x_min":-20,"x_max":1869,"o":"m 514 -17 q 759 37 651 -17 q 950 208 867 92 l 950 514 l 932 514 l 932 405 q 879 211 928 300 q 746 66 829 121 q 557 9 663 12 q 313 80 431 9 q 120 283 195 152 q 46 564 46 416 q 102 798 47 692 q 262 968 156 905 q 471 1025 362 1025 q 710 957 594 1025 q 901 764 825 889 l 936 846 q 752 996 861 941 q 514 1052 642 1052 q 245 980 366 1052 q 52 786 124 907 q -20 517 -20 665 q 52 249 -20 370 q 245 55 124 127 q 514 -17 366 -17 m 1777 -17 q 1572 103 1666 -17 q 1433 338 1508 184 q 1388 425 1409 385 q 1283 515 1345 494 q 1160 535 1220 535 l 1160 98 q 1168 52 1160 66 q 1189 30 1176 37 q 1219 20 1202 24 l 1219 1 l 1034 1 l 1034 20 q 1064 29 1050 22 q 1085 51 1078 36 q 1093 98 1093 66 l 1093 536 l 497 536 q 425 519 448 536 q 397 478 401 501 l 378 478 l 399 555 l 1286 555 q 1422 562 1350 555 q 1558 605 1494 569 q 1630 682 1602 633 q 1662 808 1662 737 q 1640 905 1662 858 q 1573 984 1619 952 q 1460 1015 1527 1015 l 1229 1015 q 1160 936 1160 1015 l 1160 576 l 1093 576 l 1093 936 q 1085 983 1093 968 q 1065 1005 1078 998 q 1038 1015 1052 1011 q 1034 1015 1036 1015 l 1034 1034 l 1475 1034 q 1655 970 1581 1034 q 1733 799 1733 901 q 1706 688 1733 739 q 1353 529 1626 539 q 1442 439 1400 502 q 1528 301 1485 377 q 1611 165 1568 230 q 1705 59 1655 101 q 1815 16 1756 16 q 1869 28 1843 16 l 1869 12 q 1777 -17 1824 -17 z "},"":{"ha":572,"x_min":17,"x_max":564,"o":"m 506 -18 q 403 30 434 -18 q 372 167 372 77 l 372 651 q 367 705 372 688 q 350 726 361 722 q 319 730 338 730 l 144 730 l 144 165 q 150 86 144 123 q 175 26 156 49 q 233 3 193 3 q 262 7 245 3 l 262 -14 q 210 -18 233 -18 q 106 30 137 -18 q 76 167 76 77 l 75 651 q 69 707 75 690 q 51 727 63 723 q 17 730 38 730 l 17 749 q 125 844 111 749 l 144 844 l 144 749 l 313 749 q 422 844 407 749 l 440 844 l 440 749 l 564 749 l 564 730 l 440 730 l 441 165 q 447 86 441 123 q 471 26 452 49 q 529 3 490 3 q 558 7 542 3 l 558 -14 q 506 -18 530 -18 z "}}}
